<svg width="68" height="9" viewBox="0 0 68 9" fill="none" xmlns="http://www.w3.org/2000/svg">
<path d="M67.7973 0.136353V8.86362H66.7746L62.0189 2.01135H61.9336V8.86362H60.8768V0.136353H61.8996L66.6723 7.00567H66.7575V0.136353H67.7973Z" fill="black"/>
<path d="M53.705 8.86362V0.136353H58.972V1.07385H54.7618V4.02271H58.6993V4.96021H54.7618V7.92612H59.0402V8.86362H53.705Z" fill="black"/>
<path d="M50.7529 2.86356C50.6591 2.57663 50.5355 2.31953 50.3821 2.09225C50.2316 1.86214 50.0512 1.66612 49.8409 1.50418C49.6335 1.34225 49.3977 1.21867 49.1335 1.13345C48.8693 1.04822 48.5796 1.00561 48.2642 1.00561C47.7472 1.00561 47.277 1.13913 46.8537 1.40617C46.4304 1.67322 46.0938 2.06668 45.8438 2.58657C45.5938 3.10646 45.4688 3.74424 45.4688 4.49992C45.4688 5.25561 45.5952 5.89339 45.848 6.41327C46.1009 6.93316 46.4432 7.32663 46.875 7.59367C47.3068 7.86072 47.7926 7.99424 48.3324 7.99424C48.8324 7.99424 49.2727 7.88771 49.6534 7.67464C50.037 7.45873 50.3352 7.15475 50.5483 6.76271C50.7642 6.36782 50.8722 5.90333 50.8722 5.36924L51.196 5.43742H48.571V4.49992H51.8949V5.43742C51.8949 6.15617 51.7415 6.78117 51.4347 7.31242C51.1307 7.84367 50.7102 8.25561 50.1733 8.54822C49.6392 8.83799 49.0256 8.98288 48.3324 8.98288C47.5597 8.98288 46.8807 8.80106 46.2955 8.43742C45.7131 8.07379 45.2585 7.55674 44.9318 6.88629C44.608 6.21583 44.446 5.42038 44.446 4.49992C44.446 3.80958 44.5384 3.18884 44.723 2.63771C44.9105 2.08373 45.1747 1.61214 45.5156 1.22293C45.8566 0.83373 46.26 0.535435 46.7259 0.328049C47.1918 0.120662 47.7046 0.0169678 48.2642 0.0169678C48.7245 0.0169678 49.1534 0.0865703 49.5512 0.225775C49.9517 0.362138 50.3083 0.556741 50.6208 0.809582C50.9361 1.05958 51.1989 1.3593 51.4091 1.70873C51.6193 2.05532 51.7642 2.44026 51.8438 2.86356H50.7529Z" fill="black"/>
<path d="M35.3917 8.86362L33.0054 0.136353H34.0792L35.9031 7.24431H35.9883L37.8463 0.136353H39.0395L40.8974 7.24431H40.9826L42.8065 0.136353H43.8804L41.494 8.86362H40.4031L38.477 1.90908H38.4088L36.4826 8.86362H35.3917Z" fill="black"/>
<path d="M26.6346 8.86362V0.136353H31.9017V1.07385H27.6915V4.02271H31.629V4.96021H27.6915V7.92612H31.9699V8.86362H26.6346Z" fill="black"/>
<path d="M24.5199 0.136353V8.86362H23.4972L18.7415 2.01135H18.6563V8.86362H17.5995V0.136353H18.6222L23.3949 7.00567H23.4802V0.136353H24.5199Z" fill="black"/>
<path d="M15.4805 0.136353V8.86362H14.4237V0.136353H15.4805Z" fill="black"/>
<path d="M2.01142 4.5C2.01142 4.03409 2.12505 3.60937 2.35232 3.22585C2.5796 2.84233 2.88499 2.53693 3.26852 2.30966C3.65204 2.08239 4.07676 1.96875 4.54267 1.96875C4.94607 1.96875 5.31823 2.0554 5.65914 2.22869C6.00289 2.40199 6.28698 2.6392 6.51142 2.94034C6.73585 3.23864 6.87505 3.5767 6.92903 3.95454H5.89778C5.84096 3.66193 5.68329 3.4233 5.42477 3.23864C5.16624 3.05114 4.87221 2.95739 4.54267 2.95739C4.25857 2.95739 4.00005 3.02699 3.7671 3.16619C3.53414 3.3054 3.34806 3.49148 3.20886 3.72443C3.06965 3.95739 3.00005 4.21591 3.00005 4.5C3.00005 4.78409 3.06965 5.04261 3.20886 5.27557C3.34806 5.50852 3.53414 5.6946 3.7671 5.83381C4.00005 5.97301 4.25857 6.04261 4.54267 6.04261C4.87221 6.04261 5.15062 5.95028 5.37789 5.76562C5.60801 5.57812 5.75289 5.33807 5.81255 5.04545H6.8438C6.78982 5.4233 6.65772 5.76278 6.44749 6.06392C6.23727 6.36221 5.96738 6.59801 5.63784 6.77131C5.31113 6.9446 4.94607 7.03125 4.54267 7.03125C4.07676 7.03125 3.65204 6.91761 3.26852 6.69034C2.88499 6.46307 2.5796 6.15767 2.35232 5.77415C2.12505 5.39062 2.01142 4.96591 2.01142 4.5ZM4.50005 9C3.88073 9 3.29835 8.88352 2.75289 8.65057C2.21028 8.41761 1.73159 8.09517 1.31681 7.68324C0.904881 7.26847 0.581017 6.78977 0.345222 6.24716C0.112267 5.70454 -0.00278959 5.12216 5.13427e-05 4.5C0.00289222 3.87784 0.12079 3.29545 0.353744 2.75284C0.58954 2.21023 0.913404 1.73295 1.32534 1.32102C1.73727 0.906249 2.21454 0.582386 2.75715 0.349432C3.29977 0.116477 3.88073 0 4.50005 0C5.12221 0 5.7046 0.116477 6.24721 0.349432C6.79267 0.582386 7.26994 0.906249 7.67903 1.32102C8.09096 1.73295 8.4134 2.21023 8.64636 2.75284C8.87931 3.29545 8.99721 3.87784 9.00005 4.5C9.00289 5.12216 8.88783 5.70454 8.65488 6.24716C8.42193 6.78977 8.09948 7.26847 7.68755 7.68324C7.27562 8.09517 6.79693 8.41761 6.25147 8.65057C5.70602 8.88352 5.12221 9 4.50005 9ZM4.50005 8.01136C4.98585 8.01136 5.44181 7.92045 5.86795 7.73864C6.29409 7.55682 6.66767 7.3054 6.98869 6.98438C7.30971 6.66335 7.56113 6.29119 7.74295 5.8679C7.92477 5.44176 8.01426 4.98722 8.01141 4.50426C8.00857 4.01847 7.91624 3.5625 7.73443 3.13636C7.55261 2.71023 7.30119 2.33665 6.98017 2.01562C6.65914 1.6946 6.28698 1.44318 5.86369 1.26136C5.44039 1.07955 4.98585 0.988636 4.50005 0.988636C4.0171 0.988636 3.56397 1.07955 3.14068 1.26136C2.71738 1.44318 2.34522 1.69602 2.0242 2.01989C1.70318 2.34091 1.45034 2.71449 1.26568 3.14062C1.08386 3.56392 0.991529 4.01847 0.988688 4.50426C0.985847 4.98437 1.07534 5.4375 1.25715 5.86364C1.43897 6.28693 1.69039 6.65909 2.01142 6.98011C2.33528 7.30114 2.70886 7.55398 3.13215 7.73864C3.55829 7.92045 4.01426 8.01136 4.50005 8.01136Z" fill="black"/>
</svg>
