<svg width="13" height="14" viewBox="0 0 13 14" fill="none" xmlns="http://www.w3.org/2000/svg">
<path d="M12.9999 2.78286V4.24055H0V2.78286H12.9999ZM12.9999 4.83688V6.29456H0V4.83688H12.9999ZM6.61261 8.97141H3.27317V6.95715H6.61261C7.21335 6.95715 7.69483 6.84451 8.05704 6.61923C8.41926 6.39395 8.68208 6.09579 8.84552 5.72474C9.00896 5.35369 9.09068 4.95172 9.09068 4.51883C9.09068 4.06828 9.00896 3.65747 8.84552 3.28642C8.68208 2.91096 8.41926 2.61059 8.05704 2.38531C7.69483 2.15561 7.21114 2.04076 6.60598 2.04076H4.0219V13.5698H1.58358V0H6.60598C7.67937 0 8.58269 0.200984 9.31596 0.602952C10.0536 1.0005 10.6102 1.53941 10.9857 2.21966C11.3656 2.89992 11.5555 3.66189 11.5555 4.50558C11.5555 5.34486 11.3656 6.10241 10.9857 6.77825C10.6102 7.44967 10.0558 7.98416 9.32258 8.38171C8.58932 8.77484 7.68599 8.97141 6.61261 8.97141Z" fill="white"/>
</svg>
