<svg width="12" height="4" viewBox="0 0 12 4" fill="none" xmlns="http://www.w3.org/2000/svg">
<path d="M8.83987 2.26401C8.83987 1.95641 8.8971 1.68636 9.01156 1.45387C9.12959 1.22139 9.28875 1.04255 9.48905 0.917362C9.68935 0.792176 9.91289 0.729583 10.1597 0.729583C10.3707 0.729583 10.5549 0.772504 10.7123 0.858346C10.8733 0.944188 10.9966 1.05686 11.0825 1.19635V0.772504H11.9999V3.76624H11.0825V3.3424C10.9931 3.48189 10.8679 3.59456 10.7069 3.6804C10.5496 3.76624 10.3654 3.80916 10.1543 3.80916C9.91111 3.80916 9.68935 3.74657 9.48905 3.62138C9.28875 3.49262 9.12959 3.31199 9.01156 3.07951C8.8971 2.84344 8.83987 2.57161 8.83987 2.26401ZM11.0825 2.26937C11.0825 2.04046 11.0181 1.85983 10.8893 1.72749C10.7642 1.59516 10.6104 1.52899 10.4279 1.52899C10.2455 1.52899 10.0899 1.59516 9.96118 1.72749C9.836 1.85626 9.7734 2.0351 9.7734 2.26401C9.7734 2.49292 9.836 2.67533 9.96118 2.81125C10.0899 2.94359 10.2455 3.00976 10.4279 3.00976C10.6104 3.00976 10.7642 2.94359 10.8893 2.81125C11.0181 2.67891 11.0825 2.49828 11.0825 2.26937Z" fill="white"/>
<path d="M8.51109 2.98841V3.76636H8.04433C7.71169 3.76636 7.45237 3.68588 7.26638 3.52493C7.08039 3.36039 6.9874 3.09393 6.9874 2.72552V1.53447H6.62257V0.772619H6.9874V0.0429629H7.90483V0.772619H8.50572V1.53447H7.90483V2.73625C7.90483 2.82567 7.92629 2.89005 7.96921 2.9294C8.01213 2.96874 8.08367 2.98841 8.18382 2.98841H8.51109Z" fill="white"/>
<path d="M6.35871 2.22109C6.35871 2.30693 6.35335 2.39635 6.34262 2.48934H4.26632C4.28062 2.67533 4.33964 2.8184 4.44337 2.91855C4.55067 3.01512 4.68122 3.06341 4.83502 3.06341C5.06393 3.06341 5.2231 2.96684 5.31252 2.77369H6.28897C6.23889 2.97041 6.14769 3.14746 6.01535 3.30484C5.88658 3.46222 5.72384 3.58561 5.52712 3.67503C5.3304 3.76445 5.11043 3.80916 4.86721 3.80916C4.57392 3.80916 4.31282 3.74657 4.0839 3.62138C3.85499 3.4962 3.67615 3.31736 3.54739 3.08487C3.41863 2.85238 3.35425 2.58055 3.35425 2.26937C3.35425 1.9582 3.41684 1.68636 3.54203 1.45387C3.67079 1.22139 3.84963 1.04255 4.07854 0.917362C4.30745 0.792176 4.57034 0.729583 4.86721 0.729583C5.15693 0.729583 5.41445 0.790387 5.63979 0.911997C5.86512 1.03361 6.04038 1.20708 6.16557 1.43241C6.29433 1.65775 6.35871 1.92064 6.35871 2.22109ZM5.41982 1.97966C5.41982 1.82228 5.36617 1.69709 5.25886 1.6041C5.15156 1.5111 5.01743 1.4646 4.85648 1.4646C4.70268 1.4646 4.57213 1.50931 4.46483 1.59873C4.3611 1.68815 4.29672 1.81513 4.27168 1.97966H5.41982Z" fill="white"/>
<path d="M2.28018 1.83487C2.49836 1.88137 2.67362 1.99046 2.80596 2.16214C2.9383 2.33025 3.00447 2.52339 3.00447 2.74158C3.00447 3.05633 2.89359 3.3067 2.67183 3.49269C2.45365 3.67511 2.14784 3.76631 1.75439 3.76631H0V0H1.69538C2.07809 0 2.37675 0.0876303 2.59135 0.262891C2.80953 0.438151 2.91862 0.676005 2.91862 0.976452C2.91862 1.19821 2.85961 1.38241 2.74158 1.52906C2.62712 1.67571 2.47332 1.77764 2.28018 1.83487ZM0.917435 1.52369H1.51833C1.66855 1.52369 1.78301 1.4915 1.8617 1.42712C1.94396 1.35916 1.98509 1.2608 1.98509 1.13204C1.98509 1.00328 1.94396 0.904917 1.8617 0.836959C1.78301 0.769001 1.66855 0.735021 1.51833 0.735021H0.917435V1.52369ZM1.59344 3.02593C1.74724 3.02593 1.86527 2.99195 1.94754 2.92399C2.03338 2.85246 2.0763 2.75052 2.0763 2.61818C2.0763 2.48584 2.03159 2.38211 1.94217 2.307C1.85633 2.23189 1.73651 2.19433 1.58271 2.19433H0.917435V3.02593H1.59344Z" fill="white"/>
</svg>
