<svg width="48" height="9" viewBox="0 0 48 9" fill="none" xmlns="http://www.w3.org/2000/svg">
<path d="M41.4258 8.84666V0.119385H44.3746C45.0593 0.119385 45.619 0.242964 46.0536 0.490123C46.4911 0.734442 46.815 1.06541 47.0252 1.48302C47.2354 1.90063 47.3406 2.36654 47.3406 2.88075C47.3406 3.39495 47.2354 3.86228 47.0252 4.28274C46.8178 4.70319 46.4968 5.03842 46.0621 5.28842C45.6275 5.53558 45.0707 5.65916 44.3917 5.65916H42.2781V4.72166H44.3576C44.8263 4.72166 45.2028 4.64069 45.4869 4.47876C45.7709 4.31683 45.9769 4.09808 46.1048 3.82251C46.2354 3.5441 46.3008 3.23018 46.3008 2.88075C46.3008 2.53132 46.2354 2.21882 46.1048 1.94325C45.9769 1.66768 45.7695 1.45177 45.4826 1.29552C45.1957 1.13643 44.815 1.05688 44.3406 1.05688H42.4826V8.84666H41.4258Z" fill="black"/>
<path d="M38.2585 0.119385H39.3153V5.89779C39.3153 6.49438 39.1747 7.02706 38.8935 7.49581C38.6151 7.96171 38.2216 8.32961 37.7131 8.5995C37.2045 8.86654 36.608 9.00007 35.9233 9.00007C35.2386 9.00007 34.642 8.86654 34.1335 8.5995C33.625 8.32961 33.2301 7.96171 32.9489 7.49581C32.6705 7.02706 32.5312 6.49438 32.5312 5.89779V0.119385H33.5881V5.81257C33.5881 6.2387 33.6818 6.61796 33.8693 6.95035C34.0568 7.2799 34.3239 7.53984 34.6705 7.73018C35.0199 7.91768 35.4375 8.01143 35.9233 8.01143C36.4091 8.01143 36.8267 7.91768 37.1761 7.73018C37.5256 7.53984 37.7926 7.2799 37.9773 6.95035C38.1648 6.61796 38.2585 6.2387 38.2585 5.81257V0.119385Z" fill="black"/>
<path d="M27.0415 0.119385V8.84666H26.0188L21.2631 1.99438H21.1779V8.84666H20.1211V0.119385H21.1438L25.9165 6.9887H26.0018V0.119385H27.0415Z" fill="black"/>
<path d="M17.169 2.84659C17.0753 2.55966 16.9517 2.30256 16.7983 2.07528C16.6477 1.84517 16.4673 1.64915 16.2571 1.48722C16.0497 1.32528 15.8139 1.2017 15.5497 1.11648C15.2855 1.03125 14.9957 0.988636 14.6804 0.988636C14.1633 0.988636 13.6931 1.12216 13.2699 1.3892C12.8466 1.65625 12.5099 2.04972 12.2599 2.5696C12.0099 3.08949 11.8849 3.72727 11.8849 4.48295C11.8849 5.23864 12.0113 5.87642 12.2642 6.39631C12.517 6.91619 12.8593 7.30966 13.2912 7.5767C13.723 7.84375 14.2088 7.97727 14.7485 7.97727C15.2485 7.97727 15.6889 7.87074 16.0696 7.65767C16.4531 7.44176 16.7514 7.13778 16.9645 6.74574C17.1804 6.35085 17.2883 5.88636 17.2883 5.35227L17.6122 5.42045H14.9872V4.48295H18.311V5.42045C18.311 6.1392 18.1576 6.7642 17.8508 7.29545C17.5468 7.8267 17.1264 8.23864 16.5895 8.53125C16.0554 8.82102 15.4417 8.96591 14.7485 8.96591C13.9758 8.96591 13.2968 8.78409 12.7116 8.42045C12.1292 8.05682 11.6747 7.53977 11.348 6.86932C11.0241 6.19886 10.8622 5.40341 10.8622 4.48295C10.8622 3.79261 10.9545 3.17187 11.1392 2.62074C11.3267 2.06676 11.5909 1.59517 11.9318 1.20597C12.2727 0.816762 12.6761 0.518466 13.142 0.31108C13.6079 0.103693 14.1207 0 14.6804 0C15.1406 0 15.5696 0.0696023 15.9673 0.208807C16.3679 0.34517 16.7244 0.539773 17.0369 0.792614C17.3522 1.04261 17.615 1.34233 17.8253 1.69176C18.0355 2.03835 18.1804 2.4233 18.2599 2.84659H17.169Z" fill="black"/>
<path d="M9.08416 0.119385V8.84666H8.02734V0.119385H9.08416Z" fill="black"/>
<path d="M5.14773 2.30114C5.09659 1.86932 4.8892 1.53409 4.52557 1.29545C4.16193 1.05682 3.71591 0.9375 3.1875 0.9375C2.80114 0.9375 2.46307 1 2.1733 1.125C1.88636 1.25 1.66193 1.42188 1.5 1.64063C1.34091 1.85938 1.26136 2.10795 1.26136 2.38636C1.26136 2.61932 1.31676 2.8196 1.42756 2.98722C1.54119 3.15199 1.68608 3.28977 1.86222 3.40057C2.03835 3.50852 2.22301 3.59801 2.41619 3.66903C2.60938 3.73722 2.78693 3.79261 2.94886 3.83523L3.83523 4.07386C4.0625 4.13352 4.31534 4.21591 4.59375 4.32102C4.875 4.42614 5.14347 4.5696 5.39915 4.75142C5.65767 4.9304 5.87074 5.16051 6.03835 5.44176C6.20597 5.72301 6.28977 6.06818 6.28977 6.47727C6.28977 6.94886 6.16619 7.375 5.91903 7.75568C5.67472 8.13636 5.31676 8.43892 4.84517 8.66335C4.37642 8.88778 3.80682 9 3.13636 9C2.51136 9 1.97017 8.89915 1.51278 8.69744C1.05824 8.49574 0.700284 8.21449 0.438921 7.85369C0.180398 7.4929 0.0340909 7.07386 0 6.59659H1.09091C1.11932 6.92614 1.23011 7.19886 1.4233 7.41477C1.61932 7.62784 1.86648 7.78693 2.16477 7.89205C2.46591 7.99432 2.78977 8.04545 3.13636 8.04545C3.53977 8.04545 3.90199 7.98011 4.22301 7.84943C4.54403 7.71591 4.7983 7.53125 4.9858 7.29545C5.1733 7.05682 5.26705 6.77841 5.26705 6.46023C5.26705 6.17045 5.18608 5.93466 5.02415 5.75284C4.86222 5.57102 4.64915 5.4233 4.38494 5.30966C4.12074 5.19602 3.83523 5.09659 3.52841 5.01136L2.45455 4.70455C1.77273 4.50852 1.23295 4.22869 0.835227 3.86506C0.4375 3.50142 0.238636 3.02557 0.238636 2.4375C0.238636 1.94886 0.370739 1.52273 0.634943 1.15909C0.901989 0.792614 1.25994 0.508523 1.70881 0.306818C2.16051 0.102273 2.66477 0 3.22159 0C3.78409 0 4.28409 0.100852 4.72159 0.302557C5.15909 0.50142 5.50568 0.774147 5.76136 1.12074C6.01989 1.46733 6.15625 1.8608 6.17045 2.30114H5.14773Z" fill="black"/>
</svg>
