<svg width="104" height="104" viewBox="0 0 104 104" fill="none" xmlns="http://www.w3.org/2000/svg">
<path d="M50.2759 2.62444C50.2258 1.18937 51.3492 -0.0214205 52.7849 0.000244149C62.8594 0.15222 72.6939 3.2293 81.0779 8.88439C90.1819 15.0251 97.1081 23.8902 100.864 34.2093C104.62 44.5284 105.012 55.7716 101.986 66.3275C98.9587 76.8834 92.6677 86.2101 84.0143 92.9709C75.3609 99.7317 64.7893 103.579 53.8147 103.963C42.84 104.346 32.0258 101.245 22.9219 95.1043C13.8179 88.9636 6.8917 80.0985 3.13587 69.7794C-0.322956 60.2763 -0.929456 49.9895 1.36032 40.1776C1.68665 38.7792 3.13325 37.9821 4.51356 38.3779C5.89388 38.7737 6.68447 40.2124 6.36591 41.6125C4.37415 50.3669 4.93908 59.5299 8.02227 68.0009C11.4025 77.2881 17.6361 85.2667 25.8297 90.7933C34.0232 96.3199 43.756 99.1108 53.6332 98.7659C63.5104 98.4209 73.0248 94.958 80.8129 88.8733C88.6009 82.7886 94.2628 74.3945 96.987 64.8942C99.7111 55.3938 99.3578 45.275 95.9775 35.9878C92.5973 26.7006 86.3637 18.722 78.1701 13.1954C70.6966 8.15446 61.9425 5.38959 52.9663 5.2043C51.5307 5.17466 50.326 4.0595 50.2759 2.62444Z" fill="#861DEF"/>
</svg>
