<svg width="13" height="9" viewBox="0 0 13 9" fill="none" xmlns="http://www.w3.org/2000/svg">
<path d="M7.27831 4.04922C7.27831 2.78017 7.49104 1.78987 7.9165 1.07832C8.3493 0.359441 9.09019 0 10.1392 0C11.1882 0 11.9254 0.359441 12.3508 1.07832C12.7836 1.78987 13 2.78017 13 4.04922C13 5.33294 12.7836 6.3379 12.3508 7.06412C11.9254 7.78301 11.1882 8.14245 10.1392 8.14245C9.09019 8.14245 8.3493 7.78301 7.9165 7.06412C7.49104 6.3379 7.27831 5.33294 7.27831 4.04922ZM11.7677 4.04922C11.7677 3.45504 11.7273 2.95255 11.6466 2.54176C11.5733 2.13097 11.4192 1.79721 11.1845 1.54046C10.9497 1.27638 10.6013 1.14434 10.1392 1.14434C9.67703 1.14434 9.32859 1.27638 9.09386 1.54046C8.85912 1.79721 8.7014 2.13097 8.62071 2.54176C8.54736 2.95255 8.51068 3.45504 8.51068 4.04922C8.51068 4.6654 8.54736 5.18256 8.62071 5.60068C8.69407 6.01881 8.84811 6.35624 9.08285 6.61299C9.32492 6.86973 9.67703 6.9981 10.1392 6.9981C10.6013 6.9981 10.9497 6.86973 11.1845 6.61299C11.4266 6.35624 11.5843 6.01881 11.6576 5.60068C11.731 5.18256 11.7677 4.6654 11.7677 4.04922Z" fill="black"/>
<path d="M0 6.49202V5.54573L3.69711 0.242138H5.21557V5.40269H6.23888V6.49202H5.21557V8.16452H3.9832V6.49202H0ZM4.03821 1.51852L1.44143 5.40269H4.03821V1.51852Z" fill="black"/>
</svg>
