<svg width="16" height="11" viewBox="0 0 16 11" fill="none" xmlns="http://www.w3.org/2000/svg">
<path d="M8.00003 0C4.36365 0 1.25819 2.2482 0 5.42171C1.25819 8.59521 4.36365 10.8434 8.00003 10.8434C11.6364 10.8434 14.7419 8.59521 16.0001 5.42171C14.7419 2.2482 11.6364 0 8.00003 0ZM8.00003 9.39763C5.24366 9.39763 2.78546 7.85786 1.58546 5.42171C2.78546 2.98555 5.24366 1.44579 8.00003 1.44579C10.7564 1.44579 13.2146 2.98555 14.4146 5.42171C13.2146 7.85786 10.7564 9.39763 8.00003 9.39763ZM8.00003 2.16868C6.19639 2.16868 4.72729 3.62893 4.72729 5.42171C4.72729 7.21449 6.19639 8.67473 8.00003 8.67473C9.80367 8.67473 11.2728 7.21449 11.2728 5.42171C11.2728 3.62893 9.80367 2.16868 8.00003 2.16868ZM8.00003 7.22894C6.99639 7.22894 6.18184 6.4193 6.18184 5.42171C6.18184 4.42411 6.99639 3.61447 8.00003 3.61447C9.00367 3.61447 9.81822 4.42411 9.81822 5.42171C9.81822 6.4193 9.00367 7.22894 8.00003 7.22894Z" fill="white"/>
</svg>
