<svg width="61" height="9" viewBox="0 0 61 9" fill="none" xmlns="http://www.w3.org/2000/svg">
<path d="M60.8803 3.66058L59.9737 3.91715C59.9167 3.76606 59.8326 3.61924 59.7214 3.4767C59.6131 3.3313 59.4649 3.21157 59.2767 3.11749C59.0886 3.02341 58.8477 2.97637 58.554 2.97637C58.152 2.97637 57.8171 3.06903 57.5491 3.25433C57.284 3.43679 57.1514 3.66913 57.1514 3.95136C57.1514 4.20224 57.2426 4.40037 57.4251 4.54577C57.6075 4.69116 57.8926 4.81232 58.2803 4.90925L59.2553 5.14872C59.8426 5.29126 60.2802 5.50935 60.5681 5.80299C60.8561 6.09378 61 6.46866 61 6.92765C61 7.30396 60.8917 7.64036 60.675 7.93685C60.4612 8.23334 60.1619 8.46711 59.777 8.63816C59.3922 8.80921 58.9446 8.89473 58.4343 8.89473C57.7643 8.89473 57.2098 8.74934 56.7708 8.45855C56.3318 8.16777 56.0538 7.74299 55.9369 7.18422L56.8948 6.94475C56.9861 7.29826 57.1585 7.56339 57.4123 7.74014C57.6688 7.91689 58.0038 8.00527 58.4172 8.00527C58.8876 8.00527 59.261 7.90549 59.5376 7.70593C59.8169 7.50352 59.9566 7.2612 59.9566 6.97896C59.9566 6.7509 59.8768 6.55989 59.7172 6.40594C59.5575 6.24915 59.3123 6.13226 58.9816 6.05529L57.8869 5.79871C57.2854 5.65617 56.8435 5.43523 56.5613 5.13589C56.2819 4.8337 56.1422 4.45596 56.1422 4.00268C56.1422 3.63207 56.2463 3.30422 56.4544 3.01914C56.6653 2.73405 56.9518 2.51026 57.3139 2.34776C57.6788 2.18526 58.0922 2.10401 58.554 2.10401C59.204 2.10401 59.7143 2.24656 60.0849 2.53164C60.4584 2.81673 60.7235 3.19304 60.8803 3.66058Z" fill="black"/>
<path d="M50.6181 6.36309L50.601 5.11442H50.8063L53.6799 2.18945H54.9286L51.8668 5.28547H51.7812L50.6181 6.36309ZM49.6773 8.7578V0H50.6865V8.7578H49.6773ZM53.851 8.7578L51.2852 5.50784L52.0036 4.80653L55.1338 8.7578H53.851Z" fill="black"/>
<path d="M45.1969 8.75785V2.1895H46.1719V3.18159H46.2403C46.36 2.85659 46.5767 2.59289 46.8903 2.39048C47.2039 2.18807 47.5574 2.08686 47.9508 2.08686C48.0249 2.08686 48.1176 2.08829 48.2287 2.09114C48.3399 2.09399 48.424 2.09827 48.481 2.10397V3.13027C48.4468 3.12172 48.3684 3.10889 48.2458 3.09179C48.1261 3.07183 47.9992 3.06185 47.8653 3.06185C47.546 3.06185 47.2609 3.12885 47.01 3.26284C46.762 3.39398 46.5653 3.57643 46.4199 3.8102C46.2773 4.04112 46.2061 4.30482 46.2061 4.60131V8.75785H45.1969Z" fill="black"/>
<path d="M40.3445 8.91184C39.9283 8.91184 39.5506 8.83344 39.2113 8.67664C38.8721 8.51699 38.6027 8.2875 38.4031 7.98816C38.2036 7.68597 38.1038 7.32106 38.1038 6.89344C38.1038 6.51713 38.1779 6.21209 38.3261 5.97832C38.4744 5.7417 38.6725 5.55639 38.9205 5.4224C39.1686 5.28841 39.4423 5.18863 39.7416 5.12306C40.0438 5.05464 40.3474 5.00048 40.6524 4.96056C41.0516 4.90925 41.3751 4.87076 41.6231 4.8451C41.874 4.8166 42.0565 4.76956 42.1705 4.70399C42.2874 4.63842 42.3458 4.52438 42.3458 4.36189V4.32768C42.3458 3.90575 42.2304 3.5779 41.9995 3.34413C41.7714 3.11036 41.425 2.99348 40.9603 2.99348C40.4785 2.99348 40.1008 3.09896 39.8271 3.30992C39.5534 3.52089 39.361 3.7461 39.2498 3.98557L38.2919 3.64347C38.463 3.24435 38.6911 2.93361 38.9761 2.71125C39.2641 2.48603 39.5777 2.32923 39.9169 2.24086C40.259 2.14963 40.5954 2.10401 40.9261 2.10401C41.1371 2.10401 41.3794 2.12967 41.6531 2.18099C41.9296 2.22945 42.1962 2.33066 42.4527 2.4846C42.7122 2.63855 42.9274 2.87089 43.0985 3.18163C43.2695 3.49238 43.355 3.9086 43.355 4.43031V8.75789H42.3458V7.86843H42.2945C42.2261 8.01097 42.1121 8.16349 41.9524 8.32599C41.7928 8.48849 41.5804 8.62675 41.3153 8.74079C41.0501 8.85482 40.7266 8.91184 40.3445 8.91184ZM40.4985 8.00527C40.8976 8.00527 41.234 7.92687 41.5077 7.77007C41.7842 7.61328 41.9923 7.41087 42.132 7.16284C42.2746 6.91482 42.3458 6.65397 42.3458 6.38029V5.45661C42.3031 5.50793 42.209 5.55496 42.0636 5.59773C41.9211 5.63764 41.7557 5.67327 41.5676 5.70463C41.3823 5.73314 41.2012 5.7588 41.0245 5.78161C40.8506 5.80156 40.7095 5.81867 40.6011 5.83292C40.3388 5.86713 40.0937 5.92272 39.8656 5.9997C39.6404 6.07382 39.4579 6.18643 39.3182 6.33752C39.1814 6.48577 39.113 6.68818 39.113 6.94475C39.113 7.29541 39.2427 7.56054 39.5021 7.74014C39.7644 7.91689 40.0965 8.00527 40.4985 8.00527Z" fill="black"/>
<path d="M27.9453 8.75789V2.18954H28.9203V3.21584H29.0058C29.1427 2.86519 29.3636 2.59293 29.6687 2.39908C29.9737 2.20237 30.34 2.10401 30.7677 2.10401C31.201 2.10401 31.5616 2.20237 31.8496 2.39908C32.1403 2.59293 32.367 2.86519 32.5295 3.21584H32.5979C32.7661 2.87659 33.0184 2.60719 33.3548 2.40763C33.6912 2.20522 34.0946 2.10401 34.565 2.10401C35.1523 2.10401 35.6326 2.28789 36.0061 2.65565C36.3796 3.02056 36.5663 3.58931 36.5663 4.36189V8.75789H35.5571V4.36189C35.5571 3.87724 35.4245 3.53086 35.1594 3.32275C34.8943 3.11464 34.5821 3.01058 34.2229 3.01058C33.761 3.01058 33.4033 3.15028 33.1495 3.42966C32.8958 3.70619 32.769 4.05684 32.769 4.48162V8.75789H31.7426V4.25925C31.7426 3.88579 31.6215 3.58503 31.3792 3.35696C31.1368 3.12604 30.8247 3.01058 30.4427 3.01058C30.1804 3.01058 29.9352 3.08043 29.7071 3.22012C29.4819 3.35981 29.2995 3.55367 29.1598 3.80169C29.0229 4.04687 28.9545 4.33053 28.9545 4.65267V8.75789H27.9453Z" fill="black"/>
<path d="M22.9465 8.89464C22.3992 8.89464 21.916 8.75638 21.4969 8.47984C21.0778 8.20046 20.75 7.80705 20.5133 7.29959C20.2767 6.78929 20.1584 6.18634 20.1584 5.49073C20.1584 4.80083 20.2767 4.20215 20.5133 3.6947C20.75 3.18725 21.0792 2.79526 21.5012 2.51872C21.9231 2.24219 22.4106 2.10393 22.9636 2.10393C23.3913 2.10393 23.7291 2.1752 23.9771 2.31774C24.228 2.45743 24.419 2.61708 24.5501 2.79668C24.6841 2.97343 24.7882 3.11883 24.8623 3.23286H24.9478V0H25.957V8.7578H24.982V7.7486H24.8623C24.7882 7.86834 24.6827 8.01943 24.5459 8.20189C24.409 8.38149 24.2137 8.54256 23.96 8.68511C23.7063 8.8248 23.3685 8.89464 22.9465 8.89464ZM23.0834 7.98807C23.4882 7.98807 23.8303 7.88259 24.1097 7.67163C24.3891 7.45782 24.6015 7.16275 24.7468 6.78644C24.8922 6.40728 24.9649 5.96967 24.9649 5.47363C24.9649 4.98328 24.8937 4.55423 24.7511 4.18647C24.6086 3.81586 24.3976 3.52792 24.1182 3.32266C23.8389 3.11455 23.4939 3.01049 23.0834 3.01049C22.6558 3.01049 22.2994 3.12025 22.0143 3.33977C21.7321 3.55643 21.5197 3.85149 21.3771 4.22496C21.2375 4.59557 21.1676 5.01179 21.1676 5.47363C21.1676 5.94117 21.2389 6.36594 21.3814 6.74796C21.5268 7.12712 21.7406 7.42931 22.0229 7.65452C22.3079 7.87689 22.6615 7.98807 23.0834 7.98807Z" fill="black"/>
<path d="M14.4312 4.80662V8.75789H13.422V2.18954H14.397V3.21584H14.4825C14.6365 2.8823 14.8703 2.61432 15.1839 2.41191C15.4974 2.20665 15.9023 2.10401 16.3983 2.10401C16.843 2.10401 17.2322 2.19524 17.5657 2.3777C17.8993 2.5573 18.1587 2.83098 18.344 3.19874C18.5293 3.56365 18.622 4.02549 18.622 4.58425V8.75789H17.6128V4.65267C17.6128 4.13667 17.4788 3.7347 17.2108 3.44676C16.9428 3.15598 16.5751 3.01058 16.1075 3.01058C15.7854 3.01058 15.4975 3.08043 15.2437 3.22012C14.9929 3.35981 14.7947 3.56365 14.6493 3.83163C14.5039 4.09961 14.4312 4.4246 14.4312 4.80662Z" fill="black"/>
<path d="M8.56971 8.91184C8.15349 8.91184 7.77575 8.83344 7.4365 8.67664C7.09725 8.51699 6.82785 8.2875 6.62829 7.98816C6.42873 7.68597 6.32895 7.32106 6.32895 6.89344C6.32895 6.51713 6.40307 6.21209 6.55131 5.97832C6.69956 5.7417 6.89769 5.55639 7.14572 5.4224C7.39374 5.28841 7.66742 5.18863 7.96676 5.12306C8.26895 5.05464 8.57256 5.00048 8.8776 4.96056C9.27672 4.90925 9.60029 4.87076 9.84832 4.8451C10.0992 4.8166 10.2816 4.76956 10.3957 4.70399C10.5126 4.63842 10.571 4.52438 10.571 4.36189V4.32768C10.571 3.90575 10.4555 3.5779 10.2246 3.34413C9.99656 3.11036 9.65018 2.99348 9.1855 2.99348C8.7037 2.99348 8.32597 3.09896 8.05228 3.30992C7.7786 3.52089 7.58617 3.7461 7.47499 3.98557L6.5171 3.64347C6.68815 3.24435 6.91622 2.93361 7.20131 2.71125C7.48924 2.48603 7.80284 2.32923 8.14209 2.24086C8.48419 2.14963 8.82059 2.10401 9.15129 2.10401C9.36225 2.10401 9.60457 2.12967 9.87825 2.18099C10.1548 2.22945 10.4213 2.33066 10.6779 2.4846C10.9373 2.63855 11.1526 2.87089 11.3236 3.18163C11.4947 3.49238 11.5802 3.9086 11.5802 4.43031V8.75789H10.571V7.86843H10.5197C10.4513 8.01097 10.3372 8.16349 10.1776 8.32599C10.0179 8.48849 9.80556 8.62675 9.54043 8.74079C9.2753 8.85482 8.95173 8.91184 8.56971 8.91184ZM8.72366 8.00527C9.12278 8.00527 9.45918 7.92687 9.73286 7.77007C10.0094 7.61328 10.2175 7.41087 10.3572 7.16284C10.4997 6.91482 10.571 6.65397 10.571 6.38029V5.45661C10.5282 5.50793 10.4342 5.55496 10.2888 5.59773C10.1462 5.63764 9.98088 5.67327 9.79273 5.70463C9.60742 5.73314 9.42639 5.7588 9.24964 5.78161C9.07574 5.80156 8.93462 5.81867 8.82629 5.83292C8.56401 5.86713 8.31884 5.92272 8.09077 5.9997C7.86555 6.07382 7.6831 6.18643 7.54341 6.33752C7.40657 6.48577 7.33815 6.68818 7.33815 6.94475C7.33815 7.29541 7.46786 7.56054 7.72729 7.74014C7.98957 7.91689 8.32169 8.00527 8.72366 8.00527Z" fill="black"/>
<path d="M0 8.7578V0H1.06052V7.81702H5.13153V8.7578H0Z" fill="black"/>
</svg>
