<svg width="33" height="9" viewBox="0 0 33 9" fill="none" xmlns="http://www.w3.org/2000/svg">
<path d="M32.0519 3.76696L31.1485 4.02264C31.0916 3.87207 31.0078 3.72576 30.897 3.58372C30.7891 3.43883 30.6414 3.31951 30.4539 3.22576C30.2664 3.13201 30.0263 3.08514 29.7337 3.08514C29.3331 3.08514 28.9993 3.17747 28.7323 3.36213C28.4681 3.54395 28.336 3.77548 28.336 4.05673C28.336 4.30673 28.4269 4.50417 28.6087 4.64906C28.7905 4.79395 29.0746 4.91468 29.461 5.01128L30.4326 5.24991C31.0178 5.39196 31.4539 5.60929 31.7408 5.9019C32.0277 6.19167 32.1712 6.56525 32.1712 7.02264C32.1712 7.39764 32.0632 7.73287 31.8473 8.02832C31.6343 8.32377 31.336 8.55673 30.9524 8.72718C30.5689 8.89764 30.1229 8.98287 29.6144 8.98287C28.9468 8.98287 28.3942 8.83798 27.9567 8.54821C27.5192 8.25843 27.2422 7.83514 27.1257 7.27832L28.0803 7.03968C28.1712 7.39196 28.3431 7.65616 28.5959 7.8323C28.8516 8.00843 29.1854 8.0965 29.5973 8.0965C30.0661 8.0965 30.4382 7.99707 30.7138 7.79821C30.9922 7.5965 31.1314 7.35503 31.1314 7.07378C31.1314 6.8465 31.0519 6.65616 30.8928 6.50275C30.7337 6.3465 30.4894 6.23002 30.1598 6.15332L29.0689 5.89764C28.4695 5.75559 28.0291 5.53542 27.7479 5.23713C27.4695 4.93599 27.3303 4.55957 27.3303 4.10787C27.3303 3.73855 27.434 3.41184 27.6414 3.12775C27.8516 2.84366 28.1371 2.62065 28.4979 2.45872C28.8615 2.29679 29.2735 2.21582 29.7337 2.21582C30.3814 2.21582 30.8899 2.35787 31.2593 2.64196C31.6314 2.92605 31.8956 3.30105 32.0519 3.76696Z" fill="black"/>
<path d="M22.4339 8.98302C21.8885 8.98302 21.4069 8.84524 20.9893 8.56967C20.5717 8.29126 20.245 7.89921 20.0092 7.39353C19.7734 6.88501 19.6555 6.28416 19.6555 5.59098C19.6555 4.90348 19.7734 4.30688 20.0092 3.8012C20.245 3.29552 20.5731 2.9049 20.9936 2.62933C21.414 2.35376 21.8998 2.21598 22.451 2.21598C22.8771 2.21598 23.2138 2.287 23.4609 2.42904C23.7109 2.56825 23.9013 2.72734 24.0319 2.90632C24.1655 3.08245 24.2692 3.22734 24.343 3.34098H24.4282V0.119385H25.4339V8.84666H24.4623V7.84098H24.343C24.2692 7.96029 24.164 8.11086 24.0277 8.29268C23.8913 8.47166 23.6967 8.63217 23.4439 8.77421C23.191 8.91342 22.8544 8.98302 22.4339 8.98302ZM22.5703 8.07961C22.9737 8.07961 23.3146 7.9745 23.593 7.76427C23.8714 7.5512 24.0831 7.25717 24.228 6.88217C24.3728 6.50433 24.4453 6.06825 24.4453 5.57393C24.4453 5.08529 24.3743 4.65774 24.2322 4.29126C24.0902 3.92194 23.88 3.63501 23.6015 3.43046C23.3231 3.22308 22.9794 3.11938 22.5703 3.11938C22.1442 3.11938 21.789 3.22876 21.5049 3.44751C21.2237 3.66342 21.0121 3.95745 20.87 4.32961C20.7308 4.69893 20.6612 5.1137 20.6612 5.57393C20.6612 6.03984 20.7322 6.46313 20.8743 6.84382C21.0192 7.22166 21.2322 7.52279 21.5135 7.74723C21.7976 7.96882 22.1498 8.07961 22.5703 8.07961Z" fill="black"/>
<path d="M15.6968 8.84646V2.301H16.6684V3.28964H16.7366C16.8559 2.96578 17.0718 2.70299 17.3843 2.50129C17.6968 2.29958 18.049 2.19873 18.4411 2.19873C18.515 2.19873 18.6073 2.20015 18.7181 2.20299C18.8289 2.20583 18.9127 2.21009 18.9695 2.21578V3.2385C18.9354 3.22998 18.8573 3.2172 18.7351 3.20015C18.6158 3.18027 18.4894 3.17032 18.3559 3.17032C18.0377 3.17032 17.7536 3.23708 17.5036 3.37061C17.2564 3.50129 17.0604 3.68311 16.9155 3.91606C16.7735 4.14617 16.7025 4.40896 16.7025 4.70441V8.84646H15.6968Z" fill="black"/>
<path d="M10.8611 8.99991C10.4464 8.99991 10.0699 8.92179 9.73187 8.76554C9.3938 8.60645 9.12533 8.37775 8.92647 8.07946C8.72761 7.77832 8.62817 7.41468 8.62817 6.98855C8.62817 6.61355 8.70204 6.30957 8.84976 6.07662C8.99749 5.84082 9.19494 5.65616 9.44209 5.52264C9.68925 5.38912 9.96198 5.28968 10.2603 5.22434C10.5614 5.15616 10.864 5.10218 11.1679 5.06241C11.5657 5.01127 11.8881 4.97292 12.1353 4.94735C12.3853 4.91895 12.5671 4.87207 12.6807 4.80673C12.7972 4.74139 12.8554 4.62775 12.8554 4.46582V4.43173C12.8554 4.01127 12.7404 3.68457 12.5103 3.45162C12.283 3.21866 11.9378 3.10218 11.4748 3.10218C10.9947 3.10218 10.6182 3.2073 10.3455 3.41752C10.0728 3.62775 9.88102 3.85218 9.77022 4.09082L8.81567 3.74991C8.98613 3.35218 9.2134 3.04253 9.49749 2.82093C9.78442 2.5965 10.0969 2.44025 10.435 2.35218C10.7759 2.26128 11.1111 2.21582 11.4407 2.21582C11.6509 2.21582 11.8924 2.24139 12.1651 2.29252C12.4407 2.34082 12.7063 2.44167 12.962 2.59508C13.2205 2.74849 13.435 2.98003 13.6054 3.28968C13.7759 3.59934 13.8611 4.01412 13.8611 4.534V8.8465H12.8554V7.96014H12.8043C12.7361 8.10218 12.6225 8.25417 12.4634 8.4161C12.3043 8.57804 12.0927 8.71582 11.8285 8.82946C11.5643 8.94309 11.2418 8.99991 10.8611 8.99991ZM11.0145 8.0965C11.4123 8.0965 11.7475 8.01838 12.0202 7.86213C12.2958 7.70588 12.5032 7.50417 12.6424 7.25701C12.7844 7.00985 12.8554 6.74991 12.8554 6.47718V5.55673C12.8128 5.60787 12.7191 5.65474 12.5742 5.69735C12.4322 5.73713 12.2674 5.77264 12.0799 5.80389C11.8952 5.8323 11.7148 5.85787 11.5387 5.88059C11.3654 5.90048 11.2248 5.91752 11.1168 5.93173C10.8554 5.96582 10.6111 6.02122 10.3839 6.09792C10.1594 6.17179 9.97761 6.284 9.8384 6.43457C9.70204 6.5823 9.63386 6.784 9.63386 7.03968C9.63386 7.38912 9.76312 7.65332 10.0216 7.8323C10.283 8.00843 10.614 8.0965 11.0145 8.0965Z" fill="black"/>
<path d="M7.36364 2.84659H6.30682C6.24432 2.54261 6.13494 2.27557 5.97869 2.04545C5.82528 1.81534 5.63778 1.62216 5.41619 1.46591C5.19744 1.30682 4.95455 1.1875 4.6875 1.10795C4.42045 1.02841 4.14205 0.988636 3.85227 0.988636C3.32386 0.988636 2.84517 1.12216 2.41619 1.3892C1.99006 1.65625 1.65057 2.04972 1.39773 2.5696C1.14773 3.08949 1.02273 3.72727 1.02273 4.48295C1.02273 5.23864 1.14773 5.87642 1.39773 6.39631C1.65057 6.91619 1.99006 7.30966 2.41619 7.5767C2.84517 7.84375 3.32386 7.97727 3.85227 7.97727C4.14205 7.97727 4.42045 7.9375 4.6875 7.85795C4.95455 7.77841 5.19744 7.66051 5.41619 7.50426C5.63778 7.34517 5.82528 7.15057 5.97869 6.92045C6.13494 6.6875 6.24432 6.42045 6.30682 6.11932H7.36364C7.28409 6.56534 7.1392 6.96449 6.92898 7.31676C6.71875 7.66903 6.45739 7.96875 6.14489 8.21591C5.83239 8.46023 5.48153 8.64631 5.09233 8.77415C4.70597 8.90199 4.29261 8.96591 3.85227 8.96591C3.10795 8.96591 2.44602 8.78409 1.86648 8.42045C1.28693 8.05682 0.830966 7.53977 0.49858 6.86932C0.166193 6.19886 0 5.40341 0 4.48295C0 3.5625 0.166193 2.76705 0.49858 2.09659C0.830966 1.42614 1.28693 0.909091 1.86648 0.545455C2.44602 0.181818 3.10795 0 3.85227 0C4.29261 0 4.70597 0.0639205 5.09233 0.191761C5.48153 0.319602 5.83239 0.507102 6.14489 0.754261C6.45739 0.99858 6.71875 1.29688 6.92898 1.64915C7.1392 1.99858 7.28409 2.39773 7.36364 2.84659Z" fill="black"/>
</svg>
