<svg width="61" height="79" viewBox="0 0 61 79" fill="none" xmlns="http://www.w3.org/2000/svg">
<path d="M19.8055 2.57382C19.756 1.15639 20.8659 -0.0415195 22.2835 0.00115093C27.6405 0.162408 32.9182 1.41235 37.7917 3.68489C43.4423 6.31985 48.3892 10.2547 52.2277 15.1679C56.0663 20.081 58.6875 25.8328 59.8772 31.9531C61.0668 38.0734 60.7911 44.3883 59.0726 50.3816C57.354 56.3749 54.2414 61.8764 49.9893 66.4363C45.7372 70.9961 40.4662 74.4849 34.6074 76.6173C28.7485 78.7498 22.4682 79.4653 16.2799 78.7055C10.9427 78.0502 5.80456 76.3134 1.17614 73.6114C-0.0487122 72.8964 -0.355148 71.2923 0.437951 70.1165C1.23105 68.9407 2.82292 68.6396 4.05465 69.3428C8.00578 71.5982 12.3733 73.0512 16.9058 73.6077C22.2897 74.2687 27.7535 73.6462 32.8507 71.791C37.9479 69.9358 42.5336 66.9005 46.233 62.9335C49.9324 58.9664 52.6403 54.1801 54.1355 48.9659C55.6306 43.7517 55.8705 38.2577 54.8355 32.9331C53.8005 27.6085 51.52 22.6044 48.1804 18.3299C44.8409 14.0555 40.5372 10.6322 35.6211 8.33977C31.4823 6.40985 27.0086 5.32763 22.4626 5.14658C21.0454 5.09014 19.855 3.99124 19.8055 2.57382Z" fill="#1DAEEF"/>
</svg>
