<svg width="68" height="13" viewBox="0 0 68 13" fill="none" xmlns="http://www.w3.org/2000/svg">
<path d="M68 2.75836V3.78859H65.9507V10.4574H64.6878V3.78859H62.6273V2.75836H68Z" fill="black"/>
<path d="M61.3678 10.4574H60.1049L56.3053 4.70806V10.4574H55.0424V2.7473H56.3053L60.1049 8.48556V2.7473H61.3678V10.4574Z" fill="black"/>
<path d="M50.4959 3.77753V6.03738H53.1546V7.06761H50.4959V9.42716H53.4869V10.4574H49.2331V2.7473H53.4869V3.77753H50.4959Z" fill="black"/>
<path d="M48.0286 5.05145C48.0286 5.44286 47.9363 5.81212 47.7517 6.15922C47.5671 6.50633 47.2717 6.79065 46.8655 7.01221C46.4593 7.22638 45.9386 7.33346 45.3035 7.33346H43.9077V10.4574H42.6449V2.75836H45.3035C45.8943 2.75836 46.3928 2.86176 46.799 3.06854C47.2126 3.26794 47.5191 3.54119 47.7185 3.88829C47.9253 4.23539 48.0286 4.62311 48.0286 5.05145ZM45.3035 6.30323C45.7836 6.30323 46.1417 6.19615 46.3781 5.98198C46.6144 5.76043 46.7326 5.45025 46.7326 5.05145C46.7326 4.20955 46.2562 3.78859 45.3035 3.78859H43.9077V6.30323H45.3035Z" fill="black"/>
<path d="M38.4961 10.5348C37.9791 10.5348 37.5139 10.4462 37.1003 10.2689C36.6867 10.0843 36.3618 9.82583 36.1255 9.49349C35.8891 9.16116 35.771 8.77344 35.771 8.33033H37.1224C37.152 8.66266 37.2812 8.93592 37.5102 9.15008C37.7465 9.36425 38.0751 9.47134 38.4961 9.47134C38.9318 9.47134 39.2715 9.36795 39.5152 9.16116C39.7589 8.94699 39.8808 8.67374 39.8808 8.34141C39.8808 8.08293 39.8033 7.87246 39.6482 7.70998C39.5005 7.54751 39.3121 7.42196 39.0832 7.33334C38.8617 7.24472 38.5515 7.14871 38.1527 7.04532C37.6505 6.91239 37.2406 6.77945 36.9231 6.64652C36.6129 6.5062 36.347 6.29203 36.1255 6.00401C35.9039 5.71599 35.7931 5.33197 35.7931 4.85193C35.7931 4.40882 35.9039 4.0211 36.1255 3.68877C36.347 3.35644 36.6572 3.10165 37.056 2.92441C37.4548 2.74717 37.9164 2.65854 38.4407 2.65854C39.1866 2.65854 39.7959 2.84686 40.2685 3.22351C40.7486 3.59276 41.0144 4.10234 41.0661 4.75223H39.6703C39.6482 4.4716 39.5152 4.23158 39.2715 4.03218C39.0278 3.83278 38.7066 3.73308 38.3078 3.73308C37.9459 3.73308 37.6505 3.8254 37.4215 4.01002C37.1926 4.19465 37.0781 4.46052 37.0781 4.80762C37.0781 5.04394 37.1483 5.23965 37.2886 5.39474C37.4363 5.54244 37.6209 5.6606 37.8425 5.74923C38.0641 5.83785 38.3668 5.93385 38.7509 6.03725C39.2604 6.17756 39.674 6.31788 39.9916 6.4582C40.3165 6.59852 40.5898 6.81638 40.8113 7.11178C41.0403 7.39981 41.1547 7.78753 41.1547 8.27495C41.1547 8.66636 41.0477 9.03562 40.8335 9.38272C40.6267 9.72982 40.3202 10.0105 39.914 10.2246C39.5152 10.4314 39.0426 10.5348 38.4961 10.5348Z" fill="black"/>
<path d="M34.3677 0L31.3546 12.396H30.1139L33.1159 0H34.3677Z" fill="black"/>
<path d="M26.1202 10.5348C25.6032 10.5348 25.138 10.4462 24.7244 10.2689C24.3108 10.0843 23.9859 9.82583 23.7496 9.49349C23.5132 9.16116 23.3951 8.77344 23.3951 8.33033H24.7466C24.7761 8.66266 24.9053 8.93592 25.1343 9.15008C25.3706 9.36425 25.6992 9.47134 26.1202 9.47134C26.5559 9.47134 26.8956 9.36795 27.1394 9.16116C27.3831 8.94699 27.5049 8.67374 27.5049 8.34141C27.5049 8.08293 27.4274 7.87246 27.2723 7.70998C27.1246 7.54751 26.9363 7.42196 26.7073 7.33334C26.4858 7.24472 26.1756 7.14871 25.7768 7.04532C25.2746 6.91239 24.8647 6.77945 24.5472 6.64652C24.237 6.5062 23.9711 6.29203 23.7496 6.00401C23.528 5.71599 23.4172 5.33197 23.4172 4.85193C23.4172 4.40882 23.528 4.0211 23.7496 3.68877C23.9711 3.35644 24.2813 3.10165 24.6801 2.92441C25.0789 2.74717 25.5405 2.65854 26.0648 2.65854C26.8107 2.65854 27.42 2.84686 27.8926 3.22351C28.3727 3.59276 28.6385 4.10234 28.6902 4.75223H27.2944C27.2723 4.4716 27.1394 4.23158 26.8956 4.03218C26.6519 3.83278 26.3307 3.73308 25.9319 3.73308C25.57 3.73308 25.2746 3.8254 25.0457 4.01002C24.8167 4.19465 24.7023 4.46052 24.7023 4.80762C24.7023 5.04394 24.7724 5.23965 24.9127 5.39474C25.0604 5.54244 25.2451 5.6606 25.4666 5.74923C25.6882 5.83785 25.991 5.93385 26.375 6.03725C26.8846 6.17756 27.2981 6.31788 27.6157 6.4582C27.9406 6.59852 28.2139 6.81638 28.4354 7.11178C28.6644 7.39981 28.7789 7.78753 28.7789 8.27495C28.7789 8.66636 28.6718 9.03562 28.4576 9.38272C28.2508 9.72982 27.9443 10.0105 27.5381 10.2246C27.1394 10.4314 26.6667 10.5348 26.1202 10.5348Z" fill="black"/>
<path d="M19.037 3.77753V6.03738H21.6956V7.06761H19.037V9.42716H22.0279V10.4574H17.7741V2.7473H22.0279V3.77753H19.037Z" fill="black"/>
<path d="M12.4348 2.75836C13.2546 2.75836 13.9709 2.91715 14.5839 3.23471C15.2043 3.54488 15.6806 3.99538 16.0129 4.58619C16.3526 5.16961 16.5225 5.85274 16.5225 6.63557C16.5225 7.41839 16.3526 8.09782 16.0129 8.67387C15.6806 9.24991 15.2043 9.69301 14.5839 10.0032C13.9709 10.306 13.2546 10.4574 12.4348 10.4574H9.92018V2.75836H12.4348ZM12.4348 9.42715C13.3358 9.42715 14.0263 9.18344 14.5064 8.69602C14.9864 8.2086 15.2264 7.52178 15.2264 6.63557C15.2264 5.74196 14.9864 5.04407 14.5064 4.54188C14.0263 4.03969 13.3358 3.78859 12.4348 3.78859H11.183V9.42715H12.4348Z" fill="black"/>
<path d="M8.26216 2.75836V10.4574H6.9993V2.75836H8.26216Z" fill="black"/>
<path d="M3.99906 10.4574L2.22662 7.37777H1.26286V10.4574H0V2.75836H2.65865C3.24946 2.75836 3.74796 2.86176 4.15414 3.06854C4.56771 3.27532 4.87419 3.55227 5.07359 3.89937C5.28038 4.24647 5.38377 4.63419 5.38377 5.06253C5.38377 5.56472 5.23607 6.0226 4.94066 6.43617C4.65264 6.84235 4.20584 7.11929 3.60026 7.267L5.50562 10.4574H3.99906ZM1.26286 6.3697H2.65865C3.1313 6.3697 3.48579 6.25154 3.72211 6.01521C3.96582 5.77889 4.08768 5.46133 4.08768 5.06253C4.08768 4.66373 3.96952 4.35356 3.73319 4.132C3.49687 3.90306 3.13869 3.78859 2.65865 3.78859H1.26286V6.3697Z" fill="black"/>
</svg>
