<svg width="103" height="11" viewBox="0 0 103 11" fill="none" xmlns="http://www.w3.org/2000/svg">
<path d="M100.44 4.68682L103 7.45859H101.448L99.3917 5.06982V7.45859H98.2427V0H99.3917V4.33404L101.408 1.90496H103L100.44 4.68682Z" fill="#979797"/>
<path d="M97.1118 4.54576C97.1118 4.75406 97.0983 4.9422 97.0715 5.11019H92.8281C92.8617 5.55367 93.0263 5.9098 93.322 6.17858C93.6177 6.44736 93.9805 6.58175 94.4106 6.58175C95.0287 6.58175 95.4655 6.32305 95.7208 5.80565H96.9606C96.7926 6.31633 96.4869 6.7363 96.0434 7.06555C95.6066 7.38808 95.0623 7.54935 94.4106 7.54935C93.8797 7.54935 93.4026 7.43176 92.9793 7.19658C92.5627 6.95468 92.2335 6.61871 91.9916 6.18866C91.7564 5.7519 91.6388 5.24794 91.6388 4.67679C91.6388 4.10563 91.753 3.60503 91.9815 3.17499C92.2167 2.73822 92.5425 2.40225 92.9592 2.16707C93.3825 1.93189 93.8663 1.8143 94.4106 1.8143C94.9347 1.8143 95.4017 1.92853 95.8116 2.15699C96.2214 2.38545 96.5406 2.70799 96.7691 3.12459C96.9975 3.53448 97.1118 4.0082 97.1118 4.54576ZM95.9124 4.18291C95.9056 3.75958 95.7544 3.42025 95.4588 3.16491C95.1631 2.90957 94.7969 2.7819 94.3602 2.7819C93.9637 2.7819 93.6244 2.90957 93.3422 3.16491C93.0599 3.41353 92.892 3.75286 92.8382 4.18291H95.9124Z" fill="#979797"/>
<path d="M90.8913 4.54576C90.8913 4.75406 90.8778 4.9422 90.851 5.11019H86.6076C86.6412 5.55367 86.8059 5.9098 87.1015 6.17858C87.3972 6.44736 87.76 6.58175 88.1901 6.58175C88.8083 6.58175 89.245 6.32305 89.5003 5.80565H90.7401C90.5721 6.31633 90.2664 6.7363 89.8229 7.06555C89.3861 7.38808 88.8418 7.54935 88.1901 7.54935C87.6592 7.54935 87.1821 7.43176 86.7588 7.19658C86.3422 6.95468 86.013 6.61871 85.7711 6.18866C85.5359 5.7519 85.4183 5.24794 85.4183 4.67679C85.4183 4.10563 85.5325 3.60503 85.761 3.17499C85.9962 2.73822 86.3221 2.40225 86.7387 2.16707C87.162 1.93189 87.6458 1.8143 88.1901 1.8143C88.7142 1.8143 89.1812 1.92853 89.5911 2.15699C90.001 2.38545 90.3201 2.70799 90.5486 3.12459C90.777 3.53448 90.8913 4.0082 90.8913 4.54576ZM89.6919 4.18291C89.6851 3.75958 89.534 3.42025 89.2383 3.16491C88.9426 2.90957 88.5764 2.7819 88.1397 2.7819C87.7432 2.7819 87.4039 2.90957 87.1217 3.16491C86.8394 3.41353 86.6715 3.75286 86.6177 4.18291H89.6919Z" fill="#979797"/>
<path d="M84.9426 1.90498L83.219 7.4586H82.0095L80.8908 3.35638L79.772 7.4586H78.5625L76.8288 1.90498H77.998L79.1571 6.37005L80.3364 1.90498H81.5358L82.6647 6.34989L83.8137 1.90498H84.9426Z" fill="#979797"/>
<path d="M73.9986 1.90498L70.5919 10.0691H69.4025L70.5314 7.36789L68.3442 1.90498H69.6243L71.1866 6.13823L72.8093 1.90498H73.9986Z" fill="#979797"/>
<path d="M66.28 2.71135C66.448 2.42913 66.6698 2.21075 66.9453 2.0562C67.2275 1.89493 67.5601 1.8143 67.9431 1.8143V3.00364H67.6508C67.2006 3.00364 66.8579 3.11787 66.6227 3.34633C66.3943 3.5748 66.28 3.97124 66.28 4.53568V7.45864H65.131V1.90501H66.28V2.71135Z" fill="#979797"/>
<path d="M64.0001 4.54576C64.0001 4.75406 63.9867 4.9422 63.9598 5.11019H59.7165C59.7501 5.55367 59.9147 5.9098 60.2103 6.17858C60.506 6.44736 60.8689 6.58175 61.2989 6.58175C61.9171 6.58175 62.3539 6.32305 62.6092 5.80565H63.8489C63.6809 6.31633 63.3752 6.7363 62.9317 7.06555C62.495 7.38808 61.9507 7.54935 61.2989 7.54935C60.7681 7.54935 60.291 7.43176 59.8677 7.19658C59.451 6.95468 59.1218 6.61871 58.8799 6.18866C58.6447 5.7519 58.5271 5.24794 58.5271 4.67679C58.5271 4.10563 58.6414 3.60503 58.8698 3.17499C59.105 2.73822 59.4309 2.40225 59.8475 2.16707C60.2708 1.93189 60.7546 1.8143 61.2989 1.8143C61.823 1.8143 62.29 1.92853 62.6999 2.15699C63.1098 2.38545 63.429 2.70799 63.6574 3.12459C63.8859 3.53448 64.0001 4.0082 64.0001 4.54576ZM62.8007 4.18291C62.794 3.75958 62.6428 3.42025 62.3471 3.16491C62.0515 2.90957 61.6853 2.7819 61.2485 2.7819C60.8521 2.7819 60.5127 2.90957 60.2305 3.16491C59.9483 3.41353 59.7803 3.75286 59.7265 4.18291H62.8007Z" fill="#979797"/>
<path d="M55.2499 6.43053L56.8222 1.90498H58.0418L55.9252 7.4586H54.5544L52.4479 1.90498H53.6775L55.2499 6.43053Z" fill="#979797"/>
<path d="M51.972 4.54576C51.972 4.75406 51.9586 4.9422 51.9317 5.11019H47.6884C47.722 5.55367 47.8866 5.9098 48.1823 6.17858C48.4779 6.44736 48.8408 6.58175 49.2708 6.58175C49.889 6.58175 50.3258 6.32305 50.5811 5.80565H51.8209C51.6529 6.31633 51.3471 6.7363 50.9036 7.06555C50.4669 7.38808 49.9226 7.54935 49.2708 7.54935C48.74 7.54935 48.2629 7.43176 47.8396 7.19658C47.423 6.95468 47.0937 6.61871 46.8518 6.18866C46.6166 5.7519 46.499 5.24794 46.499 4.67679C46.499 4.10563 46.6133 3.60503 46.8417 3.17499C47.0769 2.73822 47.4028 2.40225 47.8194 2.16707C48.2427 1.93189 48.7265 1.8143 49.2708 1.8143C49.7949 1.8143 50.2619 1.92853 50.6718 2.15699C51.0817 2.38545 51.4009 2.70799 51.6293 3.12459C51.8578 3.53448 51.972 4.0082 51.972 4.54576ZM50.7726 4.18291C50.7659 3.75958 50.6147 3.42025 50.3191 3.16491C50.0234 2.90957 49.6572 2.7819 49.2204 2.7819C48.824 2.7819 48.4846 2.90957 48.2024 3.16491C47.9202 3.41353 47.7522 3.75286 47.6985 4.18291H50.7726Z" fill="#979797"/>
<path d="M37.0498 4.65658C37.0498 4.09886 37.1641 3.60498 37.3925 3.17494C37.6277 2.74489 37.9435 2.41228 38.34 2.1771C38.7431 1.9352 39.19 1.81425 39.6805 1.81425C40.0433 1.81425 40.3995 1.89488 40.7489 2.05615C41.105 2.2107 41.3872 2.419 41.5955 2.68106V0H42.7546V7.45859H41.5955V6.62202C41.4074 6.8908 41.1453 7.11254 40.8094 7.28724C40.4801 7.46195 40.1005 7.5493 39.6704 7.5493C39.1866 7.5493 38.7431 7.42835 38.34 7.18645C37.9435 6.93783 37.6277 6.59514 37.3925 6.15838C37.1641 5.71489 37.0498 5.21429 37.0498 4.65658ZM41.5955 4.67674C41.5955 4.29373 41.5149 3.96112 41.3536 3.6789C41.1991 3.39668 40.9941 3.18166 40.7388 3.03383C40.4835 2.886 40.208 2.81209 39.9123 2.81209C39.6167 2.81209 39.3412 2.886 39.0858 3.03383C38.8305 3.17494 38.6222 3.3866 38.4609 3.66882C38.3064 3.94432 38.2291 4.27357 38.2291 4.65658C38.2291 5.03959 38.3064 5.37556 38.4609 5.6645C38.6222 5.95343 38.8305 6.17517 39.0858 6.32972C39.3479 6.47755 39.6234 6.55146 39.9123 6.55146C40.208 6.55146 40.4835 6.47755 40.7388 6.32972C40.9941 6.18189 41.1991 5.96687 41.3536 5.68465C41.5149 5.39572 41.5955 5.05975 41.5955 4.67674Z" fill="#979797"/>
<path d="M36.3021 4.54576C36.3021 4.75406 36.2886 4.9422 36.2618 5.11019H32.0184C32.052 5.55367 32.2166 5.9098 32.5123 6.17858C32.808 6.44736 33.1708 6.58175 33.6009 6.58175C34.219 6.58175 34.6558 6.32305 34.9111 5.80565H36.1509C35.9829 6.31633 35.6772 6.7363 35.2337 7.06555C34.7969 7.38808 34.2526 7.54935 33.6009 7.54935C33.07 7.54935 32.5929 7.43176 32.1696 7.19658C31.753 6.95468 31.4238 6.61871 31.1819 6.18866C30.9467 5.7519 30.8291 5.24794 30.8291 4.67679C30.8291 4.10563 30.9433 3.60503 31.1718 3.17499C31.407 2.73822 31.7328 2.40225 32.1495 2.16707C32.5728 1.93189 33.0566 1.8143 33.6009 1.8143C34.125 1.8143 34.592 1.92853 35.0019 2.15699C35.4117 2.38545 35.7309 2.70799 35.9594 3.12459C36.1878 3.53448 36.3021 4.0082 36.3021 4.54576ZM35.1027 4.18291C35.0959 3.75958 34.9447 3.42025 34.6491 3.16491C34.3534 2.90957 33.9872 2.7819 33.5505 2.7819C33.154 2.7819 32.8147 2.90957 32.5325 3.16491C32.2502 3.41353 32.0823 3.75286 32.0285 4.18291H35.1027Z" fill="#979797"/>
<path d="M28.8026 2.84235V5.91649C28.8026 6.1248 28.8497 6.27599 28.9437 6.37006C29.0445 6.45741 29.2125 6.50109 29.4477 6.50109H30.1532V7.45861H29.2461C28.7287 7.45861 28.3323 7.33766 28.0568 7.09576C27.7813 6.85386 27.6435 6.46077 27.6435 5.91649V2.84235H26.9884V1.90498H27.6435V0.524137H28.8026V1.90498H30.1532V2.84235H28.8026Z" fill="#979797"/>
<path d="M20.2479 4.65663C20.2479 4.09891 20.3621 3.60503 20.5906 3.17499C20.8258 2.74494 21.1416 2.41233 21.5381 2.17715C21.9412 1.93525 22.3847 1.8143 22.8685 1.8143C23.3053 1.8143 23.6849 1.90165 24.0074 2.07636C24.3367 2.24435 24.5988 2.45601 24.7936 2.71135V1.90501H25.9527V7.45864H24.7936V6.63215C24.5988 6.8942 24.3333 7.11259 23.9974 7.28729C23.6614 7.462 23.2784 7.54935 22.8483 7.54935C22.3713 7.54935 21.9345 7.4284 21.5381 7.1865C21.1416 6.93788 20.8258 6.59519 20.5906 6.15842C20.3621 5.71494 20.2479 5.21434 20.2479 4.65663ZM24.7936 4.67679C24.7936 4.29378 24.713 3.96116 24.5517 3.67895C24.3972 3.39673 24.1922 3.18171 23.9369 3.03388C23.6816 2.88605 23.4061 2.81214 23.1104 2.81214C22.8147 2.81214 22.5392 2.88605 22.2839 3.03388C22.0286 3.17499 21.8203 3.38665 21.659 3.66887C21.5045 3.94437 21.4272 4.27362 21.4272 4.65663C21.4272 5.03964 21.5045 5.37561 21.659 5.66454C21.8203 5.95348 22.0286 6.17522 22.2839 6.32977C22.546 6.4776 22.8215 6.55151 23.1104 6.55151C23.4061 6.55151 23.6816 6.4776 23.9369 6.32977C24.1922 6.18194 24.3972 5.96692 24.5517 5.6847C24.713 5.39577 24.7936 5.05979 24.7936 4.67679Z" fill="#979797"/>
<path d="M13.4169 4.65658C13.4169 4.09886 13.5311 3.60498 13.7596 3.17494C13.9948 2.74489 14.3106 2.41228 14.707 2.1771C15.1102 1.9352 15.5571 1.81425 16.0476 1.81425C16.4104 1.81425 16.7666 1.89488 17.116 2.05615C17.4721 2.2107 17.7543 2.419 17.9626 2.68106V0H19.1217V7.45859H17.9626V6.62202C17.7745 6.8908 17.5124 7.11254 17.1764 7.28724C16.8472 7.46195 16.4675 7.5493 16.0375 7.5493C15.5537 7.5493 15.1102 7.42835 14.707 7.18645C14.3106 6.93783 13.9948 6.59514 13.7596 6.15838C13.5311 5.71489 13.4169 5.21429 13.4169 4.65658ZM17.9626 4.67674C17.9626 4.29373 17.882 3.96112 17.7207 3.6789C17.5662 3.39668 17.3612 3.18166 17.1059 3.03383C16.8506 2.886 16.5751 2.81209 16.2794 2.81209C15.9837 2.81209 15.7082 2.886 15.4529 3.03383C15.1976 3.17494 14.9893 3.3866 14.828 3.66882C14.6735 3.94432 14.5962 4.27357 14.5962 4.65658C14.5962 5.03959 14.6735 5.37556 14.828 5.6645C14.9893 5.95343 15.1976 6.17517 15.4529 6.32972C15.715 6.47755 15.9905 6.55146 16.2794 6.55146C16.5751 6.55146 16.8506 6.47755 17.1059 6.32972C17.3612 6.18189 17.5662 5.96687 17.7207 5.68465C17.882 5.39572 17.9626 5.05975 17.9626 4.67674Z" fill="#979797"/>
<path d="M8.11808 2.72143C8.31294 2.46609 8.57836 2.25106 8.91433 2.07636C9.2503 1.90165 9.62995 1.8143 10.0533 1.8143C10.5371 1.8143 10.9772 1.93525 11.3736 2.17715C11.7768 2.41233 12.0926 2.74494 12.3211 3.17499C12.5496 3.60503 12.6638 4.09891 12.6638 4.65663C12.6638 5.21434 12.5496 5.71494 12.3211 6.15842C12.0926 6.59519 11.7768 6.93788 11.3736 7.1865C10.9772 7.4284 10.5371 7.54935 10.0533 7.54935C9.62995 7.54935 9.25366 7.46536 8.92441 7.29737C8.59516 7.12267 8.32638 6.90764 8.11808 6.6523V10.0994H6.96905V1.90501H8.11808V2.72143ZM11.4946 4.65663C11.4946 4.27362 11.414 3.94437 11.2527 3.66887C11.0982 3.38665 10.8898 3.17499 10.6278 3.03388C10.3725 2.88605 10.097 2.81214 9.8013 2.81214C9.51236 2.81214 9.23686 2.88605 8.9748 3.03388C8.71947 3.18171 8.51116 3.39673 8.3499 3.67895C8.19535 3.96116 8.11808 4.29378 8.11808 4.67679C8.11808 5.05979 8.19535 5.39577 8.3499 5.6847C8.51116 5.96692 8.71947 6.18194 8.9748 6.32977C9.23686 6.4776 9.51236 6.55151 9.8013 6.55151C10.097 6.55151 10.3725 6.4776 10.6278 6.32977C10.8898 6.17522 11.0982 5.95348 11.2527 5.66454C11.414 5.37561 11.4946 5.03964 11.4946 4.65663Z" fill="#979797"/>
<path d="M1.14903 0.453637V4.91871C1.14903 5.44955 1.28677 5.84935 1.56227 6.11813C1.84449 6.38691 2.23422 6.5213 2.73146 6.5213C3.23541 6.5213 3.62514 6.38691 3.90064 6.11813C4.18286 5.84935 4.32397 5.44955 4.32397 4.91871V0.453637H5.47299V4.89855C5.47299 5.46971 5.34868 5.95351 5.10006 6.34995C4.85144 6.7464 4.51883 7.04206 4.10222 7.23692C3.68562 7.43178 3.22534 7.52922 2.72138 7.52922C2.21742 7.52922 1.75714 7.43178 1.34053 7.23692C0.930644 7.04206 0.60475 6.7464 0.36285 6.34995C0.12095 5.95351 0 5.46971 0 4.89855V0.453637H1.14903Z" fill="#979797"/>
</svg>
