<svg width="32" height="11" viewBox="0 0 32 11" fill="none" xmlns="http://www.w3.org/2000/svg">
<path d="M30.4857 2.77983V6.22634C30.4857 6.45987 30.5384 6.62937 30.6439 6.73484C30.7569 6.83277 30.9452 6.88174 31.2089 6.88174H31.9999V7.95524H30.9829C30.4028 7.95524 29.9584 7.81964 29.6495 7.54844C29.3406 7.27724 29.1862 6.83654 29.1862 6.22634V2.77983H28.4517V1.72893H29.1862V0.180826H30.4857V1.72893H31.9999V2.77983H30.4857Z" fill="#979797"/>
<path d="M24.7859 1.62731C25.2756 1.62731 25.7125 1.72901 26.0967 1.93241C26.4884 2.13581 26.7935 2.43715 27.012 2.83641C27.2305 3.23568 27.3397 3.71782 27.3397 4.28282V7.95532H26.0628V4.47492C26.0628 3.91745 25.9234 3.49181 25.6447 3.19801C25.366 2.89668 24.9855 2.74601 24.5034 2.74601C24.0213 2.74601 23.6371 2.89668 23.3508 3.19801C23.0721 3.49181 22.9327 3.91745 22.9327 4.47492V7.95532H21.6445V1.72901H22.9327V2.44091C23.1436 2.18478 23.4111 1.98515 23.735 1.84201C24.0665 1.69888 24.4168 1.62731 24.7859 1.62731Z" fill="#979797"/>
<path d="M20.3768 4.68962C20.3768 4.92315 20.3617 5.13408 20.3316 5.32242H15.5743C15.612 5.81962 15.7965 6.21889 16.128 6.52022C16.4595 6.82155 16.8663 6.97222 17.3484 6.97222C18.0415 6.97222 18.5311 6.68219 18.8174 6.10212H20.2073C20.019 6.67465 19.6762 7.14549 19.179 7.51462C18.6893 7.87622 18.0791 8.05702 17.3484 8.05702C16.7533 8.05702 16.2184 7.92519 15.7438 7.66152C15.2767 7.39032 14.9076 7.01365 14.6364 6.53152C14.3727 6.04185 14.2409 5.47685 14.2409 4.83652C14.2409 4.19618 14.369 3.63495 14.6251 3.15281C14.8888 2.66315 15.2541 2.28648 15.7212 2.02281C16.1958 1.75915 16.7382 1.62731 17.3484 1.62731C17.936 1.62731 18.4596 1.75538 18.9191 2.01151C19.3786 2.26765 19.7365 2.62925 19.9926 3.09631C20.2487 3.55585 20.3768 4.08695 20.3768 4.68962ZM19.0321 4.28282C19.0246 3.80822 18.8551 3.42778 18.5236 3.14151C18.1921 2.85525 17.7816 2.71211 17.2919 2.71211C16.8474 2.71211 16.467 2.85525 16.1506 3.14151C15.8342 3.42025 15.6459 3.80068 15.5856 4.28282H19.0321Z" fill="#979797"/>
<path d="M8.30005 2.64431C8.51852 2.35805 8.81609 2.11698 9.19275 1.92111C9.56942 1.72525 9.99506 1.62731 10.4697 1.62731C11.0121 1.62731 11.5055 1.76291 11.95 2.03411C12.402 2.29778 12.756 2.67068 13.0122 3.15281C13.2683 3.63495 13.3964 4.18865 13.3964 4.81392C13.3964 5.43918 13.2683 6.00042 13.0122 6.49762C12.756 6.98729 12.402 7.37149 11.95 7.65022C11.5055 7.92142 11.0121 8.05702 10.4697 8.05702C9.99506 8.05702 9.57319 7.96286 9.20405 7.77452C8.83492 7.57866 8.53359 7.33759 8.30005 7.05132V10.9159H7.01185V1.72901H8.30005V2.64431ZM12.0856 4.81392C12.0856 4.38452 11.9952 4.01538 11.8144 3.70652C11.6411 3.39011 11.4076 3.15281 11.1138 2.99461C10.8275 2.82888 10.5186 2.74601 10.1872 2.74601C9.86322 2.74601 9.55435 2.82888 9.26055 2.99461C8.97429 3.16035 8.74075 3.40141 8.55995 3.71781C8.38669 4.03422 8.30005 4.40712 8.30005 4.83652C8.30005 5.26592 8.38669 5.64259 8.55995 5.96652C8.74075 6.28292 8.97429 6.52399 9.26055 6.68972C9.55435 6.85545 9.86322 6.93832 10.1872 6.93832C10.5186 6.93832 10.8275 6.85545 11.1138 6.68972C11.4076 6.51645 11.6411 6.26785 11.8144 5.94392C11.9952 5.61998 12.0856 5.24332 12.0856 4.81392Z" fill="#979797"/>
<path d="M2.7798 8.03431C2.25247 8.03431 1.77787 7.94391 1.356 7.76311C0.934135 7.57478 0.602668 7.31111 0.361601 6.97211C0.120534 6.63311 0 6.23761 0 5.78561H1.3786C1.40874 6.12461 1.54057 6.40334 1.7741 6.62181C2.01517 6.84028 2.3504 6.94951 2.7798 6.94951C3.22427 6.94951 3.57081 6.84405 3.81941 6.63311C4.06801 6.41464 4.19231 6.13591 4.19231 5.79691C4.19231 5.53324 4.11321 5.31854 3.95501 5.15281C3.80434 4.98708 3.61224 4.85901 3.37871 4.76861C3.15271 4.67821 2.8363 4.58027 2.4295 4.47481C1.91724 4.33921 1.49914 4.20361 1.1752 4.06801C0.858802 3.92487 0.587601 3.70641 0.361601 3.41261C0.1356 3.11881 0.0226001 2.72707 0.0226001 2.2374C0.0226001 1.7854 0.1356 1.3899 0.361601 1.0509C0.587601 0.711901 0.904002 0.452001 1.3108 0.271201C1.7176 0.0904002 2.18844 0 2.7233 0C3.48417 0 4.10567 0.1921 4.58781 0.576301C5.07748 0.952968 5.34868 1.47277 5.40141 2.1357H3.97761C3.95501 1.84944 3.81941 1.6046 3.57081 1.4012C3.32221 1.1978 2.99451 1.0961 2.5877 1.0961C2.21857 1.0961 1.91724 1.19027 1.6837 1.3786C1.45017 1.56694 1.3334 1.83814 1.3334 2.1922C1.3334 2.43327 1.40497 2.6329 1.5481 2.7911C1.69877 2.94177 1.8871 3.06231 2.1131 3.15271C2.3391 3.24311 2.64797 3.34104 3.03971 3.44651C3.55951 3.58964 3.98137 3.73277 4.30531 3.87591C4.63677 4.01904 4.91551 4.24127 5.14151 4.54261C5.37504 4.83641 5.49181 5.23191 5.49181 5.72911C5.49181 6.12838 5.38258 6.50504 5.16411 6.85911C4.95317 7.21318 4.64054 7.49945 4.22621 7.71791C3.81941 7.92885 3.33727 8.03431 2.7798 8.03431Z" fill="#979797"/>
</svg>
