<svg width="93" height="13" viewBox="0 0 93 13" fill="none" xmlns="http://www.w3.org/2000/svg">
<path d="M0 11.5597H93V12.3805H0V11.5597Z" fill="black"/>
<path d="M88.9302 9.30255C88.383 9.30255 87.8999 9.16432 87.481 8.88787C87.062 8.60857 86.7343 8.21527 86.4977 7.70796C86.2612 7.19781 86.1429 6.59503 86.1429 5.89963C86.1429 5.20992 86.2612 4.61142 86.4977 4.10412C86.7343 3.59681 87.0634 3.20493 87.4852 2.92848C87.907 2.65203 88.3944 2.51381 88.9473 2.51381C89.3748 2.51381 89.7125 2.58506 89.9605 2.72756C90.2113 2.86721 90.4022 3.02681 90.5333 3.20636C90.6673 3.38306 90.7713 3.52841 90.8454 3.64241H90.9309V0.410492H91.9398V9.16575H90.9651V8.15684H90.8454C90.7713 8.27654 90.6659 8.42759 90.5291 8.60999C90.3923 8.78955 90.197 8.95057 89.9434 9.09307C89.6897 9.23272 89.352 9.30255 88.9302 9.30255ZM89.067 8.39624C89.4717 8.39624 89.8137 8.29079 90.093 8.07989C90.3723 7.86614 90.5846 7.57116 90.73 7.19496C90.8753 6.81591 90.948 6.37843 90.948 5.88253C90.948 5.39232 90.8768 4.9634 90.7343 4.59574C90.5918 4.22524 90.3809 3.93739 90.1016 3.73219C89.8223 3.52414 89.4774 3.42011 89.067 3.42011C88.6395 3.42011 88.2832 3.52984 87.9982 3.74929C87.7161 3.96589 87.5038 4.26087 87.3613 4.63422C87.2216 5.00472 87.1518 5.42082 87.1518 5.88253C87.1518 6.34993 87.223 6.77458 87.3655 7.15648C87.5109 7.53554 87.7246 7.83764 88.0068 8.06279C88.2918 8.28509 88.6452 8.39624 89.067 8.39624Z" fill="black"/>
<path d="M82.1713 9.16555V2.59911H83.146V3.59091H83.2144C83.3341 3.26601 83.5507 3.00238 83.8642 2.80003C84.1777 2.59768 84.5311 2.4965 84.9244 2.4965C84.9985 2.4965 85.0912 2.49793 85.2023 2.50078C85.3135 2.50363 85.3975 2.5079 85.4545 2.51361V3.53961C85.4203 3.53106 85.342 3.51824 85.2194 3.50114C85.0997 3.48119 84.9729 3.47121 84.8389 3.47121C84.5197 3.47121 84.2347 3.53819 83.9839 3.67214C83.736 3.80324 83.5393 3.98564 83.394 4.21934C83.2515 4.45019 83.1802 4.71382 83.1802 5.01022V9.16555H82.1713Z" fill="black"/>
<path d="M77.6559 9.30239C77.0631 9.30239 76.5429 9.16132 76.0955 8.87917C75.6509 8.59701 75.3032 8.20229 75.0524 7.69498C74.8044 7.18768 74.6805 6.59488 74.6805 5.91657C74.6805 5.23257 74.8044 4.63549 75.0524 4.12533C75.3032 3.61518 75.6509 3.21903 76.0955 2.93688C76.5429 2.65473 77.0631 2.51365 77.6559 2.51365C78.2487 2.51365 78.7674 2.65473 79.212 2.93688C79.6594 3.21903 80.0071 3.61518 80.2551 4.12533C80.5059 4.63549 80.6313 5.23257 80.6313 5.91657C80.6313 6.59488 80.5059 7.18768 80.2551 7.69498C80.0071 8.20229 79.6594 8.59701 79.212 8.87917C78.7674 9.16132 78.2487 9.30239 77.6559 9.30239ZM77.6559 8.39609C78.1062 8.39609 78.4767 8.28066 78.7674 8.04981C79.0581 7.81896 79.2733 7.51543 79.4129 7.13923C79.5526 6.76303 79.6224 6.35547 79.6224 5.91657C79.6224 5.47767 79.5526 5.06869 79.4129 4.68964C79.2733 4.31059 79.0581 4.00421 78.7674 3.77051C78.4767 3.53681 78.1062 3.41995 77.6559 3.41995C77.2056 3.41995 76.8351 3.53681 76.5444 3.77051C76.2537 4.00421 76.0385 4.31059 75.8988 4.68964C75.7592 5.06869 75.6894 5.47767 75.6894 5.91657C75.6894 6.35547 75.7592 6.76303 75.8988 7.13923C76.0385 7.51543 76.2537 7.81896 76.5444 8.04981C76.8351 8.28066 77.2056 8.39609 77.6559 8.39609Z" fill="black"/>
<path d="M66.918 9.16557L64.9173 2.59913H65.9775L67.3968 7.62656H67.4652L68.8674 2.59913H69.9448L71.3299 7.60946H71.3983L72.8176 2.59913H73.8778L71.8771 9.16557H70.8853L69.4489 4.12104H69.3463L67.9098 9.16557H66.918Z" fill="black"/>
<path d="M63.7919 4.06976L62.8856 4.32626C62.8286 4.17521 62.7445 4.02843 62.6334 3.88593C62.5251 3.74058 62.3769 3.62088 62.1888 3.52683C62.0007 3.43278 61.7598 3.38575 61.4663 3.38575C61.0644 3.38575 60.7295 3.47838 60.4616 3.66363C60.1966 3.84603 60.0641 4.07831 60.0641 4.36046C60.0641 4.61126 60.1553 4.80934 60.3377 4.95469C60.5201 5.10004 60.8051 5.22117 61.1927 5.31807L62.1674 5.55747C62.7545 5.69997 63.192 5.918 63.4798 6.21155C63.7677 6.50225 63.9116 6.87703 63.9116 7.33588C63.9116 7.71208 63.8033 8.04838 63.5867 8.34479C63.3729 8.64119 63.0737 8.87489 62.6889 9.04589C62.3042 9.21689 61.8567 9.30239 61.3466 9.30239C60.6768 9.30239 60.1225 9.15704 59.6836 8.86634C59.2447 8.57564 58.9668 8.15098 58.85 7.59238L59.8076 7.35298C59.8988 7.70638 60.0712 7.97143 60.3248 8.14813C60.5813 8.32484 60.9162 8.41319 61.3295 8.41319C61.7997 8.41319 62.1731 8.31344 62.4495 8.11393C62.7288 7.91158 62.8685 7.66933 62.8685 7.38718C62.8685 7.15918 62.7887 6.96823 62.6291 6.81433C62.4695 6.65758 62.2244 6.54072 61.8938 6.46377L60.7994 6.20727C60.198 6.06477 59.7563 5.8439 59.4741 5.54464C59.1948 5.24254 59.0552 4.86491 59.0552 4.41176C59.0552 4.04126 59.1592 3.71351 59.3672 3.42851C59.5781 3.1435 59.8646 2.91978 60.2265 2.75733C60.5913 2.59487 61.0046 2.51365 61.4663 2.51365C62.1161 2.51365 62.6262 2.65615 62.9967 2.94115C63.3701 3.22615 63.6351 3.60236 63.7919 4.06976Z" fill="black"/>
<path d="M57.5023 4.06976L56.596 4.32626C56.539 4.17521 56.4549 4.02843 56.3437 3.88593C56.2354 3.74058 56.0872 3.62088 55.8991 3.52683C55.711 3.43278 55.4702 3.38575 55.1766 3.38575C54.7748 3.38575 54.4399 3.47838 54.172 3.66363C53.907 3.84603 53.7744 4.07831 53.7744 4.36046C53.7744 4.61126 53.8656 4.80934 54.048 4.95469C54.2304 5.10004 54.5154 5.22117 54.903 5.31807L55.8777 5.55747C56.4649 5.69997 56.9023 5.918 57.1902 6.21155C57.478 6.50225 57.622 6.87703 57.622 7.33588C57.622 7.71208 57.5137 8.04838 57.2971 8.34479C57.0833 8.64119 56.7841 8.87489 56.3993 9.04589C56.0145 9.21689 55.5671 9.30239 55.0569 9.30239C54.3872 9.30239 53.8329 9.15704 53.394 8.86634C52.9551 8.57564 52.6772 8.15098 52.5603 7.59238L53.5179 7.35298C53.6091 7.70638 53.7816 7.97143 54.0352 8.14813C54.2917 8.32484 54.6266 8.41319 55.0398 8.41319C55.5101 8.41319 55.8834 8.31344 56.1599 8.11393C56.4392 7.91158 56.5789 7.66933 56.5789 7.38718C56.5789 7.15918 56.4991 6.96823 56.3395 6.81433C56.1798 6.65758 55.9347 6.54072 55.6041 6.46377L54.5097 6.20727C53.9084 6.06477 53.4666 5.8439 53.1845 5.54464C52.9052 5.24254 52.7655 4.86491 52.7655 4.41176C52.7655 4.04126 52.8696 3.71351 53.0776 3.42851C53.2885 3.1435 53.5749 2.91978 53.9369 2.75733C54.3017 2.59487 54.7149 2.51365 55.1766 2.51365C55.8264 2.51365 56.3366 2.65615 56.7071 2.94115C57.0805 3.22615 57.3455 3.60236 57.5023 4.06976Z" fill="black"/>
<path d="M48 9.31949C47.5839 9.31949 47.2063 9.24112 46.8671 9.08437C46.528 8.92477 46.2587 8.69534 46.0592 8.39609C45.8597 8.09399 45.7599 7.72918 45.7599 7.30168C45.7599 6.92548 45.834 6.62053 45.9822 6.38682C46.1304 6.15027 46.3285 5.96502 46.5764 5.83107C46.8244 5.69712 47.098 5.59737 47.3972 5.53182C47.6993 5.46342 48.0029 5.40927 48.3078 5.36937C48.7068 5.31807 49.0303 5.27959 49.2783 5.25394C49.5291 5.22544 49.7115 5.17842 49.8255 5.11287C49.9423 5.04732 50.0007 4.93331 50.0007 4.77086V4.73666C50.0007 4.31486 49.8853 3.98711 49.6545 3.75341C49.4265 3.51971 49.0802 3.40286 48.6156 3.40286C48.134 3.40286 47.7563 3.50831 47.4827 3.71921C47.2091 3.93011 47.0168 4.15526 46.9056 4.39466L45.948 4.05266C46.119 3.65366 46.347 3.343 46.632 3.1207C46.9199 2.89555 47.2334 2.7388 47.5725 2.65045C47.9145 2.55925 48.2508 2.51365 48.5814 2.51365C48.7923 2.51365 49.0346 2.5393 49.3082 2.5906C49.5846 2.63905 49.8511 2.74023 50.1076 2.89413C50.367 3.04803 50.5821 3.2803 50.7531 3.59096C50.9241 3.90161 51.0096 4.31771 51.0096 4.83926V9.16559H50.0007V8.27639H49.9494C49.881 8.41889 49.767 8.57136 49.6074 8.73381C49.4478 8.89626 49.2355 9.03449 48.9704 9.14849C48.7054 9.26249 48.3819 9.31949 48 9.31949ZM48.1539 8.41319C48.5529 8.41319 48.8892 8.33481 49.1628 8.17806C49.4393 8.02131 49.6473 7.81896 49.787 7.57101C49.9295 7.32305 50.0007 7.06228 50.0007 6.78868V5.86527C49.958 5.91657 49.8639 5.9636 49.7186 6.00635C49.5761 6.04625 49.4108 6.08187 49.2227 6.11322C49.0374 6.14172 48.8564 6.16737 48.6797 6.19017C48.5059 6.21012 48.3648 6.22722 48.2565 6.24147C47.9943 6.27567 47.7492 6.33125 47.5212 6.4082C47.2961 6.4823 47.1137 6.59488 46.974 6.74593C46.8372 6.89413 46.7688 7.09648 46.7688 7.35298C46.7688 7.70353 46.8985 7.96858 47.1578 8.14813C47.42 8.32484 47.7521 8.41319 48.1539 8.41319Z" fill="black"/>
<path d="M38.7317 11.628V2.59915H39.7064V3.64226H39.8261C39.9002 3.52826 40.0028 3.3829 40.1339 3.2062C40.2679 3.02665 40.4588 2.86705 40.7068 2.7274C40.9576 2.5849 41.2967 2.51365 41.7242 2.51365C42.2771 2.51365 42.7645 2.65188 43.1863 2.92833C43.6081 3.20478 43.9373 3.59666 44.1738 4.10396C44.4104 4.61126 44.5286 5.20977 44.5286 5.89947C44.5286 6.59488 44.4104 7.19765 44.1738 7.70781C43.9373 8.21511 43.6095 8.60841 43.1906 8.88771C42.7716 9.16417 42.2885 9.30239 41.7413 9.30239C41.3195 9.30239 40.9818 9.23257 40.7281 9.09292C40.4745 8.95042 40.2793 8.78939 40.1425 8.60984C40.0057 8.42744 39.9002 8.27639 39.8261 8.15669H39.7406V11.628H38.7317ZM39.7235 5.88237C39.7235 6.37827 39.7962 6.81575 39.9415 7.1948C40.0869 7.57101 40.2992 7.86598 40.5785 8.07974C40.8578 8.29064 41.1998 8.39609 41.6045 8.39609C42.0263 8.39609 42.3783 8.28494 42.6605 8.06263C42.9455 7.83748 43.1592 7.53538 43.3017 7.15633C43.4471 6.77443 43.5197 6.34977 43.5197 5.88237C43.5197 5.42067 43.4485 5.00457 43.306 4.63406C43.1663 4.26071 42.954 3.96573 42.669 3.74913C42.3868 3.52968 42.032 3.41995 41.6045 3.41995C41.1941 3.41995 40.8493 3.52398 40.57 3.73203C40.2907 3.93723 40.0798 4.22509 39.9373 4.59559C39.7948 4.96324 39.7235 5.39217 39.7235 5.88237Z" fill="black"/>
<path d="M33.8283 2.59919V3.4542H30.4254V2.59919H33.8283ZM31.4172 1.02598H32.4261V7.28462C32.4261 7.56963 32.4674 7.78338 32.5501 7.92588C32.6356 8.06553 32.7439 8.15958 32.875 8.20803C33.0089 8.25363 33.15 8.27643 33.2982 8.27643C33.4093 8.27643 33.5005 8.27073 33.5718 8.25933C33.643 8.24508 33.7 8.23368 33.7428 8.22513L33.948 9.13144C33.8796 9.15709 33.7841 9.18274 33.6616 9.20839C33.539 9.23689 33.3837 9.25114 33.1956 9.25114C32.9106 9.25114 32.6313 9.18986 32.3577 9.06731C32.0869 8.94476 31.8618 8.75808 31.6822 8.50728C31.5055 8.25648 31.4172 7.94013 31.4172 7.55823V1.02598Z" fill="black"/>
<path d="M26.4571 9.30239C25.8643 9.30239 25.3442 9.16132 24.8967 8.87917C24.4521 8.59701 24.1044 8.20229 23.8536 7.69498C23.6056 7.18768 23.4817 6.59488 23.4817 5.91657C23.4817 5.23257 23.6056 4.63549 23.8536 4.12533C24.1044 3.61518 24.4521 3.21903 24.8967 2.93688C25.3442 2.65473 25.8643 2.51365 26.4571 2.51365C27.0499 2.51365 27.5686 2.65473 28.0132 2.93688C28.4606 3.21903 28.8084 3.61518 29.0563 4.12533C29.3071 4.63549 29.4325 5.23257 29.4325 5.91657C29.4325 6.59488 29.3071 7.18768 29.0563 7.69498C28.8084 8.20229 28.4606 8.59701 28.0132 8.87917C27.5686 9.16132 27.0499 9.30239 26.4571 9.30239ZM26.4571 8.39609C26.9074 8.39609 27.2779 8.28066 27.5686 8.04981C27.8593 7.81896 28.0745 7.51543 28.2141 7.13923C28.3538 6.76303 28.4236 6.35547 28.4236 5.91657C28.4236 5.47767 28.3538 5.06869 28.2141 4.68964C28.0745 4.31059 27.8593 4.00421 27.5686 3.77051C27.2779 3.53681 26.9074 3.41995 26.4571 3.41995C26.0068 3.41995 25.6363 3.53681 25.3456 3.77051C25.0549 4.00421 24.8397 4.31059 24.7001 4.68964C24.5604 5.06869 24.4906 5.47767 24.4906 5.91657C24.4906 6.35547 24.5604 6.76303 24.7001 7.13923C24.8397 7.51543 25.0549 7.81896 25.3456 8.04981C25.6363 8.28066 26.0068 8.39609 26.4571 8.39609Z" fill="black"/>
<path d="M19.104 11.7648C18.6167 11.7648 18.1977 11.7021 17.8472 11.5767C17.4966 11.4542 17.2045 11.2917 16.9708 11.0894C16.7399 10.8899 16.5561 10.6761 16.4193 10.4481L17.223 9.8838C17.3142 10.0035 17.4297 10.1403 17.5693 10.2942C17.709 10.4509 17.8999 10.5863 18.1422 10.7003C18.3873 10.8172 18.7079 10.8756 19.104 10.8756C19.6341 10.8756 20.0716 10.7474 20.4165 10.4909C20.7613 10.2343 20.9338 9.8325 20.9338 9.28529V7.95148H20.8483C20.7741 8.07118 20.6687 8.21939 20.5319 8.39609C20.3979 8.56994 20.2041 8.72526 19.9505 8.86206C19.6997 8.99602 19.3605 9.06299 18.933 9.06299C18.4029 9.06299 17.927 8.93759 17.5052 8.68679C17.0862 8.43599 16.7542 8.07118 16.5091 7.59238C16.2668 7.11358 16.1457 6.53217 16.1457 5.84817C16.1457 5.17557 16.264 4.58989 16.5005 4.09113C16.7371 3.58953 17.0663 3.20193 17.4881 2.92833C17.9099 2.65188 18.3972 2.51365 18.9501 2.51365C19.3776 2.51365 19.7168 2.5849 19.9676 2.7274C20.2212 2.86705 20.415 3.02665 20.549 3.2062C20.6858 3.3829 20.7912 3.52826 20.8654 3.64226H20.968V2.59915H21.9427V9.35369C21.9427 9.918 21.8144 10.3768 21.5579 10.7303C21.3043 11.0865 20.9623 11.3473 20.5319 11.5126C20.1044 11.6807 19.6284 11.7648 19.104 11.7648ZM19.0698 8.15669C19.4745 8.15669 19.8165 8.06406 20.0958 7.87881C20.3751 7.69356 20.5875 7.42708 20.7328 7.07938C20.8782 6.73168 20.9509 6.31557 20.9509 5.83107C20.9509 5.35797 20.8796 4.94044 20.7371 4.57849C20.5946 4.21654 20.3837 3.93296 20.1044 3.72776C19.8251 3.52256 19.4802 3.41995 19.0698 3.41995C18.6423 3.41995 18.2861 3.52826 18.0011 3.74486C17.7189 3.96146 17.5066 4.25216 17.3641 4.61696C17.2245 4.98176 17.1546 5.38647 17.1546 5.83107C17.1546 6.28707 17.2259 6.69035 17.3684 7.0409C17.5137 7.38861 17.7275 7.66221 18.0096 7.86171C18.2946 8.05836 18.648 8.15669 19.0698 8.15669Z" fill="black"/>
<path d="M12.1742 9.16555V2.59911H13.1489V3.59091H13.2173C13.337 3.26601 13.5536 3.00238 13.8671 2.80003C14.1806 2.59768 14.534 2.4965 14.9273 2.4965C15.0014 2.4965 15.094 2.49793 15.2052 2.50078C15.3163 2.50363 15.4004 2.5079 15.4574 2.51361V3.53961C15.4232 3.53106 15.3448 3.51824 15.2223 3.50114C15.1026 3.48119 14.9757 3.47121 14.8418 3.47121C14.5226 3.47121 14.2376 3.53819 13.9868 3.67214C13.7388 3.80324 13.5422 3.98564 13.3968 4.21934C13.2543 4.45019 13.1831 4.71382 13.1831 5.01022V9.16555H12.1742Z" fill="black"/>
<path d="M7.65872 9.30239C7.06592 9.30239 6.54579 9.16132 6.09834 8.87917C5.65373 8.59701 5.30603 8.20229 5.05523 7.69498C4.80728 7.18768 4.6833 6.59488 4.6833 5.91657C4.6833 5.23257 4.80728 4.63549 5.05523 4.12533C5.30603 3.61518 5.65373 3.21903 6.09834 2.93688C6.54579 2.65473 7.06592 2.51365 7.65872 2.51365C8.25153 2.51365 8.77023 2.65473 9.21483 2.93688C9.66229 3.21903 10.01 3.61518 10.2579 4.12533C10.5087 4.63549 10.6341 5.23257 10.6341 5.91657C10.6341 6.59488 10.5087 7.18768 10.2579 7.69498C10.01 8.20229 9.66229 8.59701 9.21483 8.87917C8.77023 9.16132 8.25153 9.30239 7.65872 9.30239ZM7.65872 8.39609C8.10903 8.39609 8.47953 8.28066 8.77023 8.04981C9.06093 7.81896 9.27611 7.51543 9.41576 7.13923C9.55541 6.76303 9.62524 6.35547 9.62524 5.91657C9.62524 5.47767 9.55541 5.06869 9.41576 4.68964C9.27611 4.31059 9.06093 4.00421 8.77023 3.77051C8.47953 3.53681 8.10903 3.41995 7.65872 3.41995C7.20842 3.41995 6.83792 3.53681 6.54722 3.77051C6.25651 4.00421 6.04134 4.31059 5.90169 4.68964C5.76204 5.06869 5.69221 5.47767 5.69221 5.91657C5.69221 6.35547 5.76204 6.76303 5.90169 7.13923C6.04134 7.51543 6.25651 7.81896 6.54722 8.04981C6.83792 8.28066 7.20842 8.39609 7.65872 8.39609Z" fill="black"/>
<path d="M3.84747 2.59922V3.45422H0.307746V2.59922H3.84747ZM1.36795 9.16566V1.69291C1.36795 1.31671 1.4563 1.00321 1.633 0.752405C1.80971 0.501603 2.03913 0.313502 2.32128 0.188101C2.60344 0.0627004 2.90126 0 3.21476 0C3.46272 0 3.66507 0.0199503 3.82182 0.0598508C3.97857 0.0997508 4.09542 0.136801 4.17237 0.171001L3.88167 1.04311C3.83037 1.02601 3.75912 1.00463 3.66792 0.978982C3.57957 0.953331 3.46272 0.940506 3.31737 0.940506C2.98391 0.940506 2.74309 1.02458 2.59489 1.19273C2.44953 1.36088 2.37686 1.60741 2.37686 1.93231V9.16566H1.36795Z" fill="black"/>
</svg>
