<svg width="73" height="9" viewBox="0 0 73 9" fill="none" xmlns="http://www.w3.org/2000/svg">
<path opacity="0.4" d="M67.1727 8.88007V7.92192L70.137 4.85068C70.4535 4.51703 70.7145 4.22474 70.9198 3.97379C71.1279 3.71999 71.2834 3.47903 71.386 3.25089C71.4887 3.02276 71.54 2.78037 71.54 2.52372C71.54 2.23285 71.4716 1.9819 71.3347 1.77088C71.1978 1.55701 71.011 1.39304 70.7743 1.27897C70.5377 1.16205 70.271 1.10359 69.9745 1.10359C69.6608 1.10359 69.387 1.16776 69.1532 1.29608C68.9193 1.42441 68.7397 1.60549 68.6142 1.83932C68.4887 2.07316 68.426 2.34692 68.426 2.6606H67.1641C67.1641 2.12734 67.2868 1.66109 67.532 1.26186C67.7772 0.862628 68.1137 0.553222 68.5415 0.333645C68.9692 0.111215 69.4555 0 70.0001 0C70.5505 0 71.0353 0.109789 71.4545 0.329367C71.8765 0.546093 72.2059 0.842666 72.4426 1.21908C72.6793 1.59265 72.7976 2.0147 72.7976 2.48522C72.7976 2.81031 72.7363 3.12827 72.6137 3.4391C72.4939 3.74993 72.2843 4.09641 71.9849 4.47853C71.6855 4.85781 71.2691 5.31835 70.7358 5.86016L68.9949 7.68238V7.74654H72.9388V8.88007H67.1727Z" fill="black"/>
<path opacity="0.4" d="M62.4591 8.99984C61.8716 8.99984 61.3469 8.89861 60.8849 8.69614C60.4258 8.49367 60.0622 8.21279 59.7942 7.85348C59.529 7.49132 59.3864 7.07212 59.3664 6.59589H60.7096C60.7267 6.8554 60.8136 7.08068 60.9705 7.27174C61.1302 7.45995 61.3383 7.60538 61.595 7.70804C61.8516 7.8107 62.1368 7.86203 62.4505 7.86203C62.7956 7.86203 63.1007 7.80215 63.3659 7.68238C63.6339 7.56261 63.8435 7.39578 63.9947 7.18191C64.1458 6.96518 64.2214 6.71566 64.2214 6.43335C64.2214 6.13963 64.1458 5.88155 63.9947 5.65912C63.8464 5.43384 63.6282 5.25704 63.3402 5.12871C63.0551 5.00039 62.71 4.93623 62.3051 4.93623H61.5651V3.8583H62.3051C62.6302 3.8583 62.9153 3.79984 63.1606 3.68292C63.4087 3.566 63.6026 3.40346 63.7423 3.19529C63.882 2.98426 63.9519 2.7376 63.9519 2.45528C63.9519 2.18437 63.8906 1.94911 63.768 1.74949C63.6482 1.54703 63.4771 1.38876 63.2547 1.27469C63.0351 1.16063 62.7756 1.10359 62.4762 1.10359C62.191 1.10359 61.9244 1.15635 61.6763 1.26186C61.431 1.36452 61.2314 1.51281 61.0774 1.70672C60.9234 1.89778 60.8407 2.12734 60.8293 2.3954H59.5504C59.5646 1.92202 59.7043 1.50568 59.9696 1.14637C60.2376 0.787058 60.5912 0.50617 61.0304 0.303702C61.4695 0.101234 61.9572 0 62.4933 0C63.0551 0 63.5398 0.109789 63.9476 0.329367C64.3583 0.546093 64.6748 0.835537 64.8972 1.1977C65.1225 1.55986 65.2337 1.95624 65.2309 2.38684C65.2337 2.87733 65.0968 3.29367 64.8202 3.63587C64.5465 3.97807 64.1815 4.20763 63.7252 4.32455V4.39299C64.3069 4.48139 64.7575 4.71237 65.0769 5.08594C65.3991 5.45951 65.5588 5.9229 65.556 6.47612C65.5588 6.95806 65.4248 7.39008 65.1539 7.7722C64.8858 8.15433 64.5194 8.45518 64.0546 8.67476C63.5897 8.89148 63.0579 8.99984 62.4591 8.99984Z" fill="black"/>
<path opacity="0.4" d="M52.9287 8.88014L56.7528 1.31753V1.25337H52.3299V0.119837H58.1216V1.29187L54.3104 8.88014H52.9287Z" fill="black"/>
<path opacity="0.4" d="M45.2463 8.88007V7.92192L48.2106 4.85068C48.5271 4.51703 48.788 4.22474 48.9934 3.97379C49.2015 3.71999 49.3569 3.47903 49.4596 3.25089C49.5623 3.02276 49.6136 2.78037 49.6136 2.52372C49.6136 2.23285 49.5451 1.9819 49.4083 1.77088C49.2714 1.55701 49.0846 1.39304 48.8479 1.27897C48.6112 1.16205 48.3446 1.10359 48.048 1.10359C47.7343 1.10359 47.4606 1.16776 47.2267 1.29608C46.9929 1.42441 46.8133 1.60549 46.6878 1.83932C46.5623 2.07316 46.4996 2.34692 46.4996 2.6606H45.2377C45.2377 2.12734 45.3603 1.66109 45.6056 1.26186C45.8508 0.862628 46.1873 0.553222 46.6151 0.333645C47.0428 0.111215 47.529 0 48.0737 0C48.6241 0 49.1088 0.109789 49.528 0.329367C49.9501 0.546093 50.2795 0.842666 50.5161 1.21908C50.7528 1.59265 50.8712 2.0147 50.8712 2.48522C50.8712 2.81031 50.8099 3.12827 50.6872 3.4391C50.5675 3.74993 50.3579 4.09641 50.0584 4.47853C49.759 4.85781 49.3427 5.31835 48.8094 5.86016L47.0685 7.68238V7.74654H51.0123V8.88007H45.2463Z" fill="black"/>
<path opacity="0.4" d="M37.1812 7.16914V6.09977L40.9668 0.119837H41.8095V1.69395H41.2748L38.5671 5.98V6.04844H43.7557V7.16914H37.1812ZM41.3347 8.88014V6.84406L41.3432 6.35642V0.119837H42.5965V8.88014H41.3347Z" fill="black"/>
<path opacity="0.4" d="M32.7658 8.99984C32.3751 8.99414 31.9901 8.92285 31.6108 8.78597C31.2344 8.64909 30.8922 8.42096 30.5842 8.10157C30.2763 7.78218 30.0296 7.35301 29.8442 6.81405C29.6617 6.27508 29.5705 5.60209 29.5705 4.79507C29.5705 4.03082 29.6461 3.35213 29.7972 2.75898C29.9512 2.16584 30.1722 1.66537 30.4602 1.25758C30.7482 0.846944 31.0961 0.534687 31.5039 0.320812C31.9117 0.106937 32.3694 0 32.877 0C33.3988 0 33.8622 0.10266 34.2672 0.30798C34.6721 0.513299 35 0.79704 35.251 1.1592C35.5048 1.52136 35.6659 1.93343 35.7343 2.3954H34.4297C34.3413 2.03038 34.1659 1.73238 33.9036 1.5014C33.6412 1.27042 33.299 1.15492 32.877 1.15492C32.2354 1.15492 31.7349 1.43439 31.3756 1.99331C31.0191 2.55224 30.8395 3.32932 30.8366 4.32455H30.9008C31.0519 4.07645 31.2373 3.86543 31.4569 3.69148C31.6793 3.51467 31.9274 3.37922 32.2011 3.28511C32.4778 3.18816 32.7686 3.13968 33.0738 3.13968C33.5813 3.13968 34.0405 3.26373 34.4511 3.51182C34.8646 3.75706 35.194 4.09641 35.4392 4.52986C35.6844 4.96332 35.8071 5.45951 35.8071 6.01843C35.8071 6.57736 35.6802 7.08353 35.4264 7.53694C35.1754 7.99036 34.8218 8.34966 34.3656 8.61487C33.9093 8.87722 33.376 9.00555 32.7658 8.99984ZM32.7615 7.8877C33.098 7.8877 33.3988 7.805 33.664 7.6396C33.9292 7.4742 34.1388 7.25178 34.2928 6.97231C34.4468 6.69285 34.5238 6.38059 34.5238 6.03554C34.5238 5.69905 34.4483 5.39249 34.2971 5.11588C34.1488 4.83927 33.9435 4.61969 33.6812 4.45715C33.4217 4.2946 33.1251 4.21333 32.7914 4.21333C32.5376 4.21333 32.3024 4.26181 32.0856 4.35877C31.8718 4.45572 31.6836 4.58975 31.521 4.76085C31.3585 4.93195 31.2302 5.12871 31.136 5.35114C31.0448 5.57072 30.9992 5.80313 30.9992 6.04837C30.9992 6.37632 31.0747 6.68002 31.2259 6.95948C31.3799 7.23894 31.5895 7.46422 31.8547 7.63532C32.1227 7.80357 32.425 7.8877 32.7615 7.8877Z" fill="black"/>
<path opacity="0.4" d="M23.2151 8.88014L27.0392 1.31753V1.25337H22.6163V0.119837H28.408V1.29187L24.5968 8.88014H23.2151Z" fill="black"/>
<path opacity="0.4" d="M15.5327 8.88007V7.92192L18.497 4.85068C18.8135 4.51703 19.0744 4.22474 19.2798 3.97379C19.4879 3.71999 19.6433 3.47903 19.746 3.25089C19.8487 3.02276 19.9 2.78037 19.9 2.52372C19.9 2.23285 19.8315 1.9819 19.6947 1.77088C19.5578 1.55701 19.371 1.39304 19.1343 1.27897C18.8976 1.16205 18.631 1.10359 18.3344 1.10359C18.0207 1.10359 17.747 1.16776 17.5131 1.29608C17.2793 1.42441 17.0997 1.60549 16.9742 1.83932C16.8487 2.07316 16.786 2.34692 16.786 2.6606H15.5241C15.5241 2.12734 15.6467 1.66109 15.892 1.26186C16.1372 0.862628 16.4737 0.553222 16.9015 0.333645C17.3292 0.111215 17.8154 0 18.3601 0C18.9105 0 19.3952 0.109789 19.8144 0.329367C20.2365 0.546093 20.5659 0.842666 20.8025 1.21908C21.0392 1.59265 21.1576 2.0147 21.1576 2.48522C21.1576 2.81031 21.0963 3.12827 20.9736 3.4391C20.8539 3.74993 20.6443 4.09641 20.3448 4.47853C20.0454 4.85781 19.6291 5.31835 19.0958 5.86016L17.3549 7.68238V7.74654H21.2987V8.88007H15.5327Z" fill="black"/>
<path opacity="0.4" d="M10.819 8.99984C10.2316 8.99984 9.70688 8.89861 9.24491 8.69614C8.78579 8.49367 8.4222 8.21279 8.15415 7.85348C7.88894 7.49132 7.74636 7.07212 7.7264 6.59589H9.06953C9.08664 6.8554 9.17362 7.08068 9.33046 7.27174C9.49015 7.45995 9.69832 7.60538 9.95497 7.70804C10.2116 7.8107 10.4968 7.86203 10.8105 7.86203C11.1555 7.86203 11.4606 7.80215 11.7259 7.68238C11.9939 7.56261 12.2035 7.39578 12.3546 7.18191C12.5058 6.96518 12.5814 6.71566 12.5814 6.43335C12.5814 6.13963 12.5058 5.88155 12.3546 5.65912C12.2064 5.43384 11.9882 5.25704 11.7002 5.12871C11.415 5.00039 11.07 4.93623 10.665 4.93623H9.92503V3.8583H10.665C10.9901 3.8583 11.2753 3.79984 11.5205 3.68292C11.7686 3.566 11.9625 3.40346 12.1023 3.19529C12.242 2.98426 12.3119 2.7376 12.3119 2.45528C12.3119 2.18437 12.2506 1.94911 12.1279 1.74949C12.0082 1.54703 11.8371 1.38876 11.6146 1.27469C11.3951 1.16063 11.1356 1.10359 10.8361 1.10359C10.551 1.10359 10.2843 1.15635 10.0362 1.26186C9.791 1.36452 9.59139 1.51281 9.4374 1.70672C9.28341 1.89778 9.20071 2.12734 9.1893 2.3954H7.91033C7.92459 1.92202 8.06432 1.50568 8.32953 1.14637C8.59758 0.787058 8.95119 0.50617 9.39034 0.303702C9.8295 0.101234 10.3171 0 10.8532 0C11.415 0 11.8998 0.109789 12.3076 0.329367C12.7182 0.546093 13.0348 0.835537 13.2572 1.1977C13.4825 1.55986 13.5937 1.95624 13.5908 2.38684C13.5937 2.87733 13.4568 3.29367 13.1802 3.63587C12.9064 3.97807 12.5414 4.20763 12.0852 4.32455V4.39299C12.6669 4.48139 13.1175 4.71237 13.4369 5.08594C13.7591 5.45951 13.9188 5.9229 13.9159 6.47612C13.9188 6.95806 13.7848 7.39008 13.5138 7.7722C13.2458 8.15433 12.8794 8.45518 12.4145 8.67476C11.9497 8.89148 11.4179 8.99984 10.819 8.99984Z" fill="black"/>
<path opacity="0.4" d="M3.11837 8.99984C2.50526 8.99984 1.96345 8.89433 1.49292 8.68331C1.02525 8.47229 0.658812 8.18142 0.393607 7.8107C0.128403 7.43999 -0.00277389 7.01794 7.77724e-05 6.54456C-0.00277389 6.17385 0.0727952 5.83307 0.226785 5.52224C0.383626 5.20856 0.596075 4.94763 0.864131 4.73946C1.13219 4.52844 1.43161 4.39441 1.7624 4.33738V4.28605C1.3261 4.18054 0.976772 3.9467 0.714419 3.58454C0.452066 3.22238 0.322316 2.80604 0.325167 2.33551C0.322316 1.8878 0.44066 1.48857 0.680199 1.13781C0.92259 0.784207 1.25481 0.50617 1.67685 0.303702C2.0989 0.101234 2.57941 0 3.11837 0C3.65163 0 4.12786 0.10266 4.54705 0.30798C4.9691 0.510447 5.30132 0.788484 5.54371 1.14209C5.7861 1.49284 5.90872 1.89065 5.91157 2.33551C5.90872 2.80604 5.77469 3.22238 5.50949 3.58454C5.24428 3.9467 4.89923 4.18054 4.47434 4.28605V4.33738C4.80228 4.39441 5.09742 4.52844 5.35978 4.73946C5.62498 4.94763 5.836 5.20856 5.99284 5.52224C6.15254 5.83307 6.23381 6.17385 6.23666 6.54456C6.23381 7.01794 6.09978 7.43999 5.83458 7.8107C5.56937 8.18142 5.20151 8.47229 4.73098 8.68331C4.26331 8.89433 3.72577 8.99984 3.11837 8.99984ZM3.11837 7.91764C3.48053 7.91764 3.79421 7.85775 4.05942 7.73798C4.32462 7.61536 4.52994 7.44569 4.67538 7.22896C4.82081 7.00938 4.89496 6.75273 4.89781 6.45901C4.89496 6.15389 4.81511 5.8844 4.65827 5.65057C4.50428 5.41673 4.29468 5.2328 4.02948 5.09877C3.76427 4.96474 3.46057 4.89773 3.11837 4.89773C2.77332 4.89773 2.46676 4.96474 2.19871 5.09877C1.93065 5.2328 1.71963 5.41673 1.56564 5.65057C1.41165 5.8844 1.33608 6.15389 1.33893 6.45901C1.33608 6.75273 1.40595 7.00938 1.54853 7.22896C1.69396 7.44569 1.90071 7.61536 2.16877 7.73798C2.43682 7.85775 2.75336 7.91764 3.11837 7.91764ZM3.11837 3.84119C3.40924 3.84119 3.66731 3.78273 3.8926 3.66581C4.11788 3.54889 4.29468 3.38635 4.423 3.17818C4.55418 2.97001 4.6212 2.72619 4.62405 2.44673C4.6212 2.17297 4.55561 1.93343 4.42728 1.72811C4.30181 1.52279 4.12643 1.36452 3.90115 1.25331C3.67587 1.13924 3.41494 1.08221 3.11837 1.08221C2.81609 1.08221 2.55089 1.13924 2.32276 1.25331C2.09748 1.36452 1.9221 1.52279 1.79662 1.72811C1.67115 1.93343 1.60984 2.17297 1.61269 2.44673C1.60984 2.72619 1.67258 2.97001 1.8009 3.17818C1.92923 3.38635 2.10603 3.54889 2.33131 3.66581C2.55944 3.78273 2.8218 3.84119 3.11837 3.84119Z" fill="black"/>
</svg>
