<svg width="65" height="15" viewBox="0 0 65 15" fill="none" xmlns="http://www.w3.org/2000/svg">
<path d="M60.7625 12.081C60.1997 12.0771 59.6504 11.9795 59.1145 11.7881C58.5786 11.5929 58.0963 11.2771 57.6676 10.8407C57.2388 10.4005 56.8982 9.81674 56.6455 9.08943C56.3929 8.3583 56.2685 7.45299 56.2723 6.37351C56.2723 5.36677 56.3795 4.46911 56.5938 3.68056C56.8082 2.89201 57.1163 2.22594 57.5183 1.68238C57.9202 1.13498 58.4044 0.717738 58.971 0.430642C59.5413 0.143547 60.1787 0 60.883 0C61.6218 0 62.2764 0.145461 62.8468 0.436384C63.421 0.727307 63.8841 1.12541 64.2363 1.6307C64.5885 2.13216 64.8067 2.69869 64.8909 3.3303H62.7951C62.6879 2.87861 62.4678 2.51878 62.1348 2.25083C61.8056 1.97904 61.3883 1.84315 60.883 1.84315C60.0677 1.84315 59.4399 2.19724 58.9997 2.9054C58.5633 3.61357 58.3432 4.58587 58.3394 5.82229H58.4198C58.6073 5.48543 58.8504 5.19642 59.149 4.95526C59.4476 4.7141 59.7844 4.52845 60.1596 4.3983C60.5385 4.26432 60.9385 4.19733 61.3596 4.19733C62.0486 4.19733 62.6668 4.36193 63.2142 4.69113C63.7655 5.02034 64.2018 5.47395 64.5234 6.05197C64.8449 6.62616 65.0038 7.28456 65 8.02718C65.0038 8.80042 64.8277 9.49519 64.4717 10.1115C64.1157 10.724 63.62 11.2063 62.9846 11.5585C62.3491 11.9106 61.6084 12.0848 60.7625 12.081ZM60.751 10.3584C61.1682 10.3584 61.5414 10.257 61.8706 10.0541C62.1998 9.85119 62.4601 9.57749 62.6515 9.23298C62.8429 8.88847 62.9367 8.50184 62.9329 8.07312C62.9367 7.65204 62.8448 7.27116 62.6573 6.93048C62.4735 6.58979 62.219 6.31992 61.8936 6.12087C61.5682 5.92182 61.1969 5.82229 60.7797 5.82229C60.4696 5.82229 60.1806 5.88162 59.9126 6.00029C59.6447 6.11896 59.4112 6.28356 59.2121 6.49409C59.0131 6.7008 58.8561 6.94196 58.7413 7.21757C58.6303 7.48936 58.5729 7.78028 58.569 8.09034C58.5729 8.49993 58.6686 8.87698 58.8561 9.2215C59.0437 9.56601 59.3021 9.84162 59.6313 10.0483C59.9605 10.255 60.3337 10.3584 60.751 10.3584Z" fill="white"/>
<path d="M50.2777 12.081C49.715 12.0771 49.1657 11.9795 48.6298 11.7881C48.0939 11.5929 47.6116 11.2771 47.1829 10.8407C46.7541 10.4005 46.4134 9.81674 46.1608 9.08943C45.9081 8.3583 45.7837 7.45299 45.7876 6.37351C45.7876 5.36677 45.8948 4.46911 46.1091 3.68056C46.3235 2.89201 46.6316 2.22594 47.0336 1.68238C47.4355 1.13498 47.9197 0.717738 48.4863 0.430642C49.0566 0.143547 49.694 0 50.3983 0C51.1371 0 51.7917 0.145461 52.362 0.436384C52.9362 0.727307 53.3994 1.12541 53.7516 1.6307C54.1038 2.13216 54.322 2.69869 54.4062 3.3303H52.3104C52.2032 2.87861 51.9831 2.51878 51.65 2.25083C51.3208 1.97904 50.9036 1.84315 50.3983 1.84315C49.583 1.84315 48.9552 2.19724 48.515 2.9054C48.0786 3.61357 47.8585 4.58587 47.8547 5.82229H47.935C48.1226 5.48543 48.3657 5.19642 48.6643 4.95526C48.9628 4.7141 49.2997 4.52845 49.6748 4.3983C50.0538 4.26432 50.4538 4.19733 50.8749 4.19733C51.5639 4.19733 52.1821 4.36193 52.7295 4.69113C53.2808 5.02034 53.7171 5.47395 54.0387 6.05197C54.3602 6.62616 54.5191 7.28456 54.5153 8.02718C54.5191 8.80042 54.343 9.49519 53.987 10.1115C53.631 10.724 53.1353 11.2063 52.4999 11.5585C51.8644 11.9106 51.1237 12.0848 50.2777 12.081ZM50.2663 10.3584C50.6835 10.3584 51.0567 10.257 51.3859 10.0541C51.7151 9.85119 51.9754 9.57749 52.1668 9.23298C52.3582 8.88847 52.452 8.50184 52.4482 8.07312C52.452 7.65204 52.3601 7.27116 52.1726 6.93048C51.9888 6.58979 51.7343 6.31992 51.4089 6.12087C51.0835 5.92182 50.7122 5.82229 50.295 5.82229C49.9849 5.82229 49.6959 5.88162 49.4279 6.00029C49.16 6.11896 48.9265 6.28356 48.7274 6.49409C48.5284 6.7008 48.3714 6.94196 48.2566 7.21757C48.1456 7.48936 48.0882 7.78028 48.0843 8.09034C48.0882 8.49993 48.1839 8.87698 48.3714 9.2215C48.559 9.56601 48.8174 9.84162 49.1466 10.0483C49.4758 10.255 49.849 10.3584 50.2663 10.3584Z" fill="white"/>
<path d="M43.0428 12.0466C42.6944 12.0466 42.3959 11.9241 42.147 11.6791C41.8982 11.4341 41.7757 11.1355 41.7796 10.7834C41.7757 10.4388 41.8982 10.1441 42.147 9.89911C42.3959 9.65412 42.6944 9.53163 43.0428 9.53163C43.3796 9.53163 43.6725 9.65412 43.9213 9.89911C44.1739 10.1441 44.3022 10.4388 44.306 10.7834C44.3022 11.0169 44.2409 11.2293 44.1223 11.4207C44.0074 11.6121 43.8543 11.7652 43.6629 11.8801C43.4753 11.9911 43.2686 12.0466 43.0428 12.0466Z" fill="white"/>
<path d="M35.9903 12.0811C35.2247 12.0811 34.5396 11.9375 33.9347 11.6504C33.3299 11.3595 32.8495 10.9614 32.4935 10.4561C32.1413 9.95081 31.9538 9.37279 31.9308 8.72204H33.9979C34.0362 9.20436 34.2448 9.59864 34.6238 9.90487C35.0027 10.2073 35.4583 10.3585 35.9903 10.3585C36.4076 10.3585 36.7789 10.2628 37.1043 10.0714C37.4296 9.87999 37.6861 9.61395 37.8737 9.27326C38.0613 8.93258 38.1531 8.54404 38.1493 8.10766C38.1531 7.66362 38.0593 7.26934 37.8679 6.92482C37.6765 6.58031 37.4143 6.31044 37.0813 6.11522C36.7483 5.91616 36.3655 5.81664 35.9329 5.81664C35.5807 5.81281 35.2343 5.87788 34.8936 6.01186C34.5529 6.14584 34.2831 6.32192 34.084 6.54012L32.1605 6.22431L32.7749 0.160863H39.5963V1.94085H34.5376L34.1989 5.05871H34.2678C34.486 4.80223 34.7941 4.58978 35.1922 4.42135C35.5903 4.2491 36.0267 4.16297 36.5014 4.16297C37.2134 4.16297 37.8488 4.3314 38.4077 4.66826C38.9666 5.00129 39.4068 5.46064 39.7283 6.04631C40.0499 6.63199 40.2106 7.30188 40.2106 8.05598C40.2106 8.83305 40.0307 9.52591 39.6709 10.1345C39.3149 10.7394 38.8192 11.2159 38.1837 11.5643C37.5521 11.9088 36.821 12.0811 35.9903 12.0811Z" fill="white"/>
<path d="M25.5902 12.081C24.7634 12.081 24.0285 11.9393 23.3854 11.6561C22.7461 11.3728 22.2408 10.9785 21.8695 10.4732C21.4982 9.96794 21.301 9.38418 21.2781 8.72195H23.437C23.4562 9.03967 23.5614 9.3172 23.7528 9.55453C23.9442 9.78803 24.1988 9.96986 24.5165 10.1C24.8342 10.2302 25.1902 10.2952 25.5845 10.2952C26.0056 10.2952 26.3788 10.2225 26.7042 10.077C27.0296 9.92775 27.2841 9.72104 27.4679 9.45691C27.6516 9.19279 27.7415 8.88847 27.7377 8.54395C27.7415 8.18795 27.6497 7.87406 27.4621 7.60228C27.2745 7.3305 27.0028 7.11805 26.6468 6.96493C26.2946 6.81181 25.8697 6.73525 25.3721 6.73525H24.3328V5.09307H25.3721C25.7816 5.09307 26.1396 5.02225 26.4458 4.88062C26.7559 4.73898 26.9989 4.53993 27.175 4.28346C27.3511 4.02316 27.4372 3.72267 27.4334 3.38198C27.4372 3.04895 27.3626 2.75994 27.2095 2.51495C27.0602 2.26614 26.8477 2.07283 26.5721 1.93502C26.3003 1.79722 25.9807 1.72831 25.6132 1.72831C25.2534 1.72831 24.9204 1.79339 24.6141 1.92354C24.3079 2.05369 24.061 2.23934 23.8734 2.4805C23.6859 2.71783 23.5863 3.0011 23.5748 3.3303H21.525C21.5403 2.6719 21.7298 2.09388 22.0934 1.59625C22.4609 1.09479 22.9509 0.70434 23.5634 0.424901C24.1758 0.141634 24.8629 0 25.6247 0C26.4094 0 27.0908 0.147376 27.6688 0.442127C28.2507 0.733049 28.7004 1.12541 29.0182 1.61922C29.3359 2.11302 29.4947 2.6585 29.4947 3.25566C29.4986 3.91789 29.3033 4.47294 28.9091 4.92081C28.5186 5.36868 28.0057 5.66152 27.3702 5.79932V5.89119C28.1971 6.00603 28.8306 6.31227 29.2708 6.8099C29.7148 7.3037 29.935 7.91808 29.9311 8.65305C29.9311 9.31145 29.7436 9.90095 29.3684 10.4216C28.9971 10.9383 28.4842 11.3441 27.8296 11.6388C27.1788 11.9336 26.4324 12.081 25.5902 12.081Z" fill="white"/>
<path d="M18.3843 0.160863V11.9203H16.254V2.23369H16.1851L13.4348 3.99071V2.03847L16.3574 0.160863H18.3843Z" fill="white"/>
<path d="M12.7487 10.3125L12.674 10.9441C12.6204 11.4264 12.5247 11.9164 12.3869 12.414C12.2529 12.9155 12.1113 13.3768 11.962 13.7978C11.8127 14.2189 11.6922 14.55 11.6003 14.7912H10.1993C10.2528 14.5577 10.3256 14.24 10.4174 13.838C10.5131 13.4361 10.605 12.9844 10.6931 12.4829C10.7811 11.9815 10.8404 11.4724 10.8711 10.9556L10.9113 10.3125H12.7487Z" fill="white"/>
<path d="M4.37543 12.081C3.5218 12.081 2.76387 11.9374 2.10164 11.6503C1.44323 11.3632 0.926459 10.9709 0.551322 10.4732C0.180012 9.97177 -0.00372893 9.40332 9.89981e-05 8.76789C-0.00372893 8.27408 0.103453 7.82047 0.321646 7.40706C0.539838 6.99364 0.834589 6.64912 1.2059 6.37351C1.58104 6.09407 1.99828 5.91607 2.45763 5.83952V5.75913C1.85282 5.62515 1.36284 5.317 0.987706 4.83468C0.616397 4.34853 0.432656 3.78774 0.436484 3.1523C0.432656 2.54749 0.601085 2.00775 0.941771 1.53309C1.28246 1.05842 1.74947 0.6852 2.3428 0.413417C2.93613 0.137806 3.61367 0 4.37543 0C5.12953 0 5.80133 0.137806 6.39084 0.413417C6.98417 0.6852 7.45118 1.05842 7.79186 1.53309C8.13638 2.00775 8.30863 2.54749 8.30863 3.1523C8.30863 3.78774 8.11915 4.34853 7.74018 4.83468C7.36505 5.317 6.88081 5.62515 6.28748 5.75913V5.83952C6.74683 5.91607 7.16025 6.09407 7.52773 6.37351C7.89904 6.64912 8.1938 6.99364 8.41199 7.40706C8.63401 7.82047 8.74502 8.27408 8.74502 8.76789C8.74502 9.40332 8.55745 9.97177 8.18231 10.4732C7.80717 10.9709 7.2904 11.3632 6.632 11.6503C5.97742 11.9374 5.22523 12.081 4.37543 12.081ZM4.37543 10.4388C4.81564 10.4388 5.19844 10.3641 5.52381 10.2148C5.84918 10.0617 6.10183 9.84736 6.28174 9.57175C6.46165 9.29614 6.55352 8.97842 6.55735 8.6186C6.55352 8.24346 6.45591 7.91234 6.26452 7.62525C6.07695 7.33432 5.81856 7.10656 5.48936 6.94196C5.16398 6.77736 4.79267 6.69506 4.37543 6.69506C3.95436 6.69506 3.57922 6.77736 3.25002 6.94196C2.92081 7.10656 2.66051 7.33432 2.46912 7.62525C2.28155 7.91234 2.18968 8.24346 2.19351 8.6186C2.18968 8.97842 2.27772 9.29614 2.45763 9.57175C2.63755 9.84354 2.89019 10.056 3.21556 10.2091C3.54477 10.3622 3.93139 10.4388 4.37543 10.4388ZM4.37543 5.08158C4.73525 5.08158 5.05297 5.00885 5.32858 4.86339C5.60802 4.71793 5.82813 4.51505 5.9889 4.25475C6.14968 3.99445 6.23198 3.69396 6.23581 3.35327C6.23198 3.01641 6.15159 2.72166 5.99465 2.46902C5.8377 2.21255 5.61951 2.01541 5.34007 1.8776C5.06063 1.73597 4.73908 1.66515 4.37543 1.66515C4.00412 1.66515 3.67683 1.73597 3.39356 1.8776C3.11412 2.01541 2.89593 2.21255 2.73899 2.46902C2.58587 2.72166 2.51122 3.01641 2.51505 3.35327C2.51122 3.69396 2.58778 3.99445 2.74473 4.25475C2.9055 4.51122 3.12561 4.7141 3.40505 4.86339C3.68831 5.00885 4.01178 5.08158 4.37543 5.08158Z" fill="white"/>
</svg>
