<svg width="56" height="9" viewBox="0 0 56 9" fill="none" xmlns="http://www.w3.org/2000/svg">
<path d="M53.1626 5.52972L56.0001 8.60181H54.2797L52.0008 5.95423V8.60181H50.7273V0.335093H52.0008V5.13873L54.235 2.44646H56.0001L53.1626 5.52972Z" fill="#979797"/>
<path d="M49.474 5.37343C49.474 5.6043 49.4591 5.81283 49.4294 5.99901H44.7263C44.7635 6.49055 44.946 6.88527 45.2737 7.18317C45.6013 7.48107 46.0035 7.63002 46.4801 7.63002C47.1653 7.63002 47.6494 7.34329 47.9324 6.76983H49.3065C49.1203 7.33584 48.7814 7.80131 48.2899 8.16624C47.8058 8.52371 47.2026 8.70245 46.4801 8.70245C45.8918 8.70245 45.363 8.57212 44.8938 8.31146C44.4321 8.04335 44.0672 7.67098 43.799 7.19434C43.5384 6.71025 43.4081 6.15169 43.4081 5.51865C43.4081 4.88561 43.5347 4.33078 43.7879 3.85414C44.0485 3.37005 44.4097 2.99767 44.8715 2.73701C45.3407 2.47635 45.8769 2.34602 46.4801 2.34602C47.0611 2.34602 47.5787 2.47263 48.0329 2.72584C48.4872 2.97906 48.841 3.33654 49.0942 3.79828C49.3474 4.25258 49.474 4.77763 49.474 5.37343ZM48.1447 4.97126C48.1372 4.50207 47.9696 4.12597 47.642 3.84297C47.3143 3.55996 46.9084 3.41846 46.4243 3.41846C45.9849 3.41846 45.6088 3.55996 45.296 3.84297C44.9832 4.11852 44.797 4.49462 44.7374 4.97126H48.1447Z" fill="#979797"/>
<path d="M42.5793 5.37343C42.5793 5.6043 42.5644 5.81283 42.5346 5.99901H37.8315C37.8688 6.49055 38.0512 6.88527 38.3789 7.18317C38.7066 7.48107 39.1088 7.63002 39.5854 7.63002C40.2706 7.63002 40.7547 7.34329 41.0377 6.76983H42.4117C42.2255 7.33584 41.8867 7.80131 41.3951 8.16624C40.9111 8.52371 40.3078 8.70245 39.5854 8.70245C38.997 8.70245 38.4683 8.57212 37.9991 8.31146C37.5373 8.04335 37.1724 7.67098 36.9043 7.19434C36.6436 6.71025 36.5133 6.15169 36.5133 5.51865C36.5133 4.88561 36.6399 4.33078 36.8931 3.85414C37.1538 3.37005 37.515 2.99767 37.9767 2.73701C38.4459 2.47635 38.9822 2.34602 39.5854 2.34602C40.1663 2.34602 40.6839 2.47263 41.1382 2.72584C41.5925 2.97906 41.9463 3.33654 42.1995 3.79828C42.4527 4.25258 42.5793 4.77763 42.5793 5.37343ZM41.2499 4.97126C41.2425 4.50207 41.0749 4.12597 40.7472 3.84297C40.4195 3.55996 40.0136 3.41846 39.5295 3.41846C39.0901 3.41846 38.714 3.55996 38.4012 3.84297C38.0885 4.11852 37.9023 4.49462 37.8427 4.97126H41.2499Z" fill="#979797"/>
<path d="M35.8875 0.837793L33.5862 8.6018H32.1451L30.5141 2.72573L28.7826 8.6018L27.3526 8.61298L25.1519 0.837793H26.5036L28.1123 7.16072L29.855 0.837793H31.2849L32.9047 7.1272L34.5246 0.837793H35.8875Z" fill="#979797"/>
<path d="M19.1423 8.70245C18.6582 8.70245 18.2225 8.61681 17.8352 8.44552C17.4554 8.26678 17.1538 8.02846 16.9304 7.73056C16.7069 7.42521 16.5878 7.08635 16.5729 6.71397H17.8911C17.9134 6.97464 18.0363 7.19434 18.2597 7.37308C18.4906 7.54437 18.7773 7.63002 19.1199 7.63002C19.4774 7.63002 19.753 7.56299 19.9466 7.42893C20.1477 7.28743 20.2482 7.10869 20.2482 6.89271C20.2482 6.66184 20.1365 6.49055 19.9131 6.37884C19.6971 6.26712 19.3508 6.14424 18.8742 6.01019C18.4124 5.88358 18.0363 5.76069 17.7459 5.64153C17.4554 5.52238 17.2022 5.33991 16.9862 5.09414C16.7777 4.84838 16.6734 4.52441 16.6734 4.12225C16.6734 3.79456 16.7702 3.49666 16.9639 3.22855C17.1575 2.95299 17.4331 2.73701 17.7906 2.58062C18.1555 2.42422 18.5725 2.34602 19.0417 2.34602C19.7418 2.34602 20.3041 2.52476 20.7286 2.88224C21.1605 3.23227 21.3914 3.71263 21.4212 4.32333H20.1477C20.1253 4.04777 20.0136 3.82807 19.8125 3.66423C19.6115 3.50038 19.3396 3.41846 18.997 3.41846C18.6619 3.41846 18.405 3.48176 18.2262 3.60837C18.0475 3.73498 17.9581 3.90255 17.9581 4.11108C17.9581 4.27492 18.0177 4.4127 18.1369 4.52441C18.256 4.63612 18.4012 4.72549 18.5725 4.79252C18.7438 4.8521 18.997 4.9303 19.3322 5.02712C19.779 5.14628 20.144 5.26916 20.427 5.39577C20.7174 5.51493 20.9669 5.69367 21.1754 5.93199C21.384 6.17031 21.492 6.48683 21.4994 6.88154C21.4994 7.23157 21.4026 7.54437 21.2089 7.81993C21.0153 8.09548 20.7398 8.31146 20.3823 8.46786C20.0322 8.62426 19.6189 8.70245 19.1423 8.70245Z" fill="#979797"/>
<path d="M14.6105 1.631C14.3796 1.631 14.1859 1.5528 14.0295 1.39641C13.8732 1.24001 13.795 1.04637 13.795 0.815501C13.795 0.584628 13.8732 0.390994 14.0295 0.234596C14.1859 0.0781989 14.3796 0 14.6105 0C14.8339 0 15.0238 0.0781989 15.1802 0.234596C15.3366 0.390994 15.4148 0.584628 15.4148 0.815501C15.4148 1.04637 15.3366 1.24001 15.1802 1.39641C15.0238 1.5528 14.8339 1.631 14.6105 1.631ZM15.236 2.4465V8.60185H13.9625V2.4465H15.236Z" fill="#979797"/>
<path d="M9.8916 2.34592C10.3608 2.34592 10.7779 2.44646 11.1428 2.64754C11.5152 2.84862 11.8056 3.14652 12.0141 3.54124C12.2301 3.93595 12.3381 4.4126 12.3381 4.97116V8.60181H11.0758V5.16107C11.0758 4.60995 10.938 4.18917 10.6624 3.89872C10.3869 3.60082 10.0108 3.45187 9.53412 3.45187C9.05749 3.45187 8.67766 3.60082 8.39466 3.89872C8.1191 4.18917 7.98132 4.60995 7.98132 5.16107V8.60181H6.7078V0.335093H7.98132V3.16142C8.1973 2.90075 8.46913 2.69967 8.79682 2.55817C9.13196 2.41667 9.49689 2.34592 9.8916 2.34592Z" fill="#979797"/>
<path d="M5.41805 0.837793V1.87672H3.35137V8.6018H2.07785V1.87672H0V0.837793H5.41805Z" fill="#979797"/>
</svg>
