<svg width="39" height="10" viewBox="0 0 39 10" fill="none" xmlns="http://www.w3.org/2000/svg">
<path d="M33.2279 4.12922C33.2279 2.849 33.4425 1.84998 33.8717 1.13217C34.3083 0.406952 35.0558 0.0443456 36.114 0.0443456C37.1722 0.0443456 37.9159 0.406952 38.3451 1.13217C38.7817 1.84998 39 2.849 39 4.12922C39 5.42424 38.7817 6.43806 38.3451 7.17067C37.9159 7.89589 37.1722 8.25849 36.114 8.25849C35.0558 8.25849 34.3083 7.89589 33.8717 7.17067C33.4425 6.43806 33.2279 5.42424 33.2279 4.12922ZM37.7568 4.12922C37.7568 3.52981 37.7161 3.0229 37.6347 2.60849C37.5607 2.19408 37.4053 1.85738 37.1685 1.59837C36.9317 1.33197 36.5802 1.19877 36.114 1.19877C35.6478 1.19877 35.2963 1.33197 35.0595 1.59837C34.8227 1.85738 34.6636 2.19408 34.5821 2.60849C34.5081 3.0229 34.4711 3.52981 34.4711 4.12922C34.4711 4.75083 34.5081 5.27254 34.5821 5.69435C34.6561 6.11616 34.8116 6.45656 35.0484 6.71557C35.2926 6.97457 35.6478 7.10407 36.114 7.10407C36.5802 7.10407 36.9317 6.97457 37.1685 6.71557C37.4127 6.45656 37.5718 6.11616 37.6458 5.69435C37.7198 5.27254 37.7568 4.75083 37.7568 4.12922Z" fill="black"/>
<path d="M31.2275 8.35845C30.9981 8.35845 30.8057 8.28075 30.6503 8.12535C30.4949 7.96995 30.4172 7.77754 30.4172 7.54814C30.4172 7.31873 30.4949 7.12633 30.6503 6.97093C30.8057 6.81553 30.9981 6.73782 31.2275 6.73782C31.4495 6.73782 31.6382 6.81553 31.7936 6.97093C31.949 7.12633 32.0267 7.31873 32.0267 7.54814C32.0267 7.77754 31.949 7.96995 31.7936 8.12535C31.6382 8.28075 31.4495 8.35845 31.2275 8.35845Z" fill="black"/>
<path d="M23.4394 4.12922C23.4394 2.849 23.654 1.84998 24.0832 1.13217C24.5198 0.406952 25.2672 0.0443456 26.3254 0.0443456C27.3836 0.0443456 28.1274 0.406952 28.5566 1.13217C28.9932 1.84998 29.2115 2.849 29.2115 4.12922C29.2115 5.42424 28.9932 6.43806 28.5566 7.17067C28.1274 7.89589 27.3836 8.25849 26.3254 8.25849C25.2672 8.25849 24.5198 7.89589 24.0832 7.17067C23.654 6.43806 23.4394 5.42424 23.4394 4.12922ZM27.9683 4.12922C27.9683 3.52981 27.9276 3.0229 27.8461 2.60849C27.7721 2.19408 27.6167 1.85738 27.3799 1.59837C27.1431 1.33197 26.7916 1.19877 26.3254 1.19877C25.8592 1.19877 25.5077 1.33197 25.2709 1.59837C25.0341 1.85738 24.875 2.19408 24.7936 2.60849C24.7196 3.0229 24.6826 3.52981 24.6826 4.12922C24.6826 4.75083 24.7196 5.27254 24.7936 5.69435C24.8676 6.11616 25.023 6.45656 25.2598 6.71557C25.504 6.97457 25.8592 7.10407 26.3254 7.10407C26.7916 7.10407 27.1431 6.97457 27.3799 6.71557C27.6241 6.45656 27.7832 6.11616 27.8572 5.69435C27.9313 5.27254 27.9683 4.75083 27.9683 4.12922Z" fill="black"/>
<path d="M16.3283 4.12922C16.3283 2.849 16.5429 1.84998 16.9721 1.13217C17.4087 0.406952 18.1561 0.0443456 19.2144 0.0443456C20.2726 0.0443456 21.0163 0.406952 21.4455 1.13217C21.8821 1.84998 22.1004 2.849 22.1004 4.12922C22.1004 5.42424 21.8821 6.43806 21.4455 7.17067C21.0163 7.89589 20.2726 8.25849 19.2144 8.25849C18.1561 8.25849 17.4087 7.89589 16.9721 7.17067C16.5429 6.43806 16.3283 5.42424 16.3283 4.12922ZM20.8572 4.12922C20.8572 3.52981 20.8165 3.0229 20.7351 2.60849C20.6611 2.19408 20.5057 1.85738 20.2689 1.59837C20.0321 1.33197 19.6806 1.19877 19.2144 1.19877C18.7481 1.19877 18.3966 1.33197 18.1598 1.59837C17.923 1.85738 17.7639 2.19408 17.6825 2.60849C17.6085 3.0229 17.5715 3.52981 17.5715 4.12922C17.5715 4.75083 17.6085 5.27254 17.6825 5.69435C17.7565 6.11616 17.9119 6.45656 18.1487 6.71557C18.3929 6.97457 18.7481 7.10407 19.2144 7.10407C19.6806 7.10407 20.0321 6.97457 20.2689 6.71557C20.5131 6.45656 20.6722 6.11616 20.7462 5.69435C20.8202 5.27254 20.8572 4.75083 20.8572 4.12922Z" fill="black"/>
<path d="M9.21724 4.12922C9.21724 2.849 9.43184 1.84998 9.86105 1.13217C10.2977 0.406952 11.0451 0.0443456 12.1033 0.0443456C13.1615 0.0443456 13.9052 0.406952 14.3344 1.13217C14.771 1.84998 14.9893 2.849 14.9893 4.12922C14.9893 5.42424 14.771 6.43806 14.3344 7.17067C13.9052 7.89589 13.1615 8.25849 12.1033 8.25849C11.0451 8.25849 10.2977 7.89589 9.86105 7.17067C9.43184 6.43806 9.21724 5.42424 9.21724 4.12922ZM13.7461 4.12922C13.7461 3.52981 13.7054 3.0229 13.624 2.60849C13.55 2.19408 13.3946 1.85738 13.1578 1.59837C12.921 1.33197 12.5695 1.19877 12.1033 1.19877C11.6371 1.19877 11.2856 1.33197 11.0488 1.59837C10.812 1.85738 10.6529 2.19408 10.5715 2.60849C10.4975 3.0229 10.4605 3.52981 10.4605 4.12922C10.4605 4.75083 10.4975 5.27254 10.5715 5.69435C10.6455 6.11616 10.8009 6.45656 11.0377 6.71557C11.2819 6.97457 11.6371 7.10407 12.1033 7.10407C12.5695 7.10407 12.921 6.97457 13.1578 6.71557C13.402 6.45656 13.5611 6.11616 13.6351 5.69435C13.7091 5.27254 13.7461 4.75083 13.7461 4.12922Z" fill="black"/>
<path d="M8.27808 6.76L6.93495 9.82365H6.11354L6.90165 6.76H8.27808Z" fill="black"/>
<path d="M0.111002 2.18674C0.155403 1.49853 0.418108 0.962018 0.899116 0.577211C1.38753 0.192404 2.00914 0 2.76395 0C3.28196 0 3.72967 0.0925018 4.10707 0.277505C4.48448 0.462509 4.76939 0.714113 4.96179 1.03232C5.15419 1.35052 5.2504 1.70943 5.2504 2.10904C5.2504 2.56785 5.12829 2.96005 4.88409 3.28566C4.63988 3.61127 4.34758 3.82957 4.00717 3.94057V3.98497C4.44378 4.11817 4.78419 4.36238 5.02839 4.71759C5.2726 5.06539 5.3947 5.5131 5.3947 6.06071C5.3947 6.49732 5.2948 6.88582 5.09499 7.22623C4.89519 7.56664 4.59918 7.83674 4.20698 8.03655C3.81477 8.22895 3.34486 8.32515 2.79725 8.32515C1.99804 8.32515 1.33942 8.12165 0.821415 7.71464C0.310806 7.30023 0.0370007 6.70822 0 5.93861H1.22102C1.25062 6.33081 1.40233 6.65272 1.67613 6.90432C1.94994 7.14853 2.31994 7.27063 2.78615 7.27063C3.23756 7.27063 3.58537 7.14853 3.82957 6.90432C4.07377 6.65272 4.19588 6.33081 4.19588 5.93861C4.19588 5.4206 4.02937 5.05429 3.69637 4.83969C3.37076 4.61768 2.86755 4.50668 2.18674 4.50668H1.89813V3.46326H2.19784C2.79725 3.45586 3.25236 3.35596 3.56316 3.16356C3.88137 2.97115 4.04047 2.66775 4.04047 2.25334C4.04047 1.89813 3.92577 1.61693 3.69637 1.40973C3.46696 1.19512 3.14136 1.08782 2.71955 1.08782C2.30514 1.08782 1.98324 1.19512 1.75383 1.40973C1.52443 1.61693 1.38753 1.87593 1.34312 2.18674H0.111002Z" fill="black"/>
</svg>
