<svg width="53" height="76" viewBox="0 0 53 76" fill="none" xmlns="http://www.w3.org/2000/svg">
<path d="M25.9639 73.6907C25.4483 75.0075 23.9585 75.6647 22.6779 75.0646C18.778 73.2371 15.1987 70.7798 12.0862 67.7862C8.35759 64.2002 5.37183 59.9149 3.29938 55.1749C1.22693 50.435 0.108376 45.3332 0.00757952 40.161C-0.093211 34.9888 0.825726 29.8473 2.71193 25.0302C4.59814 20.2131 7.41467 15.8147 11.0007 12.0861C14.5868 8.35754 18.8721 5.37178 23.6121 3.29933C28.352 1.22688 33.4537 0.108328 38.626 0.00753402C42.9436 -0.0766065 47.2398 0.549851 51.3437 1.85638C52.6913 2.28538 53.3387 3.77937 52.8231 5.09619C52.3075 6.413 50.8242 7.05266 49.4725 6.63677C45.9984 5.56778 42.3708 5.05667 38.7257 5.1277C34.2259 5.21539 29.7874 6.18854 25.6636 7.99157C21.5399 9.7946 17.8116 12.3922 14.6918 15.6361C11.5719 18.88 9.12154 22.7066 7.48054 26.8974C5.83954 31.0883 5.04006 35.5614 5.12775 40.0612C5.21544 44.5611 6.18859 48.9996 7.99162 53.1233C9.79465 57.2471 12.3923 60.9753 15.6361 64.0952C18.2638 66.6224 21.2739 68.7104 24.5503 70.2846C25.8249 70.8971 26.4795 72.3739 25.9639 73.6907Z" fill="#C0C0C0"/>
</svg>
