<svg width="103" height="9" viewBox="0 0 103 9" fill="none" xmlns="http://www.w3.org/2000/svg">
<path opacity="0.4" d="M96.5082 8.85507V7.97639L101.102 1.2541H96.4698V0.119498H102.714V0.998173L98.1205 7.72046H102.753V8.85507H96.5082Z" fill="black"/>
<path opacity="0.4" d="M93.4957 0.119498H94.8179V5.86501C94.8179 6.47639 94.6743 7.01809 94.3871 7.49013C94.0999 7.95933 93.6961 8.329 93.1758 8.59914C92.6554 8.86644 92.0454 9.00009 91.3459 9.00009C90.6492 9.00009 90.0407 8.86644 89.5203 8.59914C88.9999 8.329 88.5961 7.95933 88.3089 7.49013C88.0217 7.01809 87.8781 6.47639 87.8781 5.86501V0.119498H89.1961V5.75837C89.1961 6.15364 89.2829 6.50482 89.4563 6.81193C89.6326 7.11904 89.8814 7.36075 90.2028 7.53705C90.5241 7.71051 90.9051 7.79724 91.3459 7.79724C91.7895 7.79724 92.172 7.71051 92.4933 7.53705C92.8175 7.36075 93.0649 7.11904 93.2355 6.81193C93.4089 6.50482 93.4957 6.15364 93.4957 5.75837V0.119498Z" fill="black"/>
<path opacity="0.4" d="M80.1364 8.85507V0.119498H83.2501C83.9269 0.119498 84.4885 0.236086 84.935 0.469262C85.3843 0.702438 85.7198 1.02519 85.9416 1.43751C86.1634 1.84699 86.2743 2.32045 86.2743 2.85789C86.2743 3.39249 86.162 3.86311 85.9374 4.26975C85.7155 4.67354 85.38 4.98776 84.9307 5.2124C84.4843 5.43705 83.9226 5.54937 83.2459 5.54937H80.8871V4.41477H83.1264C83.553 4.41477 83.8999 4.35363 84.1672 4.23136C84.4373 4.10908 84.635 3.93136 84.7601 3.69818C84.8852 3.465 84.9478 3.18491 84.9478 2.85789C84.9478 2.52803 84.8838 2.24225 84.7558 2.00055C84.6307 1.75884 84.4331 1.574 84.1629 1.44604C83.8956 1.31524 83.5445 1.24983 83.1094 1.24983H81.4544V8.85507H80.1364ZM84.4487 4.91382L86.607 8.85507H85.1056L82.9899 4.91382H84.4487Z" fill="black"/>
<path opacity="0.4" d="M78.5593 2.9602H77.2284C77.1773 2.67584 77.082 2.4256 76.9427 2.20948C76.8033 1.99337 76.6327 1.80996 76.4308 1.65925C76.2289 1.50853 76.0028 1.39479 75.7526 1.31801C75.5052 1.24124 75.2422 1.20285 74.9635 1.20285C74.4602 1.20285 74.0095 1.32939 73.6114 1.58247C73.2161 1.83555 72.9033 2.20664 72.673 2.69574C72.4455 3.18484 72.3317 3.782 72.3317 4.48722C72.3317 5.19812 72.4455 5.79812 72.673 6.28722C72.9033 6.77632 73.2175 7.14599 73.6156 7.39623C74.0137 7.64646 74.4616 7.77158 74.9592 7.77158C75.2351 7.77158 75.4967 7.73462 75.7441 7.66068C75.9943 7.5839 76.2204 7.47158 76.4223 7.32371C76.6242 7.17585 76.7948 6.99528 76.9341 6.78201C77.0763 6.56589 77.1744 6.3185 77.2284 6.03983L78.5593 6.04409C78.4882 6.47348 78.3502 6.86874 78.1455 7.22988C77.9436 7.58817 77.6834 7.89812 77.3649 8.15974C77.0493 8.4185 76.6882 8.61898 76.2815 8.76116C75.8749 8.90334 75.4313 8.97443 74.9507 8.97443C74.1943 8.97443 73.5204 8.79528 72.9289 8.43699C72.3374 8.07585 71.8711 7.55973 71.5298 6.88864C71.1915 6.21755 71.0223 5.41708 71.0223 4.48722C71.0223 3.55451 71.1929 2.75404 71.5341 2.08579C71.8753 1.4147 72.3417 0.900002 72.9332 0.541708C73.5246 0.180569 74.1972 0 74.9507 0C75.4142 0 75.8464 0.0668249 76.2474 0.200475C76.6512 0.331281 77.0137 0.524646 77.3351 0.780571C77.6564 1.03365 77.9223 1.34361 78.1327 1.71043C78.3431 2.07441 78.4853 2.491 78.5593 2.9602Z" fill="black"/>
<path opacity="0.4" d="M60.4527 8.85507H59.0536L62.1972 0.119498H63.72L66.8636 8.85507H65.4645L62.9949 1.70623H62.9266L60.4527 8.85507ZM60.6873 5.4342H65.2257V6.54321H60.6873V5.4342Z" fill="black"/>
<path opacity="0.4" d="M52.489 8.85507V0.119498H53.8071V7.72046H57.7654V8.85507H52.489Z" fill="black"/>
<path opacity="0.4" d="M45.2517 8.85507V0.119498H50.7285V1.2541H46.5697V3.91572H50.4427V5.04605H46.5697V7.72046H50.7797V8.85507H45.2517Z" fill="black"/>
<path opacity="0.4" d="M39.4113 8.85507H36.5833V0.119498H39.5009C40.3568 0.119498 41.0919 0.29438 41.7061 0.644144C42.3203 0.991064 42.7909 1.49012 43.1179 2.1413C43.4478 2.78965 43.6127 3.56737 43.6127 4.47449C43.6127 5.38444 43.4464 6.16643 43.1137 6.82046C42.7838 7.47449 42.3061 7.97781 41.6805 8.33042C41.0549 8.68018 40.2985 8.85507 39.4113 8.85507ZM37.9013 7.7034H39.3388C40.0042 7.7034 40.5573 7.57828 40.998 7.32805C41.4388 7.07497 41.7686 6.70956 41.9876 6.23184C42.2066 5.75127 42.316 5.16548 42.316 4.47449C42.316 3.78918 42.2066 3.20766 41.9876 2.72993C41.7715 2.25221 41.4487 1.88964 41.0193 1.64225C40.59 1.39486 40.0568 1.27116 39.4198 1.27116H37.9013V7.7034Z" fill="black"/>
<path opacity="0.4" d="M31.4819 0.119498V8.85507H30.2705L25.8302 2.44841H25.7492V8.85507H24.4312V0.119498H25.6511L30.0956 6.53468H30.1767V0.119498H31.4819Z" fill="black"/>
<path opacity="0.4" d="M16.7589 8.85507H15.3598L18.5034 0.119498H20.0262L23.1698 8.85507H21.7707L19.301 1.70623H19.2328L16.7589 8.85507ZM16.9935 5.4342H21.5319V6.54321H16.9935V5.4342Z" fill="black"/>
<path opacity="0.4" d="M12.7823 0.119498H14.1046V5.86501C14.1046 6.47639 13.961 7.01809 13.6738 7.49013C13.3866 7.95933 12.9828 8.329 12.4624 8.59914C11.942 8.86644 11.3321 9.00009 10.6325 9.00009C9.93586 9.00009 9.32733 8.86644 8.80695 8.59914C8.28657 8.329 7.88277 7.95933 7.59557 7.49013C7.30836 7.01809 7.16476 6.47639 7.16476 5.86501V0.119498H8.48277V5.75837C8.48277 6.15364 8.5695 6.50482 8.74296 6.81193C8.91927 7.11904 9.16808 7.36075 9.48941 7.53705C9.81074 7.71051 10.1918 7.79724 10.6325 7.79724C11.0761 7.79724 11.4586 7.71051 11.7799 7.53705C12.1041 7.36075 12.3515 7.11904 12.5221 6.81193C12.6956 6.50482 12.7823 6.15364 12.7823 5.75837V0.119498Z" fill="black"/>
<path opacity="0.4" d="M3.93271 0.119498H5.24646V6.31288C5.24646 6.87307 5.13556 7.35222 4.91376 7.75032C4.6948 8.14843 4.38627 8.4527 3.98816 8.66312C3.59006 8.8707 3.1237 8.9745 2.58911 8.9745C2.09716 8.9745 1.65498 8.88492 1.26256 8.70578C0.872988 8.52663 0.564456 8.26644 0.336968 7.92521C0.112323 7.58113 0 7.16312 0 6.67117H1.30948C1.30948 6.91288 1.36493 7.12189 1.47583 7.29819C1.58958 7.47449 1.74455 7.61241 1.94076 7.71193C2.13982 7.80862 2.3673 7.85696 2.62323 7.85696C2.9019 7.85696 3.13792 7.79866 3.33129 7.68208C3.5275 7.56264 3.67679 7.38776 3.77916 7.15743C3.88153 6.9271 3.93271 6.64558 3.93271 6.31288V0.119498Z" fill="black"/>
</svg>
