<svg width="19" height="6" viewBox="0 0 19 6" fill="none" xmlns="http://www.w3.org/2000/svg">
<path d="M17.3802 5.29741C17.0032 5.29741 16.6781 5.21422 16.4047 5.04783C16.1331 4.87973 15.9234 4.64543 15.7757 4.3449C15.6297 4.04268 15.5566 3.69121 15.5566 3.29051C15.5566 2.88981 15.6297 2.53665 15.7757 2.23103C15.9234 1.92372 16.1288 1.68431 16.392 1.51283C16.6569 1.33964 16.9659 1.25305 17.319 1.25305C17.5228 1.25305 17.724 1.28701 17.9226 1.35492C18.1213 1.42284 18.3021 1.5332 18.4651 1.68601C18.6281 1.83712 18.758 2.03747 18.8548 2.28706C18.9516 2.53665 19 2.84397 19 3.20902V3.4637H15.9845V2.94415H18.3887C18.3887 2.72342 18.3446 2.52647 18.2563 2.35328C18.1697 2.1801 18.0457 2.04342 17.8844 1.94324C17.7248 1.84307 17.5364 1.79298 17.319 1.79298C17.0796 1.79298 16.8725 1.8524 16.6976 1.97126C16.5244 2.08841 16.3912 2.24122 16.2978 2.42969C16.2044 2.61815 16.1577 2.8202 16.1577 3.03583V3.3822C16.1577 3.67763 16.2086 3.92807 16.3105 4.13351C16.4141 4.33726 16.5575 4.49262 16.7409 4.59958C16.9243 4.70485 17.1374 4.75749 17.3802 4.75749C17.5381 4.75749 17.6807 4.73541 17.808 4.69127C17.9371 4.64543 18.0483 4.57751 18.1417 4.48752C18.2351 4.39584 18.3072 4.28208 18.3582 4.14625L18.9388 4.30925C18.8777 4.5062 18.775 4.67938 18.6307 4.8288C18.4863 4.97651 18.3081 5.09197 18.0958 5.17517C17.8836 5.25667 17.645 5.29741 17.3802 5.29741Z" fill="black"/>
<path d="M9.50663 5.21592V1.30399H10.0873V1.91523H10.1382C10.2197 1.70639 10.3513 1.54424 10.533 1.42878C10.7147 1.31163 10.9329 1.25305 11.1875 1.25305C11.4456 1.25305 11.6604 1.31163 11.8319 1.42878C12.0051 1.54424 12.14 1.70639 12.2368 1.91523H12.2776C12.3778 1.71318 12.528 1.55273 12.7284 1.43388C12.9287 1.31333 13.169 1.25305 13.4491 1.25305C13.7989 1.25305 14.085 1.36256 14.3074 1.58159C14.5298 1.79892 14.641 2.13765 14.641 2.59778V5.21592H14.04V2.59778C14.04 2.30914 13.961 2.10284 13.8031 1.9789C13.6452 1.85495 13.4593 1.79298 13.2454 1.79298C12.9703 1.79298 12.7572 1.87617 12.6061 2.04257C12.455 2.20726 12.3795 2.4161 12.3795 2.66909V5.21592H11.7682V2.53665C11.7682 2.31423 11.6961 2.1351 11.5517 1.99927C11.4074 1.86174 11.2215 1.79298 10.994 1.79298C10.8378 1.79298 10.6918 1.83458 10.5559 1.91777C10.4218 2.00097 10.3131 2.11643 10.2299 2.26414C10.1484 2.41016 10.1077 2.5791 10.1077 2.77096V5.21592H9.50663Z" fill="black"/>
<path d="M6.81656 5.29741C6.4634 5.29741 6.15354 5.21337 5.88697 5.04528C5.6221 4.87719 5.41496 4.64203 5.26555 4.33981C5.11783 4.03758 5.04397 3.68442 5.04397 3.28033C5.04397 2.87283 5.11783 2.51713 5.26555 2.21321C5.41496 1.90928 5.6221 1.67328 5.88697 1.50519C6.15354 1.3371 6.4634 1.25305 6.81656 1.25305C7.16972 1.25305 7.47874 1.3371 7.74361 1.50519C8.01018 1.67328 8.21732 1.90928 8.36504 2.21321C8.51445 2.51713 8.58916 2.87283 8.58916 3.28033C8.58916 3.68442 8.51445 4.03758 8.36504 4.33981C8.21732 4.64203 8.01018 4.87719 7.74361 5.04528C7.47874 5.21337 7.16972 5.29741 6.81656 5.29741ZM6.81656 4.75749C7.08483 4.75749 7.30555 4.68872 7.47874 4.55119C7.65192 4.41366 7.78011 4.23284 7.86331 4.00872C7.94651 3.7846 7.9881 3.5418 7.9881 3.28033C7.9881 3.01885 7.94651 2.77521 7.86331 2.54939C7.78011 2.32357 7.65192 2.14105 7.47874 2.00182C7.30555 1.86259 7.08483 1.79298 6.81656 1.79298C6.5483 1.79298 6.32757 1.86259 6.15439 2.00182C5.9812 2.14105 5.85301 2.32357 5.76982 2.54939C5.68662 2.77521 5.64502 3.01885 5.64502 3.28033C5.64502 3.5418 5.68662 3.7846 5.76982 4.00872C5.85301 4.23284 5.9812 4.41366 6.15439 4.55119C6.32757 4.68872 6.5483 4.75749 6.81656 4.75749Z" fill="black"/>
<path d="M0 5.2159V0H0.631614V2.32271H3.41275V0H4.04436V5.2159H3.41275V2.88301H0.631614V5.2159H0Z" fill="black"/>
</svg>
