<svg width="38" height="9" viewBox="0 0 38 9" fill="none" xmlns="http://www.w3.org/2000/svg">
<path d="M38 0.119451V8.86054H36.9757L32.2125 1.99742H32.1271V8.86054H31.0686V0.119451H32.093L36.8733 6.99964H36.9586V0.119451H38Z" fill="black"/>
<path d="M28.9463 0.119451V8.86054H27.8878V0.119451H28.9463Z" fill="black"/>
<path d="M21.5507 2.8511C21.4568 2.56371 21.333 2.3062 21.1794 2.07857C21.0286 1.84809 20.8479 1.65176 20.6373 1.48957C20.4296 1.32738 20.1935 1.20361 19.9288 1.11824C19.6642 1.03288 19.374 0.990201 19.0581 0.990201C18.5403 0.990201 18.0694 1.12394 17.6454 1.3914C17.2214 1.65887 16.8843 2.05296 16.6339 2.57367C16.3835 3.09438 16.2583 3.73317 16.2583 4.49005C16.2583 5.24693 16.3849 5.88572 16.6381 6.40643C16.8914 6.92714 17.2342 7.32123 17.6667 7.5887C18.0992 7.85617 18.5858 7.9899 19.1264 7.9899C19.6272 7.9899 20.0683 7.8832 20.4495 7.66979C20.8337 7.45354 21.1324 7.14908 21.3458 6.75642C21.5621 6.36091 21.6702 5.89568 21.6702 5.36075L21.9946 5.42904H19.3654V4.49005H22.6946V5.42904C22.6946 6.14892 22.5409 6.77491 22.2336 7.307C21.9292 7.83909 21.508 8.25168 20.9703 8.54475C20.4353 8.83499 19.8207 8.9801 19.1264 8.9801C18.3525 8.9801 17.6724 8.798 17.0863 8.43378C16.503 8.06957 16.0477 7.55171 15.7205 6.88019C15.3961 6.20868 15.2339 5.41196 15.2339 4.49005C15.2339 3.79862 15.3264 3.1769 15.5113 2.62489C15.6991 2.07003 15.9638 1.5977 16.3052 1.20788C16.6467 0.818055 17.0507 0.519287 17.5174 0.311572C17.984 0.103857 18.4976 0 19.0581 0C19.5191 0 19.9488 0.0697124 20.3471 0.209137C20.7483 0.345717 21.1054 0.540627 21.4184 0.793868C21.7342 1.04426 21.9974 1.34445 22.208 1.69444C22.4186 2.04158 22.5637 2.42713 22.6434 2.8511H21.5507Z" fill="black"/>
<path d="M13.7956 4.49005C13.7956 5.41196 13.6291 6.20868 13.2962 6.88019C12.9633 7.55171 12.5066 8.06957 11.9261 8.43378C11.3457 8.798 10.6827 8.9801 9.93719 8.9801C9.1917 8.9801 8.52872 8.798 7.94825 8.43378C7.36779 8.06957 6.9111 7.55171 6.57819 6.88019C6.24528 6.20868 6.07882 5.41196 6.07882 4.49005C6.07882 3.56814 6.24528 2.77143 6.57819 2.09991C6.9111 1.42839 7.36779 0.91053 7.94825 0.546318C8.52872 0.182106 9.1917 0 9.93719 0C10.6827 0 11.3457 0.182106 11.9261 0.546318C12.5066 0.91053 12.9633 1.42839 13.2962 2.09991C13.6291 2.77143 13.7956 3.56814 13.7956 4.49005ZM12.7712 4.49005C12.7712 3.73317 12.6446 3.09438 12.3914 2.57367C12.141 2.05296 11.8009 1.65887 11.3713 1.3914C10.9445 1.12394 10.4664 0.990201 9.93719 0.990201C9.40795 0.990201 8.9285 1.12394 8.49884 1.3914C8.07203 1.65887 7.732 2.05296 7.47876 2.57367C7.22837 3.09438 7.10317 3.73317 7.10317 4.49005C7.10317 5.24693 7.22837 5.88572 7.47876 6.40643C7.732 6.92714 8.07203 7.32123 8.49884 7.5887C8.9285 7.85617 9.40795 7.9899 9.93719 7.9899C10.4664 7.9899 10.9445 7.85617 11.3713 7.5887C11.8009 7.32123 12.141 6.92714 12.3914 6.40643C12.6446 5.88572 12.7712 5.24693 12.7712 4.49005Z" fill="black"/>
<path d="M0 8.86054V0.119451H1.05849V7.92156H5.12173V8.86054H0Z" fill="black"/>
</svg>
