<svg width="29" height="9" viewBox="0 0 29 9" fill="none" xmlns="http://www.w3.org/2000/svg">
<path d="M26.6478 8.68413C26.1647 8.68413 25.7299 8.59867 25.3435 8.42773C24.9645 8.24937 24.6635 8.01155 24.4405 7.71428C24.2176 7.40958 24.0986 7.07143 24.0838 6.69984H25.3992C25.4215 6.95995 25.5441 7.17919 25.7671 7.35755C25.9975 7.52848 26.2836 7.61395 26.6255 7.61395C26.9822 7.61395 27.2572 7.54706 27.4504 7.41329C27.651 7.27209 27.7514 7.09372 27.7514 6.8782C27.7514 6.64781 27.6399 6.47688 27.4169 6.36541C27.2014 6.25393 26.8558 6.1313 26.3802 5.99753C25.9194 5.87119 25.5441 5.74857 25.2543 5.62966C24.9644 5.51075 24.7118 5.32867 24.4962 5.08342C24.2882 4.83817 24.1841 4.51488 24.1841 4.11357C24.1841 3.78657 24.2807 3.48929 24.4739 3.22175C24.6672 2.94677 24.9422 2.73125 25.2989 2.57518C25.663 2.41911 26.0792 2.34108 26.5474 2.34108C27.246 2.34108 27.8071 2.51944 28.2307 2.87617C28.6618 3.22547 28.8922 3.70482 28.9219 4.31423H27.651C27.6288 4.03925 27.5173 3.82001 27.3166 3.65651C27.116 3.49301 26.8447 3.41126 26.5028 3.41126C26.1684 3.41126 25.912 3.47443 25.7336 3.60077C25.5553 3.72711 25.4661 3.89433 25.4661 4.10242C25.4661 4.26592 25.5256 4.40341 25.6445 4.51488C25.7634 4.62636 25.9083 4.71554 26.0792 4.78243C26.2502 4.84188 26.5028 4.91992 26.8373 5.01653C27.2832 5.13544 27.6473 5.25807 27.9297 5.38441C28.2196 5.50332 28.4685 5.68168 28.6766 5.9195C28.8847 6.15732 28.9925 6.47317 28.9999 6.86705C28.9999 7.21635 28.9033 7.52848 28.7101 7.80346C28.5169 8.07844 28.2419 8.29396 27.8852 8.45003C27.5359 8.6061 27.1234 8.68413 26.6478 8.68413Z" fill="#979797"/>
<path d="M23.1677 5.36211C23.1677 5.5925 23.1528 5.80059 23.1231 5.98638H18.4299C18.4671 6.47688 18.6491 6.87077 18.9761 7.16804C19.3031 7.46531 19.7045 7.61395 20.1801 7.61395C20.8638 7.61395 21.3469 7.32783 21.6293 6.75558H23.0005C22.8147 7.32039 22.4765 7.78488 21.986 8.14904C21.503 8.50577 20.901 8.68413 20.1801 8.68413C19.593 8.68413 19.0653 8.55407 18.5971 8.29396C18.1364 8.02642 17.7722 7.65483 17.5046 7.17919C17.2445 6.69612 17.1145 6.13874 17.1145 5.50703C17.1145 4.87533 17.2408 4.32166 17.4935 3.84602C17.7536 3.36295 18.1141 2.99136 18.5748 2.73125C19.043 2.47114 19.5781 2.34108 20.1801 2.34108C20.7598 2.34108 21.2763 2.46742 21.7296 2.7201C22.183 2.97278 22.536 3.32951 22.7887 3.79028C23.0413 4.24362 23.1677 4.76757 23.1677 5.36211ZM21.8411 4.96079C21.8337 4.49259 21.6665 4.11728 21.3395 3.83487C21.0125 3.55246 20.6074 3.41126 20.1244 3.41126C19.6859 3.41126 19.3106 3.55246 18.9984 3.83487C18.6863 4.10985 18.5005 4.48516 18.4411 4.96079H21.8411Z" fill="#979797"/>
<path d="M9.55929 5.48463C9.55929 4.86779 9.68563 4.32155 9.93831 3.84592C10.1984 3.37028 10.5477 3.00241 10.9862 2.74229C11.4321 2.47475 11.9263 2.34098 12.4688 2.34098C12.8702 2.34098 13.264 2.43016 13.6505 2.60852C14.0444 2.77945 14.3565 3.00984 14.5869 3.29968V0.334387H15.8689V8.5837H14.5869V7.65844C14.3788 7.95571 14.089 8.20096 13.7174 8.39419C13.3532 8.58741 12.9333 8.68403 12.4577 8.68403C11.9226 8.68403 11.4321 8.55026 10.9862 8.28271C10.5477 8.00773 10.1984 7.62871 9.93831 7.14564C9.68563 6.65514 9.55929 6.10147 9.55929 5.48463ZM14.5869 5.50693C14.5869 5.08332 14.4977 4.71544 14.3194 4.4033C14.1484 4.09117 13.9218 3.85335 13.6394 3.68985C13.3569 3.52635 13.0522 3.4446 12.7252 3.4446C12.3982 3.4446 12.0935 3.52635 11.8111 3.68985C11.5287 3.84592 11.2983 4.08002 11.12 4.39216C10.949 4.69686 10.8636 5.06102 10.8636 5.48463C10.8636 5.90825 10.949 6.27984 11.12 6.5994C11.2983 6.91897 11.5287 7.16422 11.8111 7.33515C12.101 7.49865 12.4057 7.5804 12.7252 7.5804C13.0522 7.5804 13.3569 7.49865 13.6394 7.33515C13.9218 7.17165 14.1484 6.93384 14.3194 6.6217C14.4977 6.30213 14.5869 5.93054 14.5869 5.50693Z" fill="#979797"/>
<path d="M7.69006 1.62757C7.45967 1.62757 7.26644 1.54953 7.11038 1.39346C6.95431 1.2374 6.87627 1.04417 6.87627 0.813784C6.87627 0.583397 6.95431 0.39017 7.11038 0.234103C7.26644 0.0780342 7.45967 0 7.69006 0C7.91301 0 8.10252 0.0780342 8.25859 0.234103C8.41466 0.39017 8.49269 0.583397 8.49269 0.813784C8.49269 1.04417 8.41466 1.2374 8.25859 1.39346C8.10252 1.54953 7.91301 1.62757 7.69006 1.62757ZM8.31433 2.44135V8.58374H7.04349V2.44135H8.31433Z" fill="#979797"/>
<path d="M4.02433 8.58369L2.24069 5.48463H1.27084V8.58369H0V0.836029H2.67545C3.27 0.836029 3.77164 0.940074 4.18039 1.14817C4.59658 1.35626 4.905 1.63495 5.10565 1.98424C5.31375 2.33354 5.41779 2.72371 5.41779 3.15475C5.41779 3.66012 5.26915 4.12089 4.97188 4.53707C4.68204 4.94582 4.23242 5.22451 3.62301 5.37315L5.54042 8.58369H4.02433ZM1.27084 4.47019H2.67545C3.15109 4.47019 3.50782 4.35128 3.74563 4.11346C3.99088 3.87564 4.11351 3.55607 4.11351 3.15475C4.11351 2.75344 3.9946 2.4413 3.75678 2.21835C3.51896 1.98796 3.15852 1.87277 2.67545 1.87277H1.27084V4.47019Z" fill="#979797"/>
</svg>
