<svg width="154" height="9" viewBox="0 0 154 9" fill="none" xmlns="http://www.w3.org/2000/svg">
<path opacity="0.4" d="M148.195 8.84666V0.119385H153.462V1.05688H149.252V4.00575H153.19V4.94325H149.252V7.90916H153.531V8.84666H148.195Z" fill="black"/>
<path opacity="0.4" d="M146.488 2.84659H145.431C145.368 2.54261 145.259 2.27557 145.103 2.04545C144.949 1.81534 144.762 1.62216 144.54 1.46591C144.321 1.30682 144.079 1.1875 143.812 1.10795C143.544 1.02841 143.266 0.988636 142.976 0.988636C142.448 0.988636 141.969 1.12216 141.54 1.3892C141.114 1.65625 140.775 2.04972 140.522 2.5696C140.272 3.08949 140.147 3.72727 140.147 4.48295C140.147 5.23864 140.272 5.87642 140.522 6.39631C140.775 6.91619 141.114 7.30966 141.54 7.5767C141.969 7.84375 142.448 7.97727 142.976 7.97727C143.266 7.97727 143.544 7.9375 143.812 7.85795C144.079 7.77841 144.321 7.66051 144.54 7.50426C144.762 7.34517 144.949 7.15057 145.103 6.92045C145.259 6.6875 145.368 6.42045 145.431 6.11932H146.488C146.408 6.56534 146.263 6.96449 146.053 7.31676C145.843 7.66903 145.581 7.96875 145.269 8.21591C144.956 8.46023 144.606 8.64631 144.216 8.77415C143.83 8.90199 143.417 8.96591 142.976 8.96591C142.232 8.96591 141.57 8.78409 140.99 8.42045C140.411 8.05682 139.955 7.53977 139.623 6.86932C139.29 6.19886 139.124 5.40341 139.124 4.48295C139.124 3.5625 139.29 2.76705 139.623 2.09659C139.955 1.42614 140.411 0.909091 140.99 0.545455C141.57 0.181818 142.232 0 142.976 0C143.417 0 143.83 0.0639205 144.216 0.191761C144.606 0.319602 144.956 0.507102 145.269 0.754261C145.581 0.99858 145.843 1.29688 146.053 1.64915C146.263 1.99858 146.408 2.39773 146.488 2.84659Z" fill="black"/>
<path opacity="0.4" d="M137.35 0.119385V8.84666H136.327L131.572 1.99438H131.486V8.84666H130.43V0.119385H131.452L136.225 6.9887H136.31V0.119385H137.35Z" fill="black"/>
<path opacity="0.4" d="M122.678 8.84666H121.57L124.775 0.119385H125.866L129.07 8.84666H127.962L125.354 1.50007H125.286L122.678 8.84666ZM123.087 5.43757H127.553V6.37507H123.087V5.43757Z" fill="black"/>
<path opacity="0.4" d="M115.02 8.84666V0.119385H116.076V7.90916H120.133V8.84666H115.02Z" fill="black"/>
<path opacity="0.4" d="M107.268 8.84666H106.16L109.365 0.119385H110.456L113.66 8.84666H112.552L109.944 1.50007H109.876L107.268 8.84666ZM107.677 5.43757H112.143V6.37507H107.677V5.43757Z" fill="black"/>
<path opacity="0.4" d="M99.1055 8.84666V0.119385H102.157C102.765 0.119385 103.266 0.224499 103.661 0.434726C104.056 0.642112 104.35 0.921942 104.543 1.27421C104.736 1.62365 104.833 2.01143 104.833 2.43757C104.833 2.81257 104.766 3.12223 104.632 3.36654C104.502 3.61086 104.328 3.80404 104.113 3.94609C103.9 4.08814 103.668 4.19325 103.418 4.26143V4.34666C103.685 4.3637 103.953 4.45745 104.223 4.62791C104.493 4.79836 104.719 5.04268 104.901 5.36086C105.083 5.67904 105.174 6.06825 105.174 6.52848C105.174 6.96598 105.074 7.35944 104.875 7.70887C104.676 8.05831 104.363 8.33529 103.934 8.53984C103.505 8.74438 102.946 8.84666 102.259 8.84666H99.1055ZM100.162 7.90916H102.259C102.949 7.90916 103.439 7.77564 103.729 7.50859C104.022 7.2387 104.168 6.912 104.168 6.52848C104.168 6.23302 104.093 5.96029 103.942 5.71029C103.792 5.45745 103.577 5.25575 103.299 5.10518C103.02 4.95177 102.691 4.87507 102.31 4.87507H100.162V7.90916ZM100.162 3.95461H102.123C102.441 3.95461 102.728 3.89211 102.983 3.76711C103.242 3.64211 103.446 3.46598 103.597 3.2387C103.75 3.01143 103.827 2.74439 103.827 2.43757C103.827 2.05404 103.694 1.72876 103.426 1.46171C103.159 1.19183 102.736 1.05688 102.157 1.05688H100.162V3.95461Z" fill="black"/>
<path opacity="0.4" d="M87.554 1.05688V0.119385H94.0994V1.05688H91.3551V8.84666H90.2983V1.05688H87.554Z" fill="black"/>
<path opacity="0.4" d="M85.9165 0.119385V8.84666H84.8938L80.1381 1.99438H80.0529V8.84666H78.9961V0.119385H80.0188L84.7915 6.9887H84.8768V0.119385H85.9165Z" fill="black"/>
<path opacity="0.4" d="M71.8242 8.84666V0.119385H77.0913V1.05688H72.881V4.00575H76.8185V4.94325H72.881V7.90916H77.1594V8.84666H71.8242Z" fill="black"/>
<path opacity="0.4" d="M64.1484 8.84666V0.119385H67.0973C67.7791 0.119385 68.3388 0.235862 68.7763 0.468817C69.2138 0.69893 69.5376 1.01569 69.7479 1.4191C69.9581 1.82251 70.0632 2.28132 70.0632 2.79552C70.0632 3.30973 69.9581 3.76569 69.7479 4.16342C69.5376 4.56115 69.2152 4.87365 68.7805 5.10092C68.3459 5.32535 67.7905 5.43757 67.1143 5.43757H64.728V4.48302H67.0803C67.5462 4.48302 67.9212 4.41484 68.2053 4.27848C68.4922 4.14211 68.6996 3.94893 68.8274 3.69893C68.9581 3.44609 69.0234 3.14495 69.0234 2.79552C69.0234 2.44609 68.9581 2.14069 68.8274 1.87933C68.6967 1.61796 68.4879 1.41626 68.201 1.27421C67.9141 1.12933 67.5348 1.05688 67.0632 1.05688H65.2053V8.84666H64.1484ZM68.2564 4.9262L70.4041 8.84666H69.1768L67.0632 4.9262H68.2564Z" fill="black"/>
<path opacity="0.4" d="M56.4727 8.84666V0.119385H59.4215C60.1033 0.119385 60.663 0.235862 61.1005 0.468817C61.538 0.69893 61.8619 1.01569 62.0721 1.4191C62.2823 1.82251 62.3874 2.28132 62.3874 2.79552C62.3874 3.30973 62.2823 3.76569 62.0721 4.16342C61.8619 4.56115 61.5394 4.87365 61.1048 5.10092C60.6701 5.32535 60.1147 5.43757 59.4386 5.43757H57.0522V4.48302H59.4045C59.8704 4.48302 60.2454 4.41484 60.5295 4.27848C60.8164 4.14211 61.0238 3.94893 61.1516 3.69893C61.2823 3.44609 61.3477 3.14495 61.3477 2.79552C61.3477 2.44609 61.2823 2.14069 61.1516 1.87933C61.0209 1.61796 60.8121 1.41626 60.5252 1.27421C60.2383 1.12933 59.859 1.05688 59.3874 1.05688H57.5295V8.84666H56.4727ZM60.5806 4.9262L62.7283 8.84666H61.5011L59.3874 4.9262H60.5806Z" fill="black"/>
<path opacity="0.4" d="M53.3054 0.119385H54.3622V5.89779C54.3622 6.49438 54.2216 7.02706 53.9403 7.49581C53.6619 7.96171 53.2685 8.32961 52.7599 8.5995C52.2514 8.86654 51.6548 9.00007 50.9702 9.00007C50.2855 9.00007 49.6889 8.86654 49.1804 8.5995C48.6719 8.32961 48.277 7.96171 47.9957 7.49581C47.7173 7.02706 47.5781 6.49438 47.5781 5.89779V0.119385H48.6349V5.81257C48.6349 6.2387 48.7287 6.61796 48.9162 6.95035C49.1037 7.2799 49.3707 7.53984 49.7173 7.73018C50.0668 7.91768 50.4844 8.01143 50.9702 8.01143C51.456 8.01143 51.8736 7.91768 52.223 7.73018C52.5724 7.53984 52.8395 7.2799 53.0241 6.95035C53.2116 6.61796 53.3054 6.2387 53.3054 5.81257V0.119385Z" fill="black"/>
<path opacity="0.4" d="M45.8705 2.84659H44.8137C44.7512 2.54261 44.6418 2.27557 44.4855 2.04545C44.3321 1.81534 44.1446 1.62216 43.923 1.46591C43.7043 1.30682 43.4614 1.1875 43.1943 1.10795C42.9273 1.02841 42.6489 0.988636 42.3591 0.988636C41.8307 0.988636 41.352 1.12216 40.923 1.3892C40.4969 1.65625 40.1574 2.04972 39.9046 2.5696C39.6546 3.08949 39.5296 3.72727 39.5296 4.48295C39.5296 5.23864 39.6546 5.87642 39.9046 6.39631C40.1574 6.91619 40.4969 7.30966 40.923 7.5767C41.352 7.84375 41.8307 7.97727 42.3591 7.97727C42.6489 7.97727 42.9273 7.9375 43.1943 7.85795C43.4614 7.77841 43.7043 7.66051 43.923 7.50426C44.1446 7.34517 44.3321 7.15057 44.4855 6.92045C44.6418 6.6875 44.7512 6.42045 44.8137 6.11932H45.8705C45.7909 6.56534 45.646 6.96449 45.4358 7.31676C45.2256 7.66903 44.9642 7.96875 44.6517 8.21591C44.3392 8.46023 43.9884 8.64631 43.5992 8.77415C43.2128 8.90199 42.7995 8.96591 42.3591 8.96591C41.6148 8.96591 40.9529 8.78409 40.3733 8.42045C39.7938 8.05682 39.3378 7.53977 39.0054 6.86932C38.673 6.19886 38.5068 5.40341 38.5068 4.48295C38.5068 3.5625 38.673 2.76705 39.0054 2.09659C39.3378 1.42614 39.7938 0.909091 40.3733 0.545455C40.9529 0.181818 41.6148 0 42.3591 0C42.7995 0 43.2128 0.0639205 43.5992 0.191761C43.9884 0.319602 44.3392 0.507102 44.6517 0.754261C44.9642 0.99858 45.2256 1.29688 45.4358 1.64915C45.646 1.99858 45.7909 2.39773 45.8705 2.84659Z" fill="black"/>
<path opacity="0.4" d="M33.765 2.84659H32.7082C32.6457 2.54261 32.5363 2.27557 32.3801 2.04545C32.2267 1.81534 32.0392 1.62216 31.8176 1.46591C31.5988 1.30682 31.3559 1.1875 31.0889 1.10795C30.8218 1.02841 30.5434 0.988636 30.2536 0.988636C29.7252 0.988636 29.2465 1.12216 28.8176 1.3892C28.3914 1.65625 28.0519 2.04972 27.7991 2.5696C27.5491 3.08949 27.4241 3.72727 27.4241 4.48295C27.4241 5.23864 27.5491 5.87642 27.7991 6.39631C28.0519 6.91619 28.3914 7.30966 28.8176 7.5767C29.2465 7.84375 29.7252 7.97727 30.2536 7.97727C30.5434 7.97727 30.8218 7.9375 31.0889 7.85795C31.3559 7.77841 31.5988 7.66051 31.8176 7.50426C32.0392 7.34517 32.2267 7.15057 32.3801 6.92045C32.5363 6.6875 32.6457 6.42045 32.7082 6.11932H33.765C33.6855 6.56534 33.5406 6.96449 33.3303 7.31676C33.1201 7.66903 32.8588 7.96875 32.5463 8.21591C32.2338 8.46023 31.8829 8.64631 31.4937 8.77415C31.1073 8.90199 30.694 8.96591 30.2536 8.96591C29.5093 8.96591 28.8474 8.78409 28.2678 8.42045C27.6883 8.05682 27.2323 7.53977 26.8999 6.86932C26.5676 6.19886 26.4014 5.40341 26.4014 4.48295C26.4014 3.5625 26.5676 2.76705 26.8999 2.09659C27.2323 1.42614 27.6883 0.909091 28.2678 0.545455C28.8474 0.181818 29.5093 0 30.2536 0C30.694 0 31.1073 0.0639205 31.4937 0.191761C31.8829 0.319602 32.2338 0.507102 32.5463 0.754261C32.8588 0.99858 33.1201 1.29688 33.3303 1.64915C33.5406 1.99858 33.6855 2.39773 33.765 2.84659Z" fill="black"/>
<path opacity="0.4" d="M24.6232 0.119385V8.84666H23.5664V0.119385H24.6232Z" fill="black"/>
<path opacity="0.4" d="M20.6868 2.30114C20.6357 1.86932 20.4283 1.53409 20.0646 1.29545C19.701 1.05682 19.255 0.9375 18.7266 0.9375C18.3402 0.9375 18.0021 1 17.7124 1.125C17.4254 1.25 17.201 1.42188 17.0391 1.64063C16.88 1.85938 16.8004 2.10795 16.8004 2.38636C16.8004 2.61932 16.8558 2.8196 16.9666 2.98722C17.0803 3.15199 17.2251 3.28977 17.4013 3.40057C17.5774 3.50852 17.7621 3.59801 17.9553 3.66903C18.1484 3.73722 18.326 3.79261 18.4879 3.83523L19.3743 4.07386C19.6016 4.13352 19.8544 4.21591 20.1328 4.32102C20.4141 4.42614 20.6825 4.5696 20.9382 4.75142C21.1967 4.9304 21.4098 5.16051 21.5774 5.44176C21.745 5.72301 21.8288 6.06818 21.8288 6.47727C21.8288 6.94886 21.7053 7.375 21.4581 7.75568C21.2138 8.13636 20.8558 8.43892 20.3842 8.66335C19.9155 8.88778 19.3459 9 18.6754 9C18.0504 9 17.5092 8.89915 17.0518 8.69744C16.5973 8.49574 16.2393 8.21449 15.978 7.85369C15.7195 7.4929 15.5732 7.07386 15.5391 6.59659H16.63C16.6584 6.92614 16.7692 7.19886 16.9624 7.41477C17.1584 7.62784 17.4055 7.78693 17.7038 7.89205C18.005 7.99432 18.3288 8.04545 18.6754 8.04545C19.0788 8.04545 19.4411 7.98011 19.7621 7.84943C20.0831 7.71591 20.3374 7.53125 20.5249 7.29545C20.7124 7.05682 20.8061 6.77841 20.8061 6.46023C20.8061 6.17045 20.7251 5.93466 20.5632 5.75284C20.4013 5.57102 20.1882 5.4233 19.924 5.30966C19.6598 5.19602 19.3743 5.09659 19.0675 5.01136L17.9936 4.70455C17.3118 4.50852 16.772 4.22869 16.3743 3.86506C15.9766 3.50142 15.7777 3.02557 15.7777 2.4375C15.7777 1.94886 15.9098 1.52273 16.174 1.15909C16.4411 0.792614 16.799 0.508523 17.2479 0.306818C17.6996 0.102273 18.2038 0 18.7607 0C19.3232 0 19.8232 0.100852 20.2607 0.302557C20.6982 0.50142 21.0447 0.774147 21.3004 1.12074C21.5589 1.46733 21.6953 1.8608 21.7095 2.30114H20.6868Z" fill="black"/>
<path opacity="0.4" d="M8.16264 8.84666H7.05469L10.2592 0.119385H11.3501L14.5547 8.84666H13.4467L10.8388 1.50007H10.7706L8.16264 8.84666ZM8.57173 5.43757H13.0376V6.37507H8.57173V5.43757Z" fill="black"/>
<path opacity="0.4" d="M0 8.84666V0.119385H3.05114C3.65909 0.119385 4.16051 0.224499 4.5554 0.434726C4.95028 0.642112 5.24432 0.921942 5.4375 1.27421C5.63068 1.62365 5.72727 2.01143 5.72727 2.43757C5.72727 2.81257 5.66051 3.12223 5.52699 3.36654C5.39631 3.61086 5.22301 3.80404 5.0071 3.94609C4.79403 4.08814 4.5625 4.19325 4.3125 4.26143V4.34666C4.57955 4.3637 4.84801 4.45745 5.1179 4.62791C5.38778 4.79836 5.61364 5.04268 5.79545 5.36086C5.97727 5.67904 6.06818 6.06825 6.06818 6.52848C6.06818 6.96598 5.96875 7.35944 5.76989 7.70887C5.57102 8.05831 5.2571 8.33529 4.82812 8.53984C4.39915 8.74438 3.84091 8.84666 3.15341 8.84666H0ZM1.05682 7.90916H3.15341C3.84375 7.90916 4.33381 7.77564 4.62358 7.50859C4.91619 7.2387 5.0625 6.912 5.0625 6.52848C5.0625 6.23302 4.98722 5.96029 4.83665 5.71029C4.68608 5.45745 4.47159 5.25575 4.19318 5.10518C3.91477 4.95177 3.58523 4.87507 3.20455 4.87507H1.05682V7.90916ZM1.05682 3.95461H3.01705C3.33523 3.95461 3.62216 3.89211 3.87784 3.76711C4.13636 3.64211 4.34091 3.46598 4.49148 3.2387C4.64489 3.01143 4.72159 2.74439 4.72159 2.43757C4.72159 2.05404 4.58807 1.72876 4.32102 1.46171C4.05398 1.19183 3.63068 1.05688 3.05114 1.05688H1.05682V3.95461Z" fill="black"/>
</svg>
