<svg width="52" height="9" viewBox="0 0 52 9" fill="none" xmlns="http://www.w3.org/2000/svg">
<path d="M48.6861 8.98287C48.0555 8.98287 47.5114 8.84366 47.054 8.56525C46.5995 8.284 46.2486 7.89196 46.0015 7.38912C45.7572 6.88343 45.635 6.29537 45.635 5.62491C45.635 4.95446 45.7572 4.36355 46.0015 3.85218C46.2486 3.33798 46.5924 2.93741 47.0327 2.65048C47.4759 2.36071 47.993 2.21582 48.5839 2.21582C48.9248 2.21582 49.2614 2.27264 49.5938 2.38627C49.9262 2.49991 50.2288 2.68457 50.5015 2.94025C50.7742 3.19309 50.9915 3.52832 51.1535 3.94593C51.3154 4.36355 51.3964 4.87775 51.3964 5.48855V5.91468H46.3509V5.04537H50.3736C50.3736 4.67605 50.2998 4.3465 50.1521 4.05673C50.0072 3.76696 49.7998 3.53826 49.5299 3.37065C49.2629 3.20304 48.9475 3.11923 48.5839 3.11923C48.1833 3.11923 47.8367 3.21866 47.5441 3.41752C47.2543 3.61355 47.0313 3.86923 46.8751 4.18457C46.7188 4.49991 46.6407 4.83798 46.6407 5.19878V5.77832C46.6407 6.27264 46.7259 6.69167 46.8964 7.03542C47.0697 7.37633 47.3097 7.63627 47.6165 7.81525C47.9234 7.99139 48.2799 8.07946 48.6861 8.07946C48.9504 8.07946 49.189 8.04252 49.4021 7.96866C49.618 7.89196 49.804 7.77832 49.9603 7.62775C50.1165 7.47434 50.2373 7.284 50.3225 7.05673L51.2941 7.32946C51.1918 7.659 51.02 7.94878 50.7785 8.19878C50.537 8.44593 50.2387 8.63912 49.8836 8.77832C49.5285 8.91468 49.1293 8.98287 48.6861 8.98287Z" fill="black"/>
<path d="M44.0997 0.119385V8.84666H43.094V0.119385H44.0997Z" fill="black"/>
<path d="M40.2463 6.17059V2.30127H41.252V8.84672H40.2463V7.73877H40.1782C40.0247 8.07116 39.7861 8.35383 39.4622 8.58678C39.1384 8.8169 38.7293 8.93195 38.235 8.93195C37.8259 8.93195 37.4622 8.84246 37.1441 8.66349C36.8259 8.48167 36.5759 8.20894 36.3941 7.8453C36.2122 7.47883 36.1213 7.01718 36.1213 6.46036V2.30127H37.127V6.39218C37.127 6.86945 37.2605 7.25013 37.5276 7.53422C37.7975 7.81832 38.1412 7.96036 38.5588 7.96036C38.8088 7.96036 39.0631 7.89644 39.3216 7.7686C39.583 7.64076 39.8017 7.44474 39.9779 7.18053C40.1568 6.91633 40.2463 6.57968 40.2463 6.17059Z" fill="black"/>
<path d="M31.14 8.98302C30.5945 8.98302 30.113 8.84524 29.6954 8.56967C29.2778 8.29126 28.9511 7.89921 28.7153 7.39353C28.4795 6.88501 28.3616 6.28416 28.3616 5.59098C28.3616 4.90348 28.4795 4.30688 28.7153 3.8012C28.9511 3.29552 29.2792 2.9049 29.6996 2.62933C30.1201 2.35376 30.6059 2.21598 31.157 2.21598C31.5832 2.21598 31.9198 2.287 32.167 2.42904C32.417 2.56825 32.6073 2.72734 32.738 2.90632C32.8715 3.08245 32.9752 3.22734 33.0491 3.34098H33.1343V0.119385H34.14V8.84666H33.1684V7.84098H33.0491C32.9752 7.96029 32.8701 8.11086 32.7337 8.29268C32.5974 8.47166 32.4028 8.63217 32.1499 8.77421C31.8971 8.91342 31.5604 8.98302 31.14 8.98302ZM31.2763 8.07961C31.6798 8.07961 32.0207 7.9745 32.2991 7.76427C32.5775 7.5512 32.7891 7.25717 32.934 6.88217C33.0789 6.50433 33.1513 6.06825 33.1513 5.57393C33.1513 5.08529 33.0803 4.65774 32.9383 4.29126C32.7962 3.92194 32.586 3.63501 32.3076 3.43046C32.0292 3.22308 31.6854 3.11938 31.2763 3.11938C30.8502 3.11938 30.4951 3.22876 30.211 3.44751C29.9298 3.66342 29.7181 3.95745 29.5761 4.32961C29.4369 4.69893 29.3673 5.1137 29.3673 5.57393C29.3673 6.03984 29.4383 6.46313 29.5803 6.84382C29.7252 7.22166 29.9383 7.52279 30.2195 7.74723C30.5036 7.96882 30.8559 8.07961 31.2763 8.07961Z" fill="black"/>
<path d="M24.4283 8.98287C23.7977 8.98287 23.2536 8.84366 22.7962 8.56525C22.3417 8.284 21.9908 7.89196 21.7437 7.38912C21.4994 6.88343 21.3772 6.29537 21.3772 5.62491C21.3772 4.95446 21.4994 4.36355 21.7437 3.85218C21.9908 3.33798 22.3346 2.93741 22.7749 2.65048C23.2181 2.36071 23.7352 2.21582 24.3261 2.21582C24.667 2.21582 25.0036 2.27264 25.336 2.38627C25.6684 2.49991 25.9709 2.68457 26.2437 2.94025C26.5164 3.19309 26.7337 3.52832 26.8957 3.94593C27.0576 4.36355 27.1386 4.87775 27.1386 5.48855V5.91468H22.0931V5.04537H26.1158C26.1158 4.67605 26.042 4.3465 25.8942 4.05673C25.7494 3.76696 25.542 3.53826 25.2721 3.37065C25.005 3.20304 24.6897 3.11923 24.3261 3.11923C23.9255 3.11923 23.5789 3.21866 23.2863 3.41752C22.9965 3.61355 22.7735 3.86923 22.6173 4.18457C22.461 4.49991 22.3829 4.83798 22.3829 5.19878V5.77832C22.3829 6.27264 22.4681 6.69167 22.6386 7.03542C22.8119 7.37633 23.0519 7.63627 23.3587 7.81525C23.6656 7.99139 24.0221 8.07946 24.4283 8.07946C24.6925 8.07946 24.9312 8.04252 25.1442 7.96866C25.3602 7.89196 25.5462 7.77832 25.7025 7.62775C25.8587 7.47434 25.9795 7.284 26.0647 7.05673L27.0363 7.32946C26.934 7.659 26.7621 7.94878 26.5207 8.19878C26.2792 8.44593 25.9809 8.63912 25.6258 8.77832C25.2707 8.91468 24.8715 8.98287 24.4283 8.98287Z" fill="black"/>
<path d="M15.5997 4.90916V8.84666H14.594V0.119385H15.5997V3.32393H15.6849C15.8383 2.98586 16.0684 2.7174 16.3752 2.51853C16.6849 2.31683 17.0968 2.21598 17.611 2.21598C18.0571 2.21598 18.4477 2.30546 18.7829 2.48444C19.1181 2.66058 19.3781 2.93189 19.5627 3.29836C19.7502 3.662 19.844 4.12507 19.844 4.68757V8.84666H18.8383V4.75575C18.8383 4.23586 18.7034 3.83387 18.4335 3.54978C18.1664 3.26285 17.7957 3.11938 17.3213 3.11938C16.9917 3.11938 16.6963 3.18899 16.4349 3.32819C16.1764 3.4674 15.9718 3.67052 15.8213 3.93757C15.6735 4.20461 15.5997 4.52848 15.5997 4.90916Z" fill="black"/>
<path d="M10.5501 8.98287C9.9365 8.98287 9.40809 8.83798 8.96491 8.54821C8.52173 8.25843 8.18082 7.85929 7.94218 7.35076C7.70355 6.84224 7.58423 6.26128 7.58423 5.60787C7.58423 4.94309 7.70639 4.35645 7.95071 3.84792C8.19787 3.33656 8.54162 2.93741 8.98196 2.65048C9.42514 2.36071 9.94218 2.21582 10.5331 2.21582C10.9933 2.21582 11.4081 2.30105 11.7774 2.4715C12.1467 2.64196 12.4493 2.88059 12.6851 3.18741C12.9209 3.49423 13.0672 3.85218 13.124 4.26127H12.1183C12.0416 3.96298 11.8712 3.69878 11.607 3.46866C11.3456 3.23571 10.9933 3.11923 10.5501 3.11923C10.1581 3.11923 9.81434 3.2215 9.51889 3.42605C9.22627 3.62775 8.99758 3.91326 8.83281 4.28258C8.67088 4.64906 8.58991 5.07946 8.58991 5.57378C8.58991 6.07946 8.66946 6.5198 8.82855 6.8948C8.99048 7.2698 9.21775 7.56099 9.51037 7.76838C9.80582 7.97576 10.1524 8.07946 10.5501 8.07946C10.8115 8.07946 11.0487 8.034 11.2618 7.94309C11.4749 7.85218 11.6553 7.7215 11.803 7.55105C11.9507 7.38059 12.0558 7.17605 12.1183 6.93741H13.124C13.0672 7.32377 12.9266 7.67179 12.7021 7.98145C12.4805 8.28826 12.1865 8.53258 11.82 8.7144C11.4564 8.89338 11.0331 8.98287 10.5501 8.98287Z" fill="black"/>
<path d="M5.14773 2.30114C5.09659 1.86932 4.8892 1.53409 4.52557 1.29545C4.16193 1.05682 3.71591 0.9375 3.1875 0.9375C2.80114 0.9375 2.46307 1 2.1733 1.125C1.88636 1.25 1.66193 1.42188 1.5 1.64063C1.34091 1.85938 1.26136 2.10795 1.26136 2.38636C1.26136 2.61932 1.31676 2.8196 1.42756 2.98722C1.54119 3.15199 1.68608 3.28977 1.86222 3.40057C2.03835 3.50852 2.22301 3.59801 2.41619 3.66903C2.60938 3.73722 2.78693 3.79261 2.94886 3.83523L3.83523 4.07386C4.0625 4.13352 4.31534 4.21591 4.59375 4.32102C4.875 4.42614 5.14347 4.5696 5.39915 4.75142C5.65767 4.9304 5.87074 5.16051 6.03835 5.44176C6.20597 5.72301 6.28977 6.06818 6.28977 6.47727C6.28977 6.94886 6.16619 7.375 5.91903 7.75568C5.67472 8.13636 5.31676 8.43892 4.84517 8.66335C4.37642 8.88778 3.80682 9 3.13636 9C2.51136 9 1.97017 8.89915 1.51278 8.69744C1.05824 8.49574 0.700284 8.21449 0.438921 7.85369C0.180398 7.4929 0.0340909 7.07386 0 6.59659H1.09091C1.11932 6.92614 1.23011 7.19886 1.4233 7.41477C1.61932 7.62784 1.86648 7.78693 2.16477 7.89205C2.46591 7.99432 2.78977 8.04545 3.13636 8.04545C3.53977 8.04545 3.90199 7.98011 4.22301 7.84943C4.54403 7.71591 4.7983 7.53125 4.9858 7.29545C5.1733 7.05682 5.26705 6.77841 5.26705 6.46023C5.26705 6.17045 5.18608 5.93466 5.02415 5.75284C4.86222 5.57102 4.64915 5.4233 4.38494 5.30966C4.12074 5.19602 3.83523 5.09659 3.52841 5.01136L2.45455 4.70455C1.77273 4.50852 1.23295 4.22869 0.835227 3.86506C0.4375 3.50142 0.238636 3.02557 0.238636 2.4375C0.238636 1.94886 0.370739 1.52273 0.634943 1.15909C0.901989 0.792614 1.25994 0.508523 1.70881 0.306818C2.16051 0.102273 2.66477 0 3.22159 0C3.78409 0 4.28409 0.100852 4.72159 0.302557C5.15909 0.50142 5.50568 0.774147 5.76136 1.12074C6.01989 1.46733 6.15625 1.8608 6.17045 2.30114H5.14773Z" fill="black"/>
</svg>
