<svg width="11" height="4" viewBox="0 0 11 4" fill="none" xmlns="http://www.w3.org/2000/svg">
<path d="M11.0001 0.730213L10.2343 3.55991H9.27589L8.82963 1.72416L8.36816 3.55991H7.41479L6.64398 0.730213H7.51114L7.91176 2.7536L8.38845 0.730213H9.30632L9.78808 2.74345L10.1836 0.730213H11.0001Z" fill="white"/>
<path d="M6.48075 2.09938C6.48075 2.18052 6.47568 2.26504 6.46554 2.35294H4.50301C4.51653 2.52874 4.57231 2.66397 4.67035 2.75863C4.77178 2.84991 4.89517 2.89555 5.04055 2.89555C5.25692 2.89555 5.40736 2.80427 5.49188 2.62171H6.41482C6.36749 2.80765 6.28128 2.975 6.1562 3.12375C6.03449 3.2725 5.88067 3.38914 5.69472 3.47366C5.50878 3.55818 5.30087 3.60044 5.07097 3.60044C4.79375 3.60044 4.54696 3.54127 4.33059 3.42295C4.11422 3.30462 3.94518 3.13558 3.82348 2.91583C3.70177 2.69608 3.64091 2.43915 3.64091 2.14502C3.64091 1.85089 3.70008 1.59396 3.8184 1.37421C3.94011 1.15446 4.10915 0.985421 4.32552 0.867094C4.54189 0.748768 4.79037 0.689605 5.07097 0.689605C5.34482 0.689605 5.58823 0.747078 5.80122 0.862023C6.0142 0.976969 6.17986 1.14094 6.29819 1.35392C6.4199 1.56691 6.48075 1.8154 6.48075 2.09938ZM5.5933 1.87118C5.5933 1.72243 5.54259 1.6041 5.44117 1.5162C5.33974 1.4283 5.21297 1.38435 5.06083 1.38435C4.91546 1.38435 4.79206 1.42661 4.69064 1.51113C4.5926 1.59565 4.53174 1.71566 4.50808 1.87118H5.5933Z" fill="white"/>
<path d="M3.18467 3.55994H2.31751L0.867164 1.36413V3.55994H0V0H0.867164L2.31751 2.20594V0H3.18467V3.55994Z" fill="white"/>
</svg>
