<svg width="292" height="20" viewBox="0 0 292 20" fill="none" xmlns="http://www.w3.org/2000/svg">
<path d="M287.651 15.086C286.689 15.086 285.835 14.9296 285.089 14.6168C284.355 14.304 283.771 13.8709 283.338 13.3175C282.905 12.7641 282.659 12.1386 282.598 11.4408H286.442C286.49 11.7416 286.617 11.9641 286.821 12.1085C287.038 12.2528 287.308 12.325 287.633 12.325C287.838 12.325 288 12.2829 288.12 12.1987C288.241 12.1025 288.301 11.9882 288.301 11.8558C288.301 11.6273 288.174 11.4649 287.922 11.3686C287.669 11.2724 287.242 11.1641 286.641 11.0438C285.907 10.8994 285.299 10.743 284.818 10.5746C284.349 10.4062 283.934 10.1175 283.573 9.70844C283.224 9.29942 283.05 8.734 283.05 8.01218C283.05 7.38661 283.212 6.82119 283.537 6.31592C283.874 5.79862 284.367 5.3956 285.017 5.10688C285.666 4.80612 286.454 4.65574 287.38 4.65574C288.752 4.65574 289.823 4.99259 290.593 5.66628C291.374 6.33998 291.844 7.21819 292 8.30091H288.445C288.385 8.02421 288.259 7.81368 288.066 7.66932C287.874 7.51293 287.615 7.43473 287.29 7.43473C287.086 7.43473 286.929 7.47684 286.821 7.56105C286.713 7.63323 286.659 7.74752 286.659 7.90391C286.659 8.10842 286.785 8.26482 287.038 8.37309C287.29 8.46933 287.693 8.57159 288.247 8.67986C288.98 8.82422 289.6 8.98663 290.105 9.16708C290.611 9.34754 291.05 9.66032 291.423 10.1054C291.796 10.5385 291.982 11.14 291.982 11.91C291.982 12.5115 291.808 13.0528 291.459 13.5341C291.11 14.0153 290.605 14.3942 289.943 14.6709C289.293 14.9476 288.529 15.086 287.651 15.086Z" fill="#F7CB2D"/>
<path d="M271.584 9.87085C271.584 8.81219 271.8 7.89188 272.234 7.10991C272.679 6.31592 273.292 5.70839 274.074 5.28733C274.868 4.86627 275.77 4.65574 276.781 4.65574C278.104 4.65574 279.217 5.02868 280.119 5.77456C281.034 6.52043 281.611 7.55503 281.852 8.87836H277.611C277.455 8.34903 277.148 8.08436 276.691 8.08436C276.366 8.08436 276.107 8.23474 275.915 8.5355C275.734 8.83625 275.644 9.28137 275.644 9.87085C275.644 10.4603 275.734 10.9055 275.915 11.2062C276.107 11.507 276.366 11.6573 276.691 11.6573C277.148 11.6573 277.455 11.3927 277.611 10.8633H281.852C281.611 12.1867 281.034 13.2213 280.119 13.9671C279.217 14.713 278.104 15.086 276.781 15.086C275.77 15.086 274.868 14.8754 274.074 14.4544C273.292 14.0333 272.679 13.4318 272.234 12.6498C271.8 11.8558 271.584 10.9295 271.584 9.87085Z" fill="#F7CB2D"/>
<path d="M268.331 3.96998C267.633 3.96998 267.074 3.78351 266.653 3.41057C266.232 3.03764 266.021 2.56846 266.021 2.00303C266.021 1.42558 266.232 0.950389 266.653 0.577452C267.074 0.192484 267.633 0 268.331 0C269.017 0 269.57 0.192484 269.991 0.577452C270.412 0.950389 270.623 1.42558 270.623 2.00303C270.623 2.56846 270.412 3.03764 269.991 3.41057C269.57 3.78351 269.017 3.96998 268.331 3.96998ZM270.316 4.78202V14.9596H266.31V4.78202H270.316Z" fill="#F7CB2D"/>
<path d="M264.784 11.549V14.9596H263.269C260.478 14.9596 259.082 13.5701 259.082 10.7911V8.12043H257.819V4.78204H259.082V2.32787H263.088V4.78204H264.748V8.12043H263.088V10.8633C263.088 11.1039 263.142 11.2784 263.251 11.3866C263.371 11.4949 263.563 11.549 263.828 11.549H264.784Z" fill="#F7CB2D"/>
<path d="M252.53 15.086C251.567 15.086 250.713 14.9296 249.967 14.6168C249.233 14.304 248.65 13.8709 248.217 13.3175C247.784 12.7641 247.537 12.1386 247.477 11.4408H251.321C251.369 11.7416 251.495 11.9641 251.7 12.1085C251.916 12.2528 252.187 12.325 252.512 12.325C252.716 12.325 252.879 12.2829 252.999 12.1987C253.119 12.1025 253.179 11.9882 253.179 11.8558C253.179 11.6273 253.053 11.4649 252.8 11.3686C252.548 11.2724 252.121 11.1641 251.519 11.0438C250.785 10.8994 250.178 10.743 249.697 10.5746C249.227 10.4062 248.812 10.1175 248.451 9.70844C248.103 9.29942 247.928 8.734 247.928 8.01218C247.928 7.38661 248.09 6.82119 248.415 6.31592C248.752 5.79862 249.245 5.3956 249.895 5.10688C250.545 4.80612 251.333 4.65574 252.259 4.65574C253.63 4.65574 254.701 4.99259 255.471 5.66628C256.253 6.33998 256.722 7.21819 256.879 8.30091H253.324C253.264 8.02421 253.137 7.81368 252.945 7.66932C252.752 7.51293 252.494 7.43473 252.169 7.43473C251.964 7.43473 251.808 7.47684 251.7 7.56105C251.591 7.63323 251.537 7.74752 251.537 7.90391C251.537 8.10842 251.663 8.26482 251.916 8.37309C252.169 8.46933 252.572 8.57159 253.125 8.67986C253.859 8.82422 254.479 8.98663 254.984 9.16708C255.489 9.34754 255.928 9.66032 256.301 10.1054C256.674 10.5385 256.861 11.14 256.861 11.91C256.861 12.5115 256.686 13.0528 256.337 13.5341C255.988 14.0153 255.483 14.3942 254.821 14.6709C254.172 14.9476 253.408 15.086 252.53 15.086Z" fill="#F7CB2D"/>
<path d="M244.206 3.96998C243.508 3.96998 242.949 3.78351 242.528 3.41057C242.107 3.03764 241.896 2.56846 241.896 2.00303C241.896 1.42558 242.107 0.950389 242.528 0.577452C242.949 0.192484 243.508 0 244.206 0C244.892 0 245.445 0.192484 245.866 0.577452C246.287 0.950389 246.498 1.42558 246.498 2.00303C246.498 2.56846 246.287 3.03764 245.866 3.41057C245.445 3.78351 244.892 3.96998 244.206 3.96998ZM246.191 4.78202V14.9596H242.185V4.78202H246.191Z" fill="#F7CB2D"/>
<path d="M240.659 11.549V14.9596H239.143C236.352 14.9596 234.957 13.5701 234.957 10.7911V8.12043H233.694V4.78204H234.957V2.32787H238.963V4.78204H240.623V8.12043H238.963V10.8633C238.963 11.1039 239.017 11.2784 239.125 11.3866C239.246 11.4949 239.438 11.549 239.703 11.549H240.659Z" fill="#F7CB2D"/>
<path d="M221.519 9.87085C221.519 8.80016 221.699 7.87383 222.06 7.09187C222.433 6.29787 222.938 5.69636 223.576 5.28733C224.213 4.86627 224.929 4.65574 225.723 4.65574C226.385 4.65574 226.956 4.79409 227.438 5.07079C227.919 5.33545 228.286 5.70237 228.538 6.17155V4.78206H232.526V14.9596H228.538V13.5702C228.286 14.0393 227.919 14.4123 227.438 14.689C226.956 14.9536 226.385 15.086 225.723 15.086C224.929 15.086 224.213 14.8814 223.576 14.4724C222.938 14.0514 222.433 13.4498 222.06 12.6679C221.699 11.8739 221.519 10.9415 221.519 9.87085ZM228.538 9.87085C228.538 9.32949 228.4 8.90843 228.123 8.60768C227.847 8.30692 227.492 8.15654 227.059 8.15654C226.625 8.15654 226.271 8.30692 225.994 8.60768C225.717 8.90843 225.579 9.32949 225.579 9.87085C225.579 10.4122 225.717 10.8333 225.994 11.134C226.271 11.4348 226.625 11.5852 227.059 11.5852C227.492 11.5852 227.847 11.4348 228.123 11.134C228.4 10.8333 228.538 10.4122 228.538 9.87085Z" fill="#F7CB2D"/>
<path d="M220.534 11.549V14.9596H219.019C216.228 14.9596 214.832 13.5701 214.832 10.7911V8.12043H213.569V4.78204H214.832V2.32787H218.838V4.78204H220.498V8.12043H218.838V10.8633C218.838 11.1039 218.892 11.2784 219.001 11.3866C219.121 11.4949 219.313 11.549 219.578 11.549H220.534Z" fill="#F7CB2D"/>
<path d="M208.28 15.086C207.317 15.086 206.463 14.9296 205.717 14.6168C204.983 14.304 204.4 13.8709 203.967 13.3175C203.534 12.7641 203.287 12.1386 203.227 11.4408H207.071C207.119 11.7416 207.245 11.9641 207.45 12.1085C207.666 12.2528 207.937 12.325 208.262 12.325C208.466 12.325 208.629 12.2829 208.749 12.1987C208.869 12.1025 208.929 11.9882 208.929 11.8558C208.929 11.6273 208.803 11.4649 208.55 11.3686C208.298 11.2724 207.871 11.1641 207.269 11.0438C206.535 10.8994 205.928 10.743 205.447 10.5746C204.977 10.4062 204.562 10.1175 204.202 9.70844C203.853 9.29942 203.678 8.734 203.678 8.01218C203.678 7.38661 203.841 6.82119 204.165 6.31592C204.502 5.79862 204.996 5.3956 205.645 5.10688C206.295 4.80612 207.083 4.65574 208.009 4.65574C209.381 4.65574 210.451 4.99259 211.221 5.66628C212.003 6.33998 212.472 7.21819 212.629 8.30091H209.074C209.014 8.02421 208.887 7.81368 208.695 7.66932C208.502 7.51293 208.244 7.43473 207.919 7.43473C207.714 7.43473 207.558 7.47684 207.45 7.56105C207.341 7.63323 207.287 7.74752 207.287 7.90391C207.287 8.10842 207.414 8.26482 207.666 8.37309C207.919 8.46933 208.322 8.57159 208.875 8.67986C209.609 8.82422 210.229 8.98663 210.734 9.16708C211.239 9.34754 211.678 9.66032 212.051 10.1054C212.424 10.5385 212.611 11.14 212.611 11.91C212.611 12.5115 212.436 13.0528 212.087 13.5341C211.738 14.0153 211.233 14.3942 210.572 14.6709C209.922 14.9476 209.158 15.086 208.28 15.086Z" fill="#F7CB2D"/>
<path d="M199.417 9.78063C199.417 10.0573 199.399 10.322 199.363 10.5746H192.921C192.981 11.4528 193.348 11.8919 194.021 11.8919C194.455 11.8919 194.767 11.6934 194.96 11.2964H199.2C199.056 12.0183 198.749 12.6679 198.28 13.2453C197.823 13.8108 197.24 14.2619 196.53 14.5987C195.832 14.9236 195.062 15.086 194.22 15.086C193.209 15.086 192.307 14.8754 191.513 14.4544C190.731 14.0333 190.118 13.4318 189.673 12.6498C189.239 11.8558 189.023 10.9295 189.023 9.87085C189.023 8.81219 189.239 7.89188 189.673 7.10991C190.118 6.31592 190.731 5.70839 191.513 5.28733C192.307 4.86627 193.209 4.65574 194.22 4.65574C195.231 4.65574 196.127 4.86627 196.909 5.28733C197.703 5.69636 198.316 6.28584 198.749 7.05578C199.194 7.82571 199.417 8.73399 199.417 9.78063ZM195.357 8.82422C195.357 8.48737 195.249 8.23474 195.032 8.06632C194.815 7.88586 194.545 7.79564 194.22 7.79564C193.51 7.79564 193.095 8.1385 192.975 8.82422H195.357Z" fill="#F7CB2D"/>
<path d="M188.039 11.549V14.9596H186.523C183.732 14.9596 182.336 13.5701 182.336 10.7911V8.12043H181.073V4.78204H182.336V2.32787H186.342V4.78204H188.003V8.12043H186.342V10.8633C186.342 11.1039 186.397 11.2784 186.505 11.3866C186.625 11.4949 186.818 11.549 187.082 11.549H188.039Z" fill="#F7CB2D"/>
<path d="M179.895 4.78204V14.9596H175.889V13.4077C175.577 13.8889 175.155 14.2799 174.626 14.5807C174.109 14.8814 173.489 15.0318 172.767 15.0318C171.601 15.0318 170.686 14.6408 170.025 13.8589C169.375 13.0769 169.05 12.0182 169.05 10.6829V4.78204H173.038V10.1776C173.038 10.6588 173.164 11.0438 173.417 11.3325C173.682 11.6092 174.031 11.7475 174.464 11.7475C174.909 11.7475 175.258 11.6092 175.51 11.3325C175.763 11.0438 175.889 10.6588 175.889 10.1776V4.78204H179.895Z" fill="#F7CB2D"/>
<path d="M163.291 4.70984C164.59 4.70984 165.594 5.10082 166.304 5.88278C167.026 6.66475 167.387 7.72341 167.387 9.05876V14.9596H163.399V9.56404C163.399 9.13095 163.267 8.7941 163.002 8.5535C162.749 8.30086 162.406 8.17454 161.973 8.17454C161.528 8.17454 161.179 8.30086 160.927 8.5535C160.674 8.7941 160.548 9.13095 160.548 9.56404V14.9596H156.56V9.56404C156.56 9.13095 156.427 8.7941 156.163 8.5535C155.91 8.30086 155.567 8.17454 155.134 8.17454C154.689 8.17454 154.34 8.30086 154.087 8.5535C153.835 8.7941 153.708 9.13095 153.708 9.56404V14.9596H149.702V4.78202H153.708V6.15346C153.997 5.72037 154.388 5.3715 154.881 5.10683C155.387 4.84217 155.976 4.70984 156.65 4.70984C157.384 4.70984 158.033 4.87224 158.599 5.19706C159.164 5.50985 159.615 5.95496 159.952 6.53242C160.325 6.00309 160.8 5.57 161.378 5.23315C161.955 4.88427 162.593 4.70984 163.291 4.70984Z" fill="#F7CB2D"/>
<path d="M143.871 4.70984C145.17 4.70984 146.174 5.10082 146.884 5.88278C147.606 6.66475 147.967 7.72341 147.967 9.05876V14.9596H143.979V9.56404C143.979 9.13095 143.847 8.7941 143.582 8.5535C143.329 8.30086 142.986 8.17454 142.553 8.17454C142.108 8.17454 141.759 8.30086 141.507 8.5535C141.254 8.7941 141.128 9.13095 141.128 9.56404V14.9596H137.14V9.56404C137.14 9.13095 137.007 8.7941 136.743 8.5535C136.49 8.30086 136.147 8.17454 135.714 8.17454C135.269 8.17454 134.92 8.30086 134.668 8.5535C134.415 8.7941 134.289 9.13095 134.289 9.56404V14.9596H130.283V4.78202H134.289V6.15346C134.577 5.72037 134.968 5.3715 135.462 5.10683C135.967 4.84217 136.556 4.70984 137.23 4.70984C137.964 4.70984 138.613 4.87224 139.179 5.19706C139.744 5.50985 140.195 5.95496 140.532 6.53242C140.905 6.00309 141.38 5.57 141.958 5.23315C142.535 4.88427 143.173 4.70984 143.871 4.70984Z" fill="#F7CB2D"/>
<path d="M123.646 15.086C122.624 15.086 121.704 14.8754 120.886 14.4544C120.067 14.0333 119.424 13.4318 118.955 12.6498C118.497 11.8558 118.269 10.9295 118.269 9.87085C118.269 8.81219 118.497 7.89188 118.955 7.10991C119.424 6.31592 120.067 5.70839 120.886 5.28733C121.704 4.86627 122.624 4.65574 123.646 4.65574C124.669 4.65574 125.589 4.86627 126.407 5.28733C127.225 5.70839 127.863 6.31592 128.32 7.10991C128.789 7.89188 129.024 8.81219 129.024 9.87085C129.024 10.9295 128.789 11.8558 128.32 12.6498C127.863 13.4318 127.225 14.0333 126.407 14.4544C125.589 14.8754 124.669 15.086 123.646 15.086ZM123.646 11.6213C124.019 11.6213 124.332 11.4769 124.585 11.1882C124.837 10.8874 124.964 10.4483 124.964 9.87085C124.964 9.2934 124.837 8.86031 124.585 8.57159C124.332 8.27083 124.019 8.12045 123.646 8.12045C123.274 8.12045 122.961 8.27083 122.708 8.57159C122.455 8.86031 122.329 9.2934 122.329 9.87085C122.329 10.4483 122.449 10.8874 122.69 11.1882C122.943 11.4769 123.261 11.6213 123.646 11.6213Z" fill="#F7CB2D"/>
<path d="M107.273 9.87085C107.273 8.81219 107.489 7.89188 107.922 7.10991C108.367 6.31592 108.981 5.70839 109.763 5.28733C110.557 4.86627 111.459 4.65574 112.47 4.65574C113.793 4.65574 114.906 5.02868 115.808 5.77456C116.722 6.52043 117.3 7.55503 117.54 8.87836H113.3C113.143 8.34903 112.837 8.08436 112.379 8.08436C112.055 8.08436 111.796 8.23474 111.603 8.5355C111.423 8.83625 111.333 9.28137 111.333 9.87085C111.333 10.4603 111.423 10.9055 111.603 11.2062C111.796 11.507 112.055 11.6573 112.379 11.6573C112.837 11.6573 113.143 11.3927 113.3 10.8633H117.54C117.3 12.1867 116.722 13.2213 115.808 13.9671C114.906 14.713 113.793 15.086 112.47 15.086C111.459 15.086 110.557 14.8754 109.763 14.4544C108.981 14.0333 108.367 13.4318 107.922 12.6498C107.489 11.8558 107.273 10.9295 107.273 9.87085Z" fill="#F7CB2D"/>
<path d="M104.03 4.78204L97.5157 19.8319H93.1307L95.6932 14.4543L91.4525 4.78204H95.9097L97.8225 9.94301L99.609 4.78204H104.03Z" fill="#F7CB2D"/>
<path d="M90.726 1.60609V14.9596H86.7199V1.60609H90.726Z" fill="#F7CB2D"/>
<path d="M81.0396 14.9596L78.5313 10.8994V14.9596H74.5252V1.60609H78.5313V8.58964L81.0757 4.78207H85.7314L81.9238 9.90695L85.8216 14.9596H81.0396Z" fill="#F7CB2D"/>
<path d="M73.2582 9.78063C73.2582 10.0573 73.2401 10.322 73.204 10.5746H66.7618C66.822 11.4528 67.1889 11.8919 67.8626 11.8919C68.2957 11.8919 68.6085 11.6934 68.801 11.2964H73.0416C72.8973 12.0183 72.5905 12.6679 72.1213 13.2453C71.6642 13.8108 71.0807 14.2619 70.3709 14.5987C69.6732 14.9236 68.9032 15.086 68.0611 15.086C67.0506 15.086 66.1483 14.8754 65.3543 14.4544C64.5723 14.0333 63.9588 13.4318 63.5137 12.6498C63.0806 11.8558 62.8641 10.9295 62.8641 9.87085C62.8641 8.81219 63.0806 7.89188 63.5137 7.10991C63.9588 6.31592 64.5723 5.70839 65.3543 5.28733C66.1483 4.86627 67.0506 4.65574 68.0611 4.65574C69.0717 4.65574 69.9679 4.86627 70.7499 5.28733C71.5439 5.69636 72.1574 6.28584 72.5905 7.05578C73.0356 7.82571 73.2582 8.73399 73.2582 9.78063ZM69.198 8.82422C69.198 8.48737 69.0897 8.23474 68.8732 8.06632C68.6566 7.88586 68.3859 7.79564 68.0611 7.79564C67.3513 7.79564 66.9363 8.1385 66.816 8.82422H69.198Z" fill="#F7CB2D"/>
<path d="M62.1384 9.78063C62.1384 10.0573 62.1204 10.322 62.0843 10.5746H55.6421C55.7023 11.4528 56.0692 11.8919 56.7429 11.8919C57.176 11.8919 57.4887 11.6934 57.6812 11.2964H61.9219C61.7775 12.0183 61.4708 12.6679 61.0016 13.2453C60.5444 13.8108 59.961 14.2619 59.2512 14.5987C58.5534 14.9236 57.7835 15.086 56.9414 15.086C55.9308 15.086 55.0286 14.8754 54.2346 14.4544C53.4526 14.0333 52.8391 13.4318 52.3939 12.6498C51.9609 11.8558 51.7443 10.9295 51.7443 9.87085C51.7443 8.81219 51.9609 7.89188 52.3939 7.10991C52.8391 6.31592 53.4526 5.70839 54.2346 5.28733C55.0286 4.86627 55.9308 4.65574 56.9414 4.65574C57.9519 4.65574 58.8482 4.86627 59.6301 5.28733C60.4241 5.69636 61.0377 6.28584 61.4708 7.05578C61.9159 7.82571 62.1384 8.73399 62.1384 9.78063ZM58.0782 8.82422C58.0782 8.48737 57.97 8.23474 57.7534 8.06632C57.5369 7.88586 57.2662 7.79564 56.9414 7.79564C56.2316 7.79564 55.8165 8.1385 55.6962 8.82422H58.0782Z" fill="#F7CB2D"/>
<path d="M50.849 2.18347L47.9257 14.9596H42.9452L41.4654 7.70534L39.9857 14.9596H35.0052L32.0819 2.18347H36.3947L37.5496 10.2317L39.2819 2.18347H43.6489L45.3813 10.2317L46.5362 2.18347H50.849Z" fill="#F7CB2D"/>
<path d="M28.659 4.78204L22.1447 19.8319H17.7597L20.3221 14.4543L16.0814 4.78204H20.5386L22.4514 9.94301L24.2379 4.78204H28.659Z" fill="#F7CB2D"/>
<path d="M15.3566 2.18347V14.9596H11.3686V8.58957L9.40163 14.9596H5.97301L4.00607 8.58957V14.9596H0V2.18347H4.90834L7.72341 9.85274L10.4663 2.18347H15.3566Z" fill="#F7CB2D"/>
</svg>
