<svg width="48" height="9" viewBox="0 0 48 9" fill="none" xmlns="http://www.w3.org/2000/svg">
<path d="M47.8793 3.6909L46.9652 3.9496C46.9077 3.79725 46.823 3.64922 46.7109 3.5055C46.6016 3.3589 46.4522 3.23817 46.2624 3.14331C46.0727 3.04846 45.8298 3.00103 45.5338 3.00103C45.1285 3.00103 44.7907 3.09445 44.5205 3.28129C44.2532 3.46525 44.1195 3.69952 44.1195 3.98409C44.1195 4.23705 44.2115 4.43682 44.3955 4.58342C44.5794 4.73002 44.8669 4.85218 45.2578 4.94991L46.2409 5.19137C46.833 5.33509 47.2742 5.55499 47.5646 5.85106C47.8549 6.14425 48 6.52225 48 6.98503C48 7.36446 47.8908 7.70365 47.6724 8.00259C47.4568 8.30154 47.155 8.53724 46.7669 8.70971C46.3788 8.88218 45.9276 8.96841 45.413 8.96841C44.7375 8.96841 44.1784 8.82182 43.7358 8.52862C43.2931 8.23543 43.0129 7.80713 42.895 7.24374L43.8608 7.00228C43.9528 7.35871 44.1267 7.62604 44.3825 7.80426C44.6412 7.98247 44.979 8.07158 45.3958 8.07158C45.8701 8.07158 46.2466 7.97097 46.5254 7.76976C46.8071 7.56568 46.948 7.32135 46.948 7.03677C46.948 6.80682 46.8675 6.61423 46.7065 6.45901C46.5456 6.30091 46.2984 6.18306 45.9649 6.10545L44.8611 5.84675C44.2546 5.70302 43.8091 5.48025 43.5245 5.17843C43.2428 4.87374 43.102 4.49287 43.102 4.03584C43.102 3.66216 43.2069 3.33159 43.4167 3.04415C43.6294 2.7567 43.9183 2.53105 44.2834 2.36721C44.6513 2.20337 45.0681 2.12144 45.5338 2.12144C46.1891 2.12144 46.7037 2.26517 47.0773 2.55261C47.4539 2.84006 47.7212 3.21949 47.8793 3.6909Z" fill="black"/>
<path d="M38.1478 8.96832C37.5959 8.96832 37.1087 8.82891 36.6861 8.55009C36.2636 8.26839 35.933 7.87172 35.6944 7.36006C35.4558 6.84553 35.3366 6.23758 35.3366 5.53622C35.3366 4.8406 35.4558 4.23696 35.6944 3.7253C35.933 3.21365 36.265 2.81841 36.6904 2.53959C37.1158 2.26076 37.6074 2.12135 38.165 2.12135C38.5962 2.12135 38.9368 2.19322 39.1869 2.33694C39.4398 2.47779 39.6324 2.63876 39.7647 2.81985C39.8998 2.99806 40.0047 3.14466 40.0794 3.25964H40.1657V0H41.1832V8.83035H40.2001V7.81279H40.0794C40.0047 7.93352 39.8983 8.08586 39.7604 8.26983C39.6224 8.45092 39.4255 8.61333 39.1697 8.75705C38.9138 8.8979 38.5732 8.96832 38.1478 8.96832ZM38.2858 8.05424C38.6939 8.05424 39.0389 7.94789 39.3206 7.73518C39.6023 7.51959 39.8164 7.22209 39.963 6.84266C40.1096 6.46035 40.1829 6.01913 40.1829 5.51897C40.1829 5.02456 40.111 4.59195 39.9673 4.22115C39.8236 3.84747 39.6109 3.55715 39.3292 3.35019C39.0475 3.14035 38.6997 3.03543 38.2858 3.03543C37.8546 3.03543 37.4953 3.1461 37.2078 3.36743C36.9233 3.58589 36.7091 3.8834 36.5654 4.25995C36.4245 4.63363 36.3541 5.05331 36.3541 5.51897C36.3541 5.99038 36.426 6.41868 36.5697 6.80385C36.7163 7.18616 36.9319 7.49085 37.2165 7.71793C37.5039 7.94214 37.8603 8.05424 38.2858 8.05424Z" fill="black"/>
<path d="M31.3308 8.83039V2.20763H32.3139V3.20795H32.3829C32.5036 2.88026 32.7221 2.61437 33.0382 2.41028C33.3544 2.2062 33.7109 2.10415 34.1075 2.10415C34.1823 2.10415 34.2757 2.10559 34.3878 2.10846C34.4999 2.11134 34.5847 2.11565 34.6422 2.1214V3.15621C34.6077 3.14758 34.5287 3.13465 34.4051 3.1174C34.2843 3.09728 34.1564 3.08722 34.0213 3.08722C33.6994 3.08722 33.4119 3.15477 33.159 3.28987C32.9089 3.42209 32.7106 3.60606 32.564 3.84176C32.4202 4.0746 32.3484 4.34048 32.3484 4.63943V8.83039H31.3308Z" fill="black"/>
<path d="M26.4383 8.98566C26.0186 8.98566 25.6378 8.90661 25.2957 8.74852C24.9536 8.58755 24.682 8.35615 24.4808 8.05433C24.2796 7.74964 24.179 7.38171 24.179 6.95054C24.179 6.57111 24.2537 6.26354 24.4032 6.02784C24.5527 5.78926 24.7524 5.60242 25.0025 5.46732C25.2526 5.33222 25.5285 5.23161 25.8303 5.1655C26.135 5.09651 26.4412 5.0419 26.7487 5.00165C27.1512 4.94991 27.4774 4.91111 27.7275 4.88524C27.9804 4.85649 28.1644 4.80907 28.2794 4.74295C28.3972 4.67684 28.4562 4.56186 28.4562 4.39802V4.36352C28.4562 3.9381 28.3398 3.60754 28.1069 3.37183C27.877 3.13613 27.5277 3.01828 27.0592 3.01828C26.5734 3.01828 26.1925 3.12463 25.9166 3.33734C25.6406 3.55005 25.4466 3.77713 25.3345 4.01859L24.3687 3.67365C24.5412 3.27123 24.7711 2.95791 25.0586 2.7337C25.3489 2.50662 25.6651 2.34853 26.0071 2.25942C26.3521 2.16744 26.6912 2.12144 27.0247 2.12144C27.2374 2.12144 27.4817 2.14731 27.7577 2.19905C28.0365 2.24792 28.3053 2.34996 28.564 2.50518C28.8255 2.66041 29.0426 2.89467 29.215 3.20799C29.3875 3.52131 29.4737 3.94098 29.4737 4.467V8.83044H28.4562V7.93361H28.4044C28.3354 8.07733 28.2205 8.23111 28.0595 8.39496C27.8985 8.5588 27.6844 8.69821 27.4171 8.81319C27.1497 8.92817 26.8235 8.98566 26.4383 8.98566ZM26.5935 8.07158C26.9959 8.07158 27.3351 7.99253 27.6111 7.83444C27.8899 7.67634 28.0997 7.47226 28.2406 7.22218C28.3843 6.9721 28.4562 6.70909 28.4562 6.43314V5.50181C28.4131 5.55355 28.3182 5.60098 28.1716 5.6441C28.0279 5.68434 27.8612 5.72027 27.6714 5.75189C27.4846 5.78063 27.3021 5.8065 27.1239 5.8295C26.9485 5.84962 26.8062 5.86687 26.697 5.88124C26.4325 5.91573 26.1853 5.97179 25.9554 6.0494C25.7283 6.12413 25.5443 6.23767 25.4035 6.39002C25.2655 6.53949 25.1965 6.74358 25.1965 7.00228C25.1965 7.35584 25.3273 7.62316 25.5889 7.80426C25.8533 7.98247 26.1882 8.07158 26.5935 8.07158Z" fill="black"/>
<path d="M16.1247 8.83042L14.1068 2.20765H15.1761L16.6076 7.27821H16.6766L18.0908 2.20765H19.1774L20.5743 7.26096H20.6433L22.0748 2.20765H23.1441L21.1262 8.83042H20.1259L18.6772 3.74262H18.5737L17.125 8.83042H16.1247Z" fill="black"/>
<path d="M10.3341 8.96841C9.69599 8.96841 9.14553 8.82756 8.68274 8.54587C8.22283 8.2613 7.86783 7.86462 7.61775 7.35584C7.37055 6.84419 7.24695 6.24917 7.24695 5.5708C7.24695 4.89243 7.37055 4.29454 7.61775 3.77713C7.86783 3.25686 8.21564 2.85156 8.66118 2.56124C9.1096 2.26804 9.63275 2.12144 10.2306 2.12144C10.5756 2.12144 10.9162 2.17893 11.2525 2.29391C11.5888 2.40889 11.895 2.59573 12.1709 2.85443C12.4469 3.11026 12.6667 3.44945 12.8306 3.87199C12.9944 4.29454 13.0764 4.81481 13.0764 5.43282V5.86399H7.97131V4.98441H12.0416C12.0416 4.61073 11.9668 4.27729 11.8173 3.98409C11.6707 3.6909 11.4609 3.45951 11.1878 3.28991C10.9176 3.12032 10.5986 3.03552 10.2306 3.03552C9.82534 3.03552 9.47466 3.13613 9.17859 3.33734C8.88539 3.53568 8.65975 3.79438 8.50165 4.11345C8.34355 4.43251 8.26451 4.77457 8.26451 5.13963V5.72602C8.26451 6.22618 8.35074 6.65016 8.52321 6.99797C8.69855 7.3429 8.94144 7.60592 9.25189 7.78701C9.56233 7.96523 9.92307 8.05433 10.3341 8.05433C10.6014 8.05433 10.8429 8.01697 11.0585 7.94223C11.2769 7.86462 11.4652 7.74964 11.6233 7.59729C11.7814 7.44207 11.9036 7.24948 11.9898 7.01953L12.9729 7.29548C12.8694 7.62891 12.6955 7.92211 12.4512 8.17506C12.2068 8.42514 11.905 8.6206 11.5457 8.76145C11.1864 8.89943 10.7825 8.96841 10.3341 8.96841Z" fill="black"/>
<path d="M0 8.83035V0H2.98369C3.67356 0 4.23983 0.117853 4.6825 0.353559C5.12517 0.58639 5.45286 0.906893 5.66557 1.31507C5.87828 1.72324 5.98463 2.18747 5.98463 2.70774C5.98463 3.22802 5.87828 3.68937 5.66557 4.0918C5.45286 4.49422 5.1266 4.81041 4.68681 5.04037C4.24702 5.26745 3.68506 5.38099 3.00094 5.38099H0.58639V4.41517H2.96645C3.43786 4.41517 3.81729 4.34619 4.10473 4.20821C4.39505 4.07024 4.60489 3.87478 4.73424 3.62182C4.86647 3.366 4.93258 3.0613 4.93258 2.70774C4.93258 2.35418 4.86647 2.04518 4.73424 1.78073C4.60201 1.51628 4.39074 1.31219 4.10042 1.16847C3.8101 1.02187 3.42636 0.948573 2.9492 0.948573H1.0693V8.83035H0ZM4.15647 4.86359L6.32957 8.83035H5.0878L2.9492 4.86359H4.15647Z" fill="black"/>
</svg>
