<svg width="30" height="9" viewBox="0 0 30 9" fill="none" xmlns="http://www.w3.org/2000/svg">
<path d="M29.8801 3.6676L28.9718 3.92467C28.9146 3.77329 28.8304 3.62619 28.719 3.48337C28.6104 3.3377 28.4619 3.21773 28.2734 3.12348C28.0849 3.02922 27.8435 2.98209 27.5493 2.98209C27.1466 2.98209 26.811 3.07492 26.5425 3.26058C26.2768 3.44338 26.144 3.67617 26.144 3.95895C26.144 4.21031 26.2354 4.40882 26.4182 4.55449C26.601 4.70016 26.8867 4.82156 27.2751 4.91867L28.252 5.1586C28.8404 5.30142 29.2788 5.51993 29.5673 5.81413C29.8558 6.10547 30 6.48108 30 6.94095C30 7.31798 29.8915 7.65503 29.6744 7.95209C29.4602 8.24914 29.1603 8.48336 28.7747 8.65474C28.3891 8.82612 27.9406 8.91181 27.4294 8.91181C26.7581 8.91181 26.2026 8.76614 25.7627 8.47479C25.3228 8.18345 25.0443 7.75786 24.9272 7.19802L25.8869 6.95809C25.9783 7.31227 26.1512 7.57791 26.4054 7.755C26.6624 7.93209 26.9981 8.02064 27.4122 8.02064C27.8835 8.02064 28.2577 7.92067 28.5348 7.72072C28.8147 7.51792 28.9546 7.27514 28.9546 6.99236C28.9546 6.76386 28.8747 6.57248 28.7147 6.41824C28.5547 6.26114 28.3091 6.14403 27.9778 6.06691L26.8809 5.80984C26.2783 5.66703 25.8355 5.44566 25.5528 5.14575C25.2728 4.84298 25.1329 4.46452 25.1329 4.01036C25.1329 3.63904 25.2371 3.31056 25.4456 3.02493C25.657 2.7393 25.9441 2.51508 26.3068 2.35227C26.6724 2.18946 27.0866 2.10805 27.5493 2.10805C28.2006 2.10805 28.7118 2.25087 29.0832 2.5365C29.4573 2.82213 29.723 3.19917 29.8801 3.6676Z" fill="black"/>
<path d="M23.3664 0V8.77462H22.3552V0H23.3664Z" fill="black"/>
<path d="M17.4936 8.92895C17.0766 8.92895 16.6981 8.8504 16.3582 8.6933C16.0183 8.53335 15.7484 8.30341 15.5484 8.0035C15.3485 7.70073 15.2485 7.33512 15.2485 6.90667C15.2485 6.52964 15.3228 6.22401 15.4713 5.98979C15.6199 5.75272 15.8184 5.56706 16.0669 5.43281C16.3154 5.29856 16.5896 5.19859 16.8895 5.1329C17.1923 5.06435 17.4965 5.01008 17.8021 4.97009C18.202 4.91867 18.5262 4.88011 18.7747 4.85441C19.026 4.82584 19.2088 4.77871 19.3231 4.71302C19.4402 4.64732 19.4987 4.53307 19.4987 4.37026V4.33598C19.4987 3.91325 19.3831 3.58477 19.1517 3.35055C18.9232 3.11633 18.5761 2.99923 18.1106 2.99923C17.6278 2.99923 17.2494 3.10491 16.9752 3.31628C16.701 3.52764 16.5082 3.75329 16.3968 3.99323L15.4371 3.65047C15.6084 3.25058 15.8369 2.93924 16.1226 2.71645C16.4111 2.4908 16.7253 2.3337 17.0652 2.24516C17.4079 2.15376 17.745 2.10805 18.0763 2.10805C18.2877 2.10805 18.5304 2.13376 18.8047 2.18517C19.0817 2.23373 19.3488 2.33513 19.6059 2.48937C19.8658 2.64361 20.0814 2.8764 20.2528 3.18774C20.4242 3.49908 20.5099 3.9161 20.5099 4.43881V8.77471H19.4987V7.88353H19.4473C19.3788 8.02635 19.2645 8.17916 19.1046 8.34197C18.9446 8.50478 18.7318 8.64332 18.4662 8.75757C18.2005 8.87182 17.8763 8.92895 17.4936 8.92895ZM17.6478 8.02064C18.0477 8.02064 18.3848 7.94209 18.659 7.78499C18.936 7.62789 19.1446 7.42509 19.2845 7.17659C19.4273 6.92809 19.4987 6.66674 19.4987 6.39253V5.46709C19.4559 5.5185 19.3616 5.56563 19.216 5.60847C19.0731 5.64846 18.9075 5.68417 18.719 5.71559C18.5333 5.74415 18.3519 5.76986 18.1748 5.79271C18.0006 5.8127 17.8592 5.82984 17.7507 5.84412C17.4879 5.8784 17.2422 5.93409 17.0137 6.01122C16.7881 6.08548 16.6053 6.1983 16.4653 6.34969C16.3282 6.49822 16.2597 6.70102 16.2597 6.95809C16.2597 7.30941 16.3896 7.57505 16.6496 7.755C16.9123 7.93209 17.2451 8.02064 17.6478 8.02064Z" fill="black"/>
<path d="M11.294 8.91181C10.6599 8.91181 10.1129 8.77185 9.653 8.49193C9.19599 8.20915 8.84324 7.81498 8.59474 7.30941C8.34909 6.80099 8.22627 6.20973 8.22627 5.53564C8.22627 4.86155 8.34909 4.26743 8.59474 3.75329C8.84324 3.2363 9.18885 2.83356 9.63158 2.54507C10.0772 2.25373 10.597 2.10805 11.1911 2.10805C11.5339 2.10805 11.8724 2.16518 12.2066 2.27943C12.5407 2.39369 12.8449 2.57935 13.1191 2.83642C13.3934 3.09063 13.6119 3.42767 13.7747 3.84755C13.9375 4.26743 14.0189 4.78443 14.0189 5.39853V5.82698H8.94606V4.95295H12.9906C12.9906 4.58163 12.9163 4.25029 12.7678 3.95895C12.6221 3.6676 12.4136 3.43767 12.1423 3.26915C11.8738 3.10062 11.5567 3.01636 11.1911 3.01636C10.7884 3.01636 10.4399 3.11633 10.1457 3.31628C9.85437 3.51336 9.63015 3.77043 9.47305 4.08748C9.31596 4.40454 9.23741 4.74444 9.23741 5.10719V5.68988C9.23741 6.18688 9.3231 6.60819 9.49448 6.9538C9.66871 7.29656 9.91007 7.55791 10.2186 7.73786C10.527 7.91495 10.8855 8.0035 11.294 8.0035C11.5596 8.0035 11.7995 7.96637 12.0138 7.8921C12.2308 7.81498 12.4179 7.70073 12.575 7.54934C12.7321 7.3951 12.8535 7.20373 12.9392 6.97522L13.9161 7.24943C13.8132 7.58076 13.6404 7.87211 13.3976 8.12346C13.1549 8.37196 12.8549 8.56619 12.4979 8.70615C12.1409 8.84326 11.7395 8.91181 11.294 8.91181Z" fill="black"/>
<path d="M2.70779 8.77462H0V0H2.82776C3.67894 0 4.4073 0.175664 5.01284 0.526991C5.61838 0.875462 6.08253 1.37675 6.4053 2.03084C6.72806 2.68208 6.88945 3.46186 6.88945 4.37017C6.88945 5.28419 6.72664 6.07111 6.40101 6.73092C6.07539 7.38787 5.60124 7.89344 4.97857 8.24763C4.35589 8.59895 3.59896 8.77462 2.70779 8.77462ZM1.06255 7.83203H2.63924C3.36475 7.83203 3.966 7.69207 4.44301 7.41215C4.92001 7.13223 5.27562 6.73378 5.50984 6.21678C5.74406 5.69979 5.86117 5.08425 5.86117 4.37017C5.86117 3.6618 5.74549 3.05198 5.51413 2.5407C5.28276 2.02656 4.93715 1.63239 4.47728 1.35818C4.01741 1.08112 3.44472 0.942586 2.75921 0.942586H1.06255V7.83203Z" fill="black"/>
</svg>
